<svg width="207" height="82" viewBox="0 0 207 82" fill="none" xmlns="http://www.w3.org/2000/svg">
<path d="M118.155 81.3483L206.448 68.5458L194.873 54.4834L204.649 37.4219L122.05 49.0861L118.155 81.3483Z" fill="url(#paint0_linear)"/>
<path d="M164.659 42.9844L118.155 81.3473L121.784 43.6622L160.609 42.9844H164.659Z" fill="url(#paint1_linear)"/>
<path d="M168.441 0.445312L164.659 42.9777L121.291 48.7267L0 64.6371L9.48681e-06 58.5002L1.84743e-05 36.1093L9.48681e-06 21.3434L168.441 0.445312Z" fill="url(#paint2_linear)"/>
<path d="M44.5289 26.7361L41.378 27.1392C41.5016 27.523 41.7429 28.5797 41.807 29.0377C41.8591 29.4083 41.9478 30.0407 42.032 30.8068C41.5785 30.887 41.1248 30.9673 40.7138 31.0198C39.8919 31.125 38.9069 31.2288 37.5385 31.2485L37.9543 33.8811C38.7427 33.869 39.6364 33.7769 41.1661 33.5812C41.5314 33.5344 41.9394 33.46 42.3701 33.3827C42.4557 33.9933 42.5414 34.6038 42.627 35.2144C42.6974 35.7159 42.7708 36.2392 42.8671 36.7596C40.2208 38.2746 38.2159 40.551 38.482 42.4481C38.8063 44.7594 42.1913 46.1908 44.4061 45.9075C45.913 45.7147 46.8167 44.8665 46.4374 42.1627C46.3334 41.4213 46.0491 39.7264 45.7618 38.0096C47.0995 37.4389 48.5531 37.031 49.9687 36.8498C51.9551 36.5957 53.4475 37.2926 53.6555 38.7754C53.8788 40.3672 52.5398 41.4263 50.7363 41.99C49.9555 42.2231 48.9768 42.3705 47.9492 42.502L49.3942 45.1805C50.3212 44.9953 51.3166 44.8013 52.3364 44.4489C55.8443 43.1122 56.9878 40.9904 56.6267 38.4174C56.2046 35.4083 53.1972 34.0174 49.681 34.4672C48.4252 34.6279 46.8772 35.0257 45.3766 35.5951C45.3369 35.3116 45.3001 35.0499 45.2634 34.7883C45.1747 34.1559 45.0799 33.48 45.0109 32.8229C46.4706 32.4586 48.0154 32.0389 49.2772 31.589L48.8293 28.8939C47.688 29.3729 46.2208 29.8491 44.7382 30.2164C44.6846 29.6683 44.6341 29.1421 44.5896 28.6595C44.5557 28.0867 44.5155 27.1374 44.5289 26.7361ZM51.3666 28.2585L50.4076 30.5343C51.9149 31.0073 55.1354 32.26 56.3568 33.0138L57.4148 30.6144C56.0884 29.9406 53.2379 28.8403 51.3666 28.2585ZM41.2751 41.9797C41.1681 41.2165 41.9788 40.2027 43.2707 39.305C43.4815 40.4766 43.645 41.4767 43.7215 42.0219C43.8256 42.7632 43.5304 42.9786 43.1194 43.0312C42.5257 43.1071 41.37 42.6557 41.2751 41.9797ZM72.3347 23.3117L69.0239 23.7353C69.1291 23.9882 69.3244 24.7179 69.5183 25.6031C69.5657 25.7747 69.5963 25.9927 69.6589 26.2733C66.5597 26.7142 62.4165 27.3331 59.8135 27.6661L60.2522 30.2958C63.0391 29.7838 66.5826 29.1972 70.0243 28.7125C70.1144 29.1893 70.1847 29.6908 70.2521 30.1705C69.9491 30.1649 69.6492 30.1811 69.3296 30.222C66.8409 30.5404 64.9894 32.4198 65.3351 34.8838C65.7083 37.544 68.067 38.6184 69.8252 38.3935C70.1905 38.3468 70.5268 38.2593 70.8373 38.153C69.765 39.622 67.8568 40.5986 65.6149 41.3516L68.3822 43.3504C73.7454 41.1548 74.9729 37.3131 74.5752 34.4785C74.4161 33.3446 73.9984 32.3548 73.3342 31.5963C73.1996 30.6369 73.0085 29.4405 72.8525 28.3285C75.9577 27.9312 78.0873 27.7031 79.4664 27.5932L79.1283 25.0173C77.9379 25.1474 74.8159 25.5912 72.5099 25.8863C72.496 25.6217 72.4623 25.3819 72.4378 25.2074C72.4118 24.8556 72.3379 23.6664 72.3347 23.3117ZM68.0689 34.4896C67.9067 33.334 68.6918 32.6342 69.5823 32.5203C70.1988 32.4414 70.7835 32.633 71.1734 33.0936C71.7623 34.9715 71.0154 35.7774 70.0565 35.9001C69.1431 36.0169 68.2095 35.4927 68.0689 34.4896ZM95.1672 20.3904L91.8566 20.814C91.9618 21.0669 92.1571 21.7966 92.351 22.6818C92.3983 22.8534 92.4289 23.0714 92.4915 23.352C89.3924 23.7929 85.249 24.4118 82.6461 24.7448L83.0847 27.3745C85.8718 26.8625 89.4153 26.2759 92.857 25.7912C92.947 26.268 93.0174 26.7695 93.0847 27.2492C92.7818 27.2436 92.4819 27.2598 92.1622 27.3007C89.6734 27.6191 87.8221 29.4985 88.1678 31.9625C88.541 34.6227 90.8997 35.6971 92.6578 35.4722C93.0232 35.4255 93.3595 35.338 93.67 35.2317C92.5977 36.7007 90.6893 37.6773 88.4476 38.4303L91.2149 40.4291C96.578 38.2335 97.8055 34.3918 97.4079 31.5572C97.2488 30.4233 96.831 29.4335 96.1668 28.675C96.0322 27.7156 95.8412 26.5192 95.6852 25.4072C98.7904 25.0099 100.92 24.7818 102.299 24.6719L101.961 22.096C100.771 22.2261 97.6486 22.6699 95.3425 22.965C95.3286 22.7004 95.295 22.4605 95.2705 22.2861C95.2444 21.9343 95.1706 20.7451 95.1672 20.3904ZM90.9015 31.5683C90.7394 30.4127 91.5244 29.7129 92.4149 29.599C93.0314 29.5201 93.6162 29.7117 94.0061 30.1723C94.595 32.0502 93.8481 32.8561 92.889 32.9788C91.9757 33.0956 91.0422 32.5714 90.9015 31.5683ZM119.117 17.8144L115.927 17.9341C115.997 18.4356 116.061 19.382 116.035 20.029C116.035 20.3619 116.016 20.7195 115.976 21.1019C114.227 21.3923 112.596 22.0228 110.977 23.0734C110.753 22.6359 110.552 22.1955 110.379 21.7958C110.105 21.165 109.821 20.4688 109.583 19.7668L106.717 21.0435C107.239 21.7759 107.587 22.4415 107.949 23.1944C108.237 23.7568 108.503 24.3222 108.814 24.8817C106.98 26.892 106.051 29.7187 106.4 32.2045C106.795 35.0174 108.745 36.3217 110.64 36.0793C112.329 35.8631 113.507 34.9799 114.814 33.1924C115.082 33.4467 115.395 33.6951 115.709 33.9435L117.771 31.904C117.282 31.5671 116.806 31.1617 116.331 30.7564C117.367 28.6928 118.019 26.0567 118.464 23.4251C120.829 23.7217 122.498 25.3504 122.839 27.7708C123.221 30.4964 121.58 33.2145 116.635 34.2468L118.725 36.5542C123.376 35.2488 126.453 32.1692 125.805 27.5465C125.27 23.7306 122.507 21.2652 118.813 20.9388C118.841 20.6466 118.872 20.3762 118.902 20.084C118.962 19.5213 119.018 18.4266 119.117 17.8144ZM109.041 31.6447C108.851 30.2928 109.251 28.6657 110.156 27.3291C111.047 28.8798 111.986 30.2691 112.867 31.2441C112.159 32.3334 111.409 33.1174 110.587 33.2226C109.765 33.3278 109.192 32.7131 109.041 31.6447ZM112.132 25.345C113.119 24.5971 114.265 23.9844 115.637 23.6535C115.338 25.3343 114.892 27.1228 114.265 28.6235C113.595 27.8214 112.847 26.6297 112.132 25.345Z" fill="white"/>
<path d="M155.017 59.7883L153.739 60.3389L153.391 58.1097L154.594 57.9378L154.349 56.3732L153.146 56.5451L152.729 53.8866L151.149 54.1124L151.564 56.7708L150.884 56.8681C150.884 56.3019 150.871 55.7515 150.843 55.1894L149.371 55.1591C149.496 56.8115 149.52 58.5775 149.243 59.7355C149.59 59.8699 150.286 60.1527 150.58 60.3231C150.705 59.7956 150.785 59.1754 150.839 58.4742L151.809 58.3354L152.224 60.98C151.28 61.3839 150.429 61.7318 149.729 61.9876L150.394 63.4921C151.036 63.2307 151.726 62.9056 152.473 62.5723L153.174 67.0445L154.754 66.8188L153.982 61.8896C154.495 61.6607 154.976 61.422 155.476 61.209L155.017 59.7883ZM156.977 55.4597C157.085 54.8215 157.176 54.1715 157.221 53.5139L155.612 53.4607C155.495 55.5581 155.008 57.652 154.051 59.0202C154.433 59.1782 155.185 59.5378 155.502 59.7615C155.963 59.0162 156.336 58.0852 156.607 57.0698L157.347 56.9642C157.023 59.063 156.213 61.2737 154.947 62.5587C155.434 62.7299 156.043 63.025 156.412 63.2979C157.668 61.7595 158.497 59.1071 158.782 56.7591L159.463 56.6618C159.246 60.0053 158.288 63.3554 156.218 65.2791C156.733 65.4461 157.391 65.7627 157.774 66.0336C159.82 63.8586 160.749 60.0454 160.913 56.4547L160.985 56.4443C161.532 61.4482 161.567 63.3685 161.273 63.8634C161.132 64.0959 160.995 64.172 160.778 64.2031C160.503 64.2424 160.024 64.3107 159.479 64.332C159.812 64.7516 160.091 65.4052 160.208 65.8698C160.837 65.8084 161.445 65.7214 161.841 65.5942C162.304 65.429 162.599 65.2311 162.859 64.7127C163.302 63.9417 163.208 61.6475 162.517 55.4329C162.501 55.237 162.428 54.681 162.428 54.681L156.977 55.4597ZM166.175 52.0083C165.773 54.076 164.848 56.2181 163.768 57.6465C164.123 58.0205 164.74 58.8383 164.964 59.2309C165.207 58.8848 165.443 58.4973 165.679 58.1097L166.77 65.0742L168.407 64.8402L166.933 55.4249C167.334 54.3909 167.654 53.3118 167.892 52.2728L166.175 52.0083ZM177.637 57.1377L173.925 57.6678L173.552 55.2863L176.582 54.8535L176.33 53.2474L173.301 53.6802L172.908 51.1741L171.168 51.4226L171.56 53.9287L170.357 54.1006C170.435 53.5517 170.496 53.0048 170.528 52.4483L168.808 52.3541C168.739 54.091 168.421 55.9343 167.807 57.1261C168.256 57.2461 169.07 57.5261 169.424 57.7021C169.667 57.1719 169.888 56.5032 170.043 55.7875L171.812 55.5349L172.185 57.9164L168.27 58.4755L168.522 60.0817L172.437 59.5225L173.165 64.1747L174.905 63.9262L174.176 59.274L177.888 58.7438L177.637 57.1377Z" fill="white"/>
<defs>
<linearGradient id="paint0_linear" x1="48.1535" y1="135.233" x2="165.667" y2="53.5264" gradientUnits="userSpaceOnUse">
<stop stop-color="#D7293B"/>
<stop offset="0.6796" stop-color="#FE425D"/>
<stop offset="1" stop-color="#FF7456"/>
</linearGradient>
<linearGradient id="paint1_linear" x1="133.038" y1="51.4287" x2="83.6768" y2="80.7114" gradientUnits="userSpaceOnUse">
<stop stop-color="#D32737"/>
<stop offset="0.6796" stop-color="#FC3A5D"/>
<stop offset="1" stop-color="#FF7456"/>
</linearGradient>
<linearGradient id="paint2_linear" x1="5.70186" y1="93.378" x2="127.459" y2="-3.90899" gradientUnits="userSpaceOnUse">
<stop stop-color="#C7212C"/>
<stop offset="0.6796" stop-color="#FE3B5E"/>
<stop offset="1" stop-color="#FF7456"/>
</linearGradient>
</defs>
</svg>