<svg width="70" height="70" viewBox="0 0 70 70" fill="none" xmlns="http://www.w3.org/2000/svg">
<mask id="mask0_105:62357" style="mask-type:alpha" maskUnits="userSpaceOnUse" x="0" y="0" width="70" height="70">
<rect width="70" height="70" fill="#C4C4C4"/>
</mask>
<g mask="url(#mask0_105:62357)">
<path d="M58.7071 36.7071C59.0976 36.3166 59.0976 35.6834 58.7071 35.2929L52.3431 28.9289C51.9526 28.5384 51.3195 28.5384 50.9289 28.9289C50.5384 29.3195 50.5384 29.9526 50.9289 30.3431L56.5858 36L50.9289 41.6569C50.5384 42.0474 50.5384 42.6805 50.9289 43.0711C51.3195 43.4616 51.9526 43.4616 52.3431 43.0711L58.7071 36.7071ZM8 37L10.5 37L10.5 35L8 35L8 37ZM15.5 37L20.5 37L20.5 35L15.5 35L15.5 37ZM25.5 37L30.5 37L30.5 35L25.5 35L25.5 37ZM35.5 37L40.5 37L40.5 35L35.5 35L35.5 37ZM45.5 37L50.5 37L50.5 35L45.5 35L45.5 37ZM55.5 37L58 37L58 35L55.5 35L55.5 37ZM59.4142 37.4142C60.1953 36.6332 60.1953 35.3668 59.4142 34.5858L46.6863 21.8579C45.9052 21.0768 44.6389 21.0768 43.8579 21.8579C43.0768 22.6389 43.0768 23.9052 43.8579 24.6863L55.1716 36L43.8579 47.3137C43.0768 48.0948 43.0768 49.3611 43.8579 50.1421C44.6389 50.9232 45.9052 50.9232 46.6863 50.1421L59.4142 37.4142ZM8 38L10.5 38L10.5 34L8 34L8 38ZM15.5 38L20.5 38L20.5 34L15.5 34L15.5 38ZM25.5 38L30.5 38L30.5 34L25.5 34L25.5 38ZM35.5 38L40.5 38L40.5 34L35.5 34L35.5 38ZM45.5 38L50.5 38L50.5 34L45.5 34L45.5 38ZM55.5 38L58 38L58 34L55.5 34L55.5 38Z" fill="#EA5B21"/>
</g>
</svg>
 
