<svg width="70" height="70" viewBox="0 0 70 70" fill="none" xmlns="http://www.w3.org/2000/svg">
<path d="M64.6172 49.1328H44.9297L49.3047 43.6641H60.2422L64.6172 49.1328Z" fill="white"/>
<path d="M64.6172 49.1328H44.9297V64.4453H64.6172V49.1328Z" fill="white"/>
<path d="M55.8672 18.5078V43.6641H49.3047L44.9297 49.1328V57.8828H5.55469V18.5078H55.8672Z" fill="white"/>
<path d="M55.8672 9.75781H5.55469V18.5078H55.8672V9.75781Z" fill="white"/>
<path d="M26.3359 25.0703H24.1484C23.5444 25.0703 23.0547 25.56 23.0547 26.1641V28.3516C23.0547 28.9556 23.5444 29.4453 24.1484 29.4453H26.3359C26.94 29.4453 27.4297 28.9556 27.4297 28.3516V26.1641C27.4297 25.56 26.94 25.0703 26.3359 25.0703Z" fill="#EA5B21"/>
<path d="M37.2734 25.0703H35.0859C34.4819 25.0703 33.9922 25.56 33.9922 26.1641V28.3516C33.9922 28.9556 34.4819 29.4453 35.0859 29.4453H37.2734C37.8775 29.4453 38.3672 28.9556 38.3672 28.3516V26.1641C38.3672 25.56 37.8775 25.0703 37.2734 25.0703Z" fill="#EA5B21"/>
<path d="M48.2109 25.0703H46.0234C45.4194 25.0703 44.9297 25.56 44.9297 26.1641V28.3516C44.9297 28.9556 45.4194 29.4453 46.0234 29.4453H48.2109C48.815 29.4453 49.3047 28.9556 49.3047 28.3516V26.1641C49.3047 25.56 48.815 25.0703 48.2109 25.0703Z" fill="#EA5B21"/>
<path d="M15.3984 36.0078H13.2109C12.6069 36.0078 12.1172 36.4975 12.1172 37.1016V39.2891C12.1172 39.8931 12.6069 40.3828 13.2109 40.3828H15.3984C16.0025 40.3828 16.4922 39.8931 16.4922 39.2891V37.1016C16.4922 36.4975 16.0025 36.0078 15.3984 36.0078Z" fill="#EA5B21"/>
<path d="M26.3359 36.0078H24.1484C23.5444 36.0078 23.0547 36.4975 23.0547 37.1016V39.2891C23.0547 39.8931 23.5444 40.3828 24.1484 40.3828H26.3359C26.94 40.3828 27.4297 39.8931 27.4297 39.2891V37.1016C27.4297 36.4975 26.94 36.0078 26.3359 36.0078Z" fill="#EA5B21"/>
<path d="M37.2734 36.0078H35.0859C34.4819 36.0078 33.9922 36.4975 33.9922 37.1016V39.2891C33.9922 39.8931 34.4819 40.3828 35.0859 40.3828H37.2734C37.8775 40.3828 38.3672 39.8931 38.3672 39.2891V37.1016C38.3672 36.4975 37.8775 36.0078 37.2734 36.0078Z" fill="#EA5B21"/>
<path d="M48.2109 36.0078H46.0234C45.4194 36.0078 44.9297 36.4975 44.9297 37.1016V39.2891C44.9297 39.8931 45.4194 40.3828 46.0234 40.3828H48.2109C48.815 40.3828 49.3047 39.8931 49.3047 39.2891V37.1016C49.3047 36.4975 48.815 36.0078 48.2109 36.0078Z" fill="#EA5B21"/>
<path d="M15.3984 46.9453H13.2109C12.6069 46.9453 12.1172 47.435 12.1172 48.0391V50.2266C12.1172 50.8306 12.6069 51.3203 13.2109 51.3203H15.3984C16.0025 51.3203 16.4922 50.8306 16.4922 50.2266V48.0391C16.4922 47.435 16.0025 46.9453 15.3984 46.9453Z" fill="#EA5B21"/>
<path d="M26.3359 46.9453H24.1484C23.5444 46.9453 23.0547 47.435 23.0547 48.0391V50.2266C23.0547 50.8306 23.5444 51.3203 24.1484 51.3203H26.3359C26.94 51.3203 27.4297 50.8306 27.4297 50.2266V48.0391C27.4297 47.435 26.94 46.9453 26.3359 46.9453Z" fill="#EA5B21"/>
<path d="M37.2734 46.9453H35.0859C34.4819 46.9453 33.9922 47.435 33.9922 48.0391V50.2266C33.9922 50.8306 34.4819 51.3203 35.0859 51.3203H37.2734C37.8775 51.3203 38.3672 50.8306 38.3672 50.2266V48.0391C38.3672 47.435 37.8775 46.9453 37.2734 46.9453Z" fill="#EA5B21"/>
<path d="M51.4062 61.25H49.2188C48.9287 61.25 48.6505 61.1348 48.4454 60.9296C48.2402 60.7245 48.125 60.4463 48.125 60.1562C48.125 59.8662 48.2402 59.588 48.4454 59.3829C48.6505 59.1777 48.9287 59.0625 49.2188 59.0625H51.4062C51.6963 59.0625 51.9745 59.1777 52.1796 59.3829C52.3848 59.588 52.5 59.8662 52.5 60.1562C52.5 60.4463 52.3848 60.7245 52.1796 60.9296C51.9745 61.1348 51.6963 61.25 51.4062 61.25Z" fill="#EA5B21"/>
<path d="M64.5313 50.3125H44.8438C44.6377 50.3119 44.4359 50.2531 44.2617 50.1428C44.0875 50.0325 43.9481 49.8752 43.8594 49.6891C43.7826 49.5114 43.7543 49.3166 43.7773 49.1245C43.8004 48.9323 43.874 48.7497 43.9907 48.5953L48.3657 43.1266C48.4619 42.9876 48.589 42.8728 48.737 42.7912C48.885 42.7096 49.05 42.6634 49.2188 42.6562H60.1563C60.3206 42.657 60.4826 42.6948 60.6303 42.7667C60.778 42.8387 60.9076 42.943 61.0094 43.0719L65.3844 48.5406C65.5011 48.695 65.5748 48.8776 65.5978 49.0698C65.6209 49.2619 65.5925 49.4568 65.5157 49.6344C65.4351 49.8307 65.2991 49.9994 65.1243 50.1198C64.9496 50.2402 64.7435 50.3072 64.5313 50.3125ZM47.1188 48.125H62.2563L59.6313 44.8438H49.7876L47.1188 48.125Z" fill="#EA5B21"/>
<path d="M64.5312 65.625H44.8438C44.5537 65.625 44.2755 65.5098 44.0704 65.3046C43.8652 65.0995 43.75 64.8213 43.75 64.5312V49.2188C43.75 48.9287 43.8652 48.6505 44.0704 48.4454C44.2755 48.2402 44.5537 48.125 44.8438 48.125H64.5312C64.8213 48.125 65.0995 48.2402 65.3046 48.4454C65.5098 48.6505 65.625 48.9287 65.625 49.2188V61C65.625 61.2901 65.5098 61.5683 65.3046 61.7734C65.0995 61.9785 64.8213 62.0938 64.5312 62.0938C64.2412 62.0938 63.963 61.9785 63.7579 61.7734C63.5527 61.5683 63.4375 61.2901 63.4375 61V50.3125H45.9375V63.4375H63.4375V59.0625C63.4375 58.7724 63.5527 58.4942 63.7579 58.2891C63.963 58.084 64.2412 57.9688 64.5312 57.9688C64.8213 57.9688 65.0995 58.084 65.3046 58.2891C65.5098 58.4942 65.625 58.7724 65.625 59.0625V64.5312C65.625 64.8213 65.5098 65.0995 65.3046 65.3046C65.0995 65.5098 64.8213 65.625 64.5312 65.625Z" fill="#EA5B21"/>
<path d="M5.46875 40.0312C5.17867 40.0312 4.90047 39.916 4.69535 39.7109C4.49023 39.5058 4.375 39.2276 4.375 38.9375V18.5938C4.375 18.3037 4.49023 18.0255 4.69535 17.8204C4.90047 17.6152 5.17867 17.5 5.46875 17.5H45.9375C46.2276 17.5 46.5058 17.6152 46.7109 17.8204C46.916 18.0255 47.0313 18.3037 47.0313 18.5938C47.0313 18.8838 46.916 19.162 46.7109 19.3671C46.5058 19.5723 46.2276 19.6875 45.9375 19.6875H6.5625L6.5625 38.9375C6.5625 39.2276 6.44727 39.5058 6.24215 39.7109C6.03703 39.916 5.75883 40.0312 5.46875 40.0312Z" fill="#EA5B21"/>
<path d="M32.7266 59.0625H5.46875C5.17867 59.0625 4.90047 58.9473 4.69535 58.7421C4.49023 58.537 4.375 58.2588 4.375 57.9688V38.2812C4.375 37.9912 4.49023 37.713 4.69535 37.5079C4.90047 37.3027 5.17867 37.1875 5.46875 37.1875C5.75883 37.1875 6.03703 37.3027 6.24215 37.5079C6.44727 37.713 6.5625 37.9912 6.5625 38.2812V56.875H32.7266C33.0167 56.875 33.2949 56.9902 33.5 57.1954C33.7051 57.4005 33.8204 57.6787 33.8204 57.9688C33.8204 58.2588 33.7051 58.537 33.5 58.7421C33.2949 58.9473 33.0167 59.0625 32.7266 59.0625Z" fill="#EA5B21"/>
<path d="M44.8438 59.0625H32.8125C32.5224 59.0625 32.2442 58.9473 32.0391 58.7421C31.834 58.537 31.7188 58.2588 31.7188 57.9688C31.7188 57.6787 31.834 57.4005 32.0391 57.1954C32.2442 56.9902 32.5224 56.875 32.8125 56.875H43.75V49.2188C43.7514 48.972 43.8362 48.7331 43.9906 48.5406L48.3656 43.0719C48.4675 42.943 48.5971 42.8387 48.7448 42.7667C48.8925 42.6948 49.0545 42.657 49.2188 42.6562H54.6875V19.6875H50.3125C50.0224 19.6875 49.7442 19.5723 49.5391 19.3671C49.334 19.162 49.2188 18.8838 49.2188 18.5938C49.2188 18.3037 49.334 18.0255 49.5391 17.8204C49.7442 17.6152 50.0224 17.5 50.3125 17.5H55.7812C56.0713 17.5 56.3495 17.6152 56.5546 17.8204C56.7598 18.0255 56.875 18.3037 56.875 18.5938V43.75C56.875 44.0401 56.7598 44.3183 56.5546 44.5234C56.3495 44.7285 56.0713 44.8438 55.7812 44.8438H49.7437L45.9375 49.6016V57.9688C45.9375 58.2588 45.8223 58.537 45.6171 58.7421C45.412 58.9473 45.1338 59.0625 44.8438 59.0625Z" fill="#EA5B21"/>
<path d="M56.875 9.84375V18.5938C56.875 18.8838 56.7598 19.162 56.5546 19.3671C56.3495 19.5723 56.0713 19.6875 55.7812 19.6875H50.3125C50.0224 19.6875 49.7442 19.5723 49.5391 19.3671C49.334 19.162 49.2188 18.8838 49.2188 18.5938C49.2134 18.5648 49.2134 18.5352 49.2188 18.5063C49.2083 18.441 49.2083 18.3746 49.2188 18.3094C49.231 18.2513 49.2532 18.1958 49.2844 18.1453C49.3205 18.0773 49.3606 18.0116 49.4047 17.9484L49.5141 17.8281L49.6781 17.7078C49.8628 17.5741 50.0846 17.5015 50.3125 17.5H54.6875V10.9375H6.5625V17.5H51.4062C51.6121 17.5026 51.813 17.5633 51.9859 17.675L52.15 17.7953L52.2266 17.8719L52.3359 18.0688C52.3671 18.1192 52.3893 18.1747 52.4016 18.2328C52.412 18.298 52.412 18.3645 52.4016 18.4297C52.4283 18.4488 52.4509 18.4733 52.4678 18.5015C52.4847 18.5297 52.4957 18.5611 52.5 18.5938C52.5 18.8838 52.3848 19.162 52.1796 19.3671C51.9745 19.5723 51.6963 19.6875 51.4062 19.6875H5.46875C5.17867 19.6875 4.90047 19.5723 4.69535 19.3671C4.49023 19.162 4.375 18.8838 4.375 18.5938V9.84375C4.375 9.55367 4.49023 9.27547 4.69535 9.07035C4.90047 8.86523 5.17867 8.75 5.46875 8.75H55.7812C56.0713 8.75 56.3495 8.86523 56.5546 9.07035C56.7598 9.27547 56.875 9.55367 56.875 9.84375Z" fill="#EA5B21"/>
<path d="M51.2969 8.75158C51.0458 7.51532 50.3751 6.40387 49.3984 5.60554C48.4217 4.80721 47.199 4.37109 45.9375 4.37109C44.676 4.37109 43.4533 4.80721 42.4766 5.60554C41.4999 6.40387 40.8292 7.51532 40.5781 8.75158H42.8531C43.083 8.11813 43.5024 7.57083 44.0542 7.18406C44.6061 6.79729 45.2636 6.5898 45.9375 6.5898C46.6114 6.5898 47.2689 6.79729 47.8208 7.18406C48.3726 7.57083 48.792 8.11813 49.0219 8.75158C49.1444 9.07292 49.2074 9.4139 49.2078 9.75783C49.2168 9.78607 49.2205 9.81573 49.2188 9.84533C49.2211 10.2189 49.1544 10.5897 49.0219 10.9391C48.7962 11.5773 48.3787 12.1302 47.8265 12.5218C47.2743 12.9134 46.6145 13.1247 45.9375 13.1266C45.6474 13.1266 45.3692 13.2418 45.1641 13.4469C44.959 13.652 44.8438 13.9302 44.8438 14.2203C44.8438 14.5104 44.959 14.7886 45.1641 14.9937C45.3692 15.1988 45.6474 15.3141 45.9375 15.3141C47.1982 15.3143 48.4203 14.879 49.3969 14.0818C50.3736 13.2845 51.0447 12.1743 51.2969 10.9391C51.3722 10.5794 51.4089 10.2128 51.4062 9.84533V9.75783C51.3975 9.41998 51.3609 9.08342 51.2969 8.75158Z" fill="#EA5B21"/>
<path d="M30.625 4.375C29.3643 4.37474 28.1422 4.81008 27.1656 5.60732C26.1889 6.40457 25.5178 7.51476 25.2656 8.75H27.5406C27.7705 8.11655 28.1899 7.56925 28.7417 7.18248C29.2936 6.79571 29.9511 6.58823 30.625 6.58823C31.2989 6.58823 31.9564 6.79571 32.5083 7.18248C33.0601 7.56925 33.4795 8.11655 33.7094 8.75C33.8319 9.07135 33.8949 9.41233 33.8953 9.75625C33.9043 9.78449 33.908 9.81416 33.9062 9.84375C33.9086 10.2174 33.8419 10.5882 33.7094 10.9375C33.4837 11.5758 33.0662 12.1286 32.514 12.5202C31.9618 12.9119 31.302 13.1231 30.625 13.125C30.3349 13.125 30.0567 13.2402 29.8516 13.4454C29.6465 13.6505 29.5312 13.9287 29.5312 14.2188C29.5312 14.5088 29.6465 14.787 29.8516 14.9921C30.0567 15.1973 30.3349 15.3125 30.625 15.3125C31.8857 15.3128 33.1078 14.8774 34.0844 14.0802C35.061 13.2829 35.7322 12.1727 35.9844 10.9375C36.0597 10.5779 36.0964 10.2112 36.0937 9.84375V9.75625C36.085 9.4184 36.0484 9.08185 35.9844 8.75C35.7322 7.51476 35.061 6.40457 34.0844 5.60732C33.1078 4.81008 31.8857 4.37474 30.625 4.375Z" fill="#EA5B21"/>
<path d="M15.3125 4.375C14.0518 4.37474 12.8297 4.81008 11.8531 5.60732C10.8764 6.40457 10.2053 7.51476 9.95312 8.75H12.2281C12.458 8.11655 12.8774 7.56925 13.4292 7.18248C13.9811 6.79571 14.6386 6.58823 15.3125 6.58823C15.9864 6.58823 16.6439 6.79571 17.1958 7.18248C17.7476 7.56925 18.167 8.11655 18.3969 8.75C18.5194 9.07135 18.5824 9.41233 18.5828 9.75625C18.5918 9.78449 18.5955 9.81416 18.5938 9.84375C18.5961 10.2174 18.5294 10.5882 18.3969 10.9375C18.1712 11.5758 17.7537 12.1286 17.2015 12.5202C16.6493 12.9119 15.9895 13.1231 15.3125 13.125C15.0224 13.125 14.7442 13.2402 14.5391 13.4454C14.334 13.6505 14.2188 13.9287 14.2188 14.2188C14.2188 14.5088 14.334 14.787 14.5391 14.9921C14.7442 15.1973 15.0224 15.3125 15.3125 15.3125C16.5732 15.3128 17.7953 14.8774 18.7719 14.0802C19.7486 13.2829 20.4197 12.1727 20.6719 10.9375C20.7472 10.5779 20.7839 10.2112 20.7813 9.84375V9.75625C20.7725 9.4184 20.7359 9.08185 20.6719 8.75C20.4197 7.51476 19.7486 6.40457 18.7719 5.60732C17.7953 4.81008 16.5732 4.37474 15.3125 4.375Z" fill="#EA5B21"/>
<path d="M26.25 30.625H24.0625C23.4823 30.625 22.9259 30.3945 22.5157 29.9843C22.1055 29.5741 21.875 29.0177 21.875 28.4375V26.25C21.875 25.6698 22.1055 25.1134 22.5157 24.7032C22.9259 24.293 23.4823 24.0625 24.0625 24.0625H26.25C26.8302 24.0625 27.3866 24.293 27.7968 24.7032C28.207 25.1134 28.4375 25.6698 28.4375 26.25V28.4375C28.4375 29.0177 28.207 29.5741 27.7968 29.9843C27.3866 30.3945 26.8302 30.625 26.25 30.625ZM24.0625 26.25V28.4375H26.25V26.25H24.0625Z" fill="#EA5B21"/>
<path d="M37.1875 30.625H35C34.4198 30.625 33.8634 30.3945 33.4532 29.9843C33.043 29.5741 32.8125 29.0177 32.8125 28.4375V26.25C32.8125 25.6698 33.043 25.1134 33.4532 24.7032C33.8634 24.293 34.4198 24.0625 35 24.0625H37.1875C37.7677 24.0625 38.3241 24.293 38.7343 24.7032C39.1445 25.1134 39.375 25.6698 39.375 26.25V28.4375C39.375 29.0177 39.1445 29.5741 38.7343 29.9843C38.3241 30.3945 37.7677 30.625 37.1875 30.625ZM35 26.25V28.4375H37.1875V26.25H35Z" fill="#EA5B21"/>
<path d="M48.125 30.625H45.9375C45.3573 30.625 44.8009 30.3945 44.3907 29.9843C43.9805 29.5741 43.75 29.0177 43.75 28.4375V26.25C43.75 25.6698 43.9805 25.1134 44.3907 24.7032C44.8009 24.293 45.3573 24.0625 45.9375 24.0625H48.125C48.7052 24.0625 49.2616 24.293 49.6718 24.7032C50.082 25.1134 50.3125 25.6698 50.3125 26.25V28.4375C50.3125 29.0177 50.082 29.5741 49.6718 29.9843C49.2616 30.3945 48.7052 30.625 48.125 30.625ZM45.9375 26.25V28.4375H48.125V26.25H45.9375Z" fill="#EA5B21"/>
<path d="M15.3125 41.5625H13.125C12.5448 41.5625 11.9884 41.332 11.5782 40.9218C11.168 40.5116 10.9375 39.9552 10.9375 39.375V37.1875C10.9375 36.6073 11.168 36.0509 11.5782 35.6407C11.9884 35.2305 12.5448 35 13.125 35H15.3125C15.8927 35 16.4491 35.2305 16.8593 35.6407C17.2695 36.0509 17.5 36.6073 17.5 37.1875V39.375C17.5 39.9552 17.2695 40.5116 16.8593 40.9218C16.4491 41.332 15.8927 41.5625 15.3125 41.5625ZM13.125 37.1875V39.375H15.3125V37.1875H13.125Z" fill="#EA5B21"/>
<path d="M26.25 41.5625H24.0625C23.4823 41.5625 22.9259 41.332 22.5157 40.9218C22.1055 40.5116 21.875 39.9552 21.875 39.375V37.1875C21.875 36.6073 22.1055 36.0509 22.5157 35.6407C22.9259 35.2305 23.4823 35 24.0625 35H26.25C26.8302 35 27.3866 35.2305 27.7968 35.6407C28.207 36.0509 28.4375 36.6073 28.4375 37.1875V39.375C28.4375 39.9552 28.207 40.5116 27.7968 40.9218C27.3866 41.332 26.8302 41.5625 26.25 41.5625ZM24.0625 37.1875V39.375H26.25V37.1875H24.0625Z" fill="#EA5B21"/>
<path d="M37.1875 41.5625H35C34.4198 41.5625 33.8634 41.332 33.4532 40.9218C33.043 40.5116 32.8125 39.9552 32.8125 39.375V37.1875C32.8125 36.6073 33.043 36.0509 33.4532 35.6407C33.8634 35.2305 34.4198 35 35 35H37.1875C37.7677 35 38.3241 35.2305 38.7343 35.6407C39.1445 36.0509 39.375 36.6073 39.375 37.1875V39.375C39.375 39.9552 39.1445 40.5116 38.7343 40.9218C38.3241 41.332 37.7677 41.5625 37.1875 41.5625ZM35 37.1875V39.375H37.1875V37.1875H35Z" fill="#EA5B21"/>
<path d="M48.125 41.5625H45.9375C45.3573 41.5625 44.8009 41.332 44.3907 40.9218C43.9805 40.5116 43.75 39.9552 43.75 39.375V37.1875C43.75 36.6073 43.9805 36.0509 44.3907 35.6407C44.8009 35.2305 45.3573 35 45.9375 35H48.125C48.7052 35 49.2616 35.2305 49.6718 35.6407C50.082 36.0509 50.3125 36.6073 50.3125 37.1875V39.375C50.3125 39.9552 50.082 40.5116 49.6718 40.9218C49.2616 41.332 48.7052 41.5625 48.125 41.5625ZM45.9375 37.1875V39.375H48.125V37.1875H45.9375Z" fill="#EA5B21"/>
<path d="M15.3125 52.5H13.125C12.5448 52.5 11.9884 52.2695 11.5782 51.8593C11.168 51.4491 10.9375 50.8927 10.9375 50.3125V48.125C10.9375 47.5448 11.168 46.9884 11.5782 46.5782C11.9884 46.168 12.5448 45.9375 13.125 45.9375H15.3125C15.8927 45.9375 16.4491 46.168 16.8593 46.5782C17.2695 46.9884 17.5 47.5448 17.5 48.125V50.3125C17.5 50.8927 17.2695 51.4491 16.8593 51.8593C16.4491 52.2695 15.8927 52.5 15.3125 52.5ZM13.125 48.125V50.3125H15.3125V48.125H13.125Z" fill="#EA5B21"/>
<path d="M26.25 52.5H24.0625C23.4823 52.5 22.9259 52.2695 22.5157 51.8593C22.1055 51.4491 21.875 50.8927 21.875 50.3125V48.125C21.875 47.5448 22.1055 46.9884 22.5157 46.5782C22.9259 46.168 23.4823 45.9375 24.0625 45.9375H26.25C26.8302 45.9375 27.3866 46.168 27.7968 46.5782C28.207 46.9884 28.4375 47.5448 28.4375 48.125V50.3125C28.4375 50.8927 28.207 51.4491 27.7968 51.8593C27.3866 52.2695 26.8302 52.5 26.25 52.5ZM24.0625 48.125V50.3125H26.25V48.125H24.0625Z" fill="#EA5B21"/>
<path d="M37.1875 52.5H35C34.4198 52.5 33.8634 52.2695 33.4532 51.8593C33.043 51.4491 32.8125 50.8927 32.8125 50.3125V48.125C32.8125 47.5448 33.043 46.9884 33.4532 46.5782C33.8634 46.168 34.4198 45.9375 35 45.9375H37.1875C37.7677 45.9375 38.3241 46.168 38.7343 46.5782C39.1445 46.9884 39.375 47.5448 39.375 48.125V50.3125C39.375 50.8927 39.1445 51.4491 38.7343 51.8593C38.3241 52.2695 37.7677 52.5 37.1875 52.5ZM35 48.125V50.3125H37.1875V48.125H35Z" fill="#EA5B21"/>
</svg>
 
