<svg width="70" height="70" viewBox="0 0 70 70" fill="none" xmlns="http://www.w3.org/2000/svg">
<path d="M64.5297 50.3141C64.5269 51.1601 64.1886 51.9704 63.5891 52.5672L54.6859 61.3172C52.6417 63.3218 49.8928 64.4449 47.0297 64.4453H5.55469V50.2266H21.2609C22.0282 50.2258 22.7817 50.0233 23.4459 49.6393C24.1101 49.2554 24.6617 48.7035 25.0453 48.0391C25.6198 47.0441 26.4454 46.2173 27.4397 45.6415C28.434 45.0656 29.562 44.7609 30.7109 44.7578H42.5563C43.2137 44.755 43.859 44.9358 44.4193 45.2797C44.9797 45.6237 45.433 46.1172 45.7281 46.7047C45.8966 47.0461 45.9933 47.4183 46.0125 47.7985C46.0456 48.2492 45.9853 48.7019 45.8353 49.1282C45.6853 49.5545 45.4489 49.9452 45.1408 50.2758C44.8328 50.6065 44.4597 50.8699 44.0451 51.0497C43.6305 51.2294 43.1832 51.3216 42.7312 51.3203H39.45C39.117 51.3202 38.7884 51.3961 38.4892 51.5422C38.1899 51.6883 37.928 51.9007 37.7234 52.1634C37.5187 52.4261 37.3767 52.732 37.3082 53.0579C37.2397 53.3837 37.2465 53.7209 37.3281 54.0438C37.4653 54.5185 37.7525 54.936 38.1469 55.2338C38.5413 55.5315 39.0215 55.6935 39.5156 55.6953H50.7703C51.2339 55.6934 51.678 55.5086 52.0063 55.1813L52.7719 54.4157L57.2891 49.8985L58.9406 48.2469C59.2474 47.9208 59.6177 47.6609 60.0287 47.4833C60.4397 47.3057 60.8827 47.214 61.3305 47.214C61.7782 47.214 62.2212 47.3057 62.6322 47.4833C63.0432 47.6609 63.4135 47.9208 63.7203 48.2469C64.2303 48.816 64.5177 49.55 64.5297 50.3141Z" fill="white"/>
<path d="M58.2305 47.6429C58.2277 48.4889 57.8894 49.2992 57.2898 49.896L52.7727 54.4132L52.007 55.1788C51.6788 55.5062 51.2347 55.6909 50.7711 55.6929H42.4805L44.9195 53.2538L52.7836 45.3898C53.229 44.9377 53.7991 44.6285 54.421 44.5018C55.0429 44.3751 55.6884 44.4365 56.2752 44.6783C56.862 44.9201 57.3635 45.3312 57.7157 45.8592C58.0678 46.3872 58.2547 47.0082 58.2523 47.6429H58.2305Z" fill="white"/>
<path d="M54.7734 5.38281H15.3984V40.3828H54.7734V5.38281Z" fill="white"/>
<path d="M39.4609 5.38281H30.7109V13.0391H39.4609V5.38281Z" fill="#EA5B21"/>
<path d="M30.7109 36.0078H21.9609C21.6709 36.0078 21.3927 35.8926 21.1875 35.6875C20.9824 35.4823 20.8672 35.2041 20.8672 34.9141C20.8672 34.624 20.9824 34.3458 21.1875 34.1407C21.3927 33.9355 21.6709 33.8203 21.9609 33.8203H30.7109C31.001 33.8203 31.2792 33.9355 31.4843 34.1407C31.6895 34.3458 31.8047 34.624 31.8047 34.9141C31.8047 35.2041 31.6895 35.4823 31.4843 35.6875C31.2792 35.8926 31.001 36.0078 30.7109 36.0078Z" fill="#3AA3CD"/>
<path d="M30.7109 30.5391H21.9609C21.6709 30.5391 21.3927 30.4238 21.1875 30.2187C20.9824 30.0136 20.8672 29.7354 20.8672 29.4453C20.8672 29.1552 20.9824 28.877 21.1875 28.6719C21.3927 28.4668 21.6709 28.3516 21.9609 28.3516H30.7109C31.001 28.3516 31.2792 28.4668 31.4843 28.6719C31.6895 28.877 31.8047 29.1552 31.8047 29.4453C31.8047 29.7354 31.6895 30.0136 31.4843 30.2187C31.2792 30.4238 31.001 30.5391 30.7109 30.5391Z" fill="#3AA3CD"/>
<path d="M46.9328 65.6251H5.46875C5.17867 65.6251 4.90047 65.5099 4.69535 65.3048C4.49023 65.0996 4.375 64.8214 4.375 64.5314C4.375 64.2413 4.49023 63.9631 4.69535 63.758C4.90047 63.5528 5.17867 63.4376 5.46875 63.4376H46.9328C49.5128 63.4413 51.9911 62.4319 53.8344 60.6267L62.7375 51.8767C63.1206 51.4794 63.3394 50.9519 63.35 50.4001C63.3494 49.892 63.1626 49.4017 62.825 49.022C62.6413 48.8205 62.4187 48.6585 62.1705 48.5457C61.9223 48.4328 61.6538 48.3716 61.3812 48.3657C61.0571 48.3561 60.7345 48.4132 60.4334 48.5337C60.1323 48.6541 59.8593 48.8352 59.6313 49.0657L52.6859 56.0001C52.4239 56.2642 52.1121 56.4737 51.7685 56.6164C51.4249 56.7591 51.0564 56.8322 50.6844 56.8314H39.4953C38.7519 56.8407 38.0264 56.6031 37.4326 56.1558C36.8387 55.7084 36.4102 55.0766 36.2141 54.3595C36.0989 53.8796 36.0934 53.3799 36.1982 52.8976C36.3029 52.4153 36.515 51.9629 36.8188 51.5739C37.1226 51.185 37.5102 50.8696 37.9528 50.6512C38.3954 50.4328 38.8815 50.3171 39.375 50.3126H42.6562C43.2355 50.3102 43.7901 50.0781 44.1984 49.6673C44.4261 49.4488 44.6022 49.1822 44.7138 48.8871C44.8254 48.5919 44.8698 48.2755 44.8438 47.961C44.8406 47.7242 44.7806 47.4917 44.6688 47.2829C44.4653 46.8774 44.1528 46.5367 43.7664 46.2991C43.38 46.0614 42.9349 45.9362 42.4813 45.9376H30.625C29.668 45.9384 28.7279 46.1904 27.8988 46.6683C27.0696 47.1462 26.3804 47.8334 25.9 48.6611C25.4223 49.4928 24.7343 50.1843 23.905 50.6662C23.0756 51.148 22.1342 51.4033 21.175 51.4064H5.46875C5.17867 51.4064 4.90047 51.2911 4.69535 51.086C4.49023 50.8809 4.375 50.6027 4.375 50.3126C4.375 50.0225 4.49023 49.7443 4.69535 49.5392C4.90047 49.3341 5.17867 49.2189 5.46875 49.2189H21.175C21.7609 49.2248 22.3377 49.0737 22.8455 48.7814C23.3532 48.489 23.7735 48.066 24.0625 47.5564C24.7314 46.4065 25.6884 45.4507 26.8392 44.7833C27.9899 44.1158 29.2947 43.7597 30.625 43.7501H42.4703C43.3348 43.7441 44.1833 43.9821 44.9186 44.4367C45.6538 44.8914 46.2458 45.5443 46.6266 46.3204C46.8629 46.7868 47.0007 47.2969 47.0312 47.8189C47.0733 48.4186 46.9914 49.0206 46.7904 49.5873C46.5895 50.154 46.2739 50.6731 45.8634 51.1124C45.4528 51.5517 44.9562 51.9016 44.4044 52.1404C43.8526 52.3791 43.2575 52.5016 42.6562 52.5001H39.375C39.2341 52.4978 39.0943 52.5248 38.9643 52.5794C38.8344 52.634 38.7173 52.715 38.6203 52.8173C38.474 52.9541 38.3681 53.1284 38.3141 53.3213C38.2601 53.5142 38.2601 53.7182 38.3141 53.911C38.3964 54.1568 38.5558 54.3693 38.7686 54.5171C38.9815 54.6649 39.2363 54.7401 39.4953 54.7314H50.6844C50.7694 54.7322 50.8538 54.7162 50.9326 54.6842C51.0115 54.6523 51.0832 54.6052 51.1437 54.5454L58.0781 47.6001C58.5192 47.1608 59.0458 46.8167 59.6252 46.589C60.2047 46.3614 60.8247 46.2551 61.4469 46.2767C62.016 46.2876 62.5767 46.4156 63.0942 46.6527C63.6117 46.8898 64.0748 47.2309 64.4547 47.6548C65.1544 48.4329 65.5437 49.4411 65.5484 50.4876C65.538 51.6224 65.087 52.7088 64.2906 53.5173L55.3766 62.2673C53.1091 64.4473 50.0781 65.6526 46.9328 65.6251Z" fill="#EA5B21"/>
<path d="M49.5894 56.8735H42.3925C42.1766 56.8724 41.9658 56.8074 41.7868 56.6867C41.6077 56.5661 41.4684 56.3951 41.3863 56.1953C41.3025 55.9962 41.2797 55.7766 41.3205 55.5645C41.3614 55.3523 41.4642 55.157 41.616 55.0032L51.9191 44.7C52.317 44.3028 52.7895 43.9881 53.3095 43.7741C53.8294 43.5601 54.3865 43.4511 54.9488 43.4532C56.0812 43.4589 57.1657 43.9113 57.9664 44.7121C58.7672 45.5129 59.2196 46.5973 59.2254 47.7297C59.2149 48.8645 58.7639 49.9509 57.9675 50.7594L53.4504 55.2766C52.4255 56.2989 51.037 56.8732 49.5894 56.8735ZM45.0285 54.686H49.5894C50.4594 54.6852 51.2934 54.339 51.9082 53.7235L56.4254 49.2172C56.8192 48.8261 57.0432 48.2957 57.0488 47.7407C57.0492 47.4663 56.9953 47.1946 56.8902 46.9411C56.7851 46.6877 56.6308 46.4576 56.4363 46.2641C56.2439 46.0681 56.014 45.9128 55.7603 45.8076C55.5066 45.7024 55.2344 45.6493 54.9597 45.6516C54.685 45.6487 54.4125 45.7015 54.1588 45.8067C53.905 45.912 53.6752 46.0676 53.4832 46.2641L45.0285 54.686Z" fill="#EA5B21"/>
<path d="M54.6875 41.5625H15.3125C15.0224 41.5625 14.7442 41.4473 14.5391 41.2421C14.334 41.037 14.2188 40.7588 14.2188 40.4688V5.46875C14.2188 5.17867 14.334 4.90047 14.5391 4.69535C14.7442 4.49023 15.0224 4.375 15.3125 4.375H54.6875C54.9776 4.375 55.2558 4.49023 55.4609 4.69535C55.666 4.90047 55.7812 5.17867 55.7812 5.46875V40.4688C55.7812 40.7588 55.666 41.037 55.4609 41.2421C55.2558 41.4473 54.9776 41.5625 54.6875 41.5625ZM16.4062 39.375H53.5938V6.5625H16.4062V39.375Z" fill="#EA5B21"/>
<path d="M39.375 14.2188H30.625C30.3349 14.2188 30.0567 14.1035 29.8516 13.8984C29.6465 13.6933 29.5312 13.4151 29.5312 13.125V5.46875C29.5312 5.17867 29.6465 4.90047 29.8516 4.69535C30.0567 4.49023 30.3349 4.375 30.625 4.375H39.375C39.6651 4.375 39.9433 4.49023 40.1484 4.69535C40.3535 4.90047 40.4688 5.17867 40.4688 5.46875V13.125C40.4688 13.4151 40.3535 13.6933 40.1484 13.8984C39.9433 14.1035 39.6651 14.2188 39.375 14.2188ZM31.7188 12.0312H38.2812V6.5625H31.7188V12.0312Z" fill="#EA5B21"/>
<path d="M30.625 36.0938H21.875C21.5849 36.0938 21.3067 35.9785 21.1016 35.7734C20.8965 35.5683 20.7812 35.2901 20.7812 35C20.7812 34.7099 20.8965 34.4317 21.1016 34.2266C21.3067 34.0215 21.5849 33.9062 21.875 33.9062H30.625C30.9151 33.9062 31.1933 34.0215 31.3984 34.2266C31.6035 34.4317 31.7188 34.7099 31.7188 35C31.7188 35.2901 31.6035 35.5683 31.3984 35.7734C31.1933 35.9785 30.9151 36.0938 30.625 36.0938Z" fill="#EA5B21"/>
<path d="M30.625 30.625H21.875C21.5849 30.625 21.3067 30.5098 21.1016 30.3046C20.8965 30.0995 20.7812 29.8213 20.7812 29.5312C20.7812 29.2412 20.8965 28.963 21.1016 28.7579C21.3067 28.5527 21.5849 28.4375 21.875 28.4375H30.625C30.9151 28.4375 31.1933 28.5527 31.3984 28.7579C31.6035 28.963 31.7188 29.2412 31.7188 29.5312C31.7188 29.8213 31.6035 30.0995 31.3984 30.3046C31.1933 30.5098 30.9151 30.625 30.625 30.625Z" fill="#EA5B21"/>
</svg>
 
