<svg width="70" height="70" viewBox="0 0 70 70" fill="none" xmlns="http://www.w3.org/2000/svg">
<path d="M64.5312 64.5312H5.46875V21.875L35 5.46875L64.5312 21.875V64.5312Z" fill="white"/>
<path d="M56.875 27.3438H13.125V64.5312H56.875V27.3438Z" fill="white"/>
<path d="M56.875 27.3438H13.125V32.8125H56.875V27.3438Z" fill="white"/>
<path d="M56.875 32.8125H13.125V38.2812H56.875V32.8125Z" fill="white"/>
<path d="M44.8438 17.5H25.1562V21.875H44.8438V17.5Z" fill="#EA5B21"/>
<path d="M64.5312 65.6247H5.46875C5.17867 65.6247 4.90047 65.5094 4.69535 65.3043C4.49023 65.0992 4.375 64.821 4.375 64.5309V25.7031C4.375 25.413 4.49023 25.1348 4.69535 24.9297C4.90047 24.7246 5.17867 24.6094 5.46875 24.6094C5.75883 24.6094 6.03703 24.7246 6.24215 24.9297C6.44727 25.1348 6.5625 25.413 6.5625 25.7031V63.4372H63.4375V54.6872C63.4375 54.3971 63.5527 54.1189 63.7579 53.9138C63.963 53.7086 64.2412 53.5934 64.5312 53.5934C64.8213 53.5934 65.0995 53.7086 65.3046 53.9138C65.5098 54.1189 65.625 54.3971 65.625 54.6872V64.5309C65.625 64.821 65.5098 65.0992 65.3046 65.3043C65.0995 65.5094 64.8213 65.6247 64.5312 65.6247Z" fill="#EA5B21"/>
<path d="M64.5312 56.8754C64.2412 56.8754 63.963 56.7601 63.7579 56.555C63.5527 56.3499 63.4375 56.0717 63.4375 55.7816V22.5208L35 6.71607L6.5625 22.5208V26.2504C6.5625 26.5405 6.44727 26.8187 6.24215 27.0238C6.03703 27.229 5.75883 27.3442 5.46875 27.3442C5.17867 27.3442 4.90047 27.229 4.69535 27.0238C4.49023 26.8187 4.375 26.5405 4.375 26.2504V21.8754C4.37533 21.6816 4.42716 21.4914 4.52517 21.3242C4.62319 21.157 4.76387 21.0188 4.93281 20.9239L34.4641 4.51763C34.6303 4.42163 34.8189 4.37109 35.0109 4.37109C35.2029 4.37109 35.3915 4.42163 35.5578 4.51763L65.0891 20.9239C65.2539 21.0216 65.3902 21.161 65.4843 21.328C65.5784 21.495 65.6269 21.6838 65.625 21.8754V55.7816C65.625 56.0717 65.5098 56.3499 65.3046 56.555C65.0995 56.7601 64.8213 56.8754 64.5312 56.8754Z" fill="#EA5B21"/>
<path d="M56.875 65.625H13.125C12.8349 65.625 12.5567 65.5098 12.3516 65.3046C12.1465 65.0995 12.0312 64.8213 12.0312 64.5312V57.9688C12.0312 57.6787 12.1465 57.4005 12.3516 57.1954C12.5567 56.9902 12.8349 56.875 13.125 56.875C13.4151 56.875 13.6933 56.9902 13.8984 57.1954C14.1035 57.4005 14.2188 57.6787 14.2188 57.9688V63.4375H55.7812V28.4375H14.2188V53.5938C14.2188 53.8838 14.1035 54.162 13.8984 54.3671C13.6933 54.5723 13.4151 54.6875 13.125 54.6875C12.8349 54.6875 12.5567 54.5723 12.3516 54.3671C12.1465 54.162 12.0312 53.8838 12.0312 53.5938V27.3438C12.0312 27.0537 12.1465 26.7755 12.3516 26.5704C12.5567 26.3652 12.8349 26.25 13.125 26.25H56.875C57.1651 26.25 57.4433 26.3652 57.6484 26.5704C57.8535 26.7755 57.9688 27.0537 57.9688 27.3438V64.5312C57.9688 64.8213 57.8535 65.0995 57.6484 65.3046C57.4433 65.5098 57.1651 65.625 56.875 65.625Z" fill="#333333"/>
<path d="M56.875 33.9062H50.3125C50.0224 33.9062 49.7442 33.791 49.5391 33.5859C49.334 33.3808 49.2188 33.1026 49.2188 32.8125C49.2188 32.5224 49.334 32.2442 49.5391 32.0391C49.7442 31.834 50.0224 31.7188 50.3125 31.7188H55.7812V28.4375H14.2188V31.7188H45.9375C46.2276 31.7188 46.5058 31.834 46.7109 32.0391C46.916 32.2442 47.0312 32.5224 47.0312 32.8125C47.0312 33.1026 46.916 33.3808 46.7109 33.5859C46.5058 33.791 46.2276 33.9062 45.9375 33.9062H13.125C12.8349 33.9062 12.5567 33.791 12.3516 33.5859C12.1465 33.3808 12.0312 33.1026 12.0312 32.8125V27.3438C12.0312 27.0537 12.1465 26.7755 12.3516 26.5704C12.5567 26.3652 12.8349 26.25 13.125 26.25H56.875C57.1651 26.25 57.4433 26.3652 57.6484 26.5704C57.8535 26.7755 57.9688 27.0537 57.9688 27.3438V32.8125C57.9688 33.1026 57.8535 33.3808 57.6484 33.5859C57.4433 33.791 57.1651 33.9062 56.875 33.9062Z" fill="#333333"/>
<path d="M56.875 39.375H13.125C12.8349 39.375 12.5567 39.2598 12.3516 39.0546C12.1465 38.8495 12.0312 38.5713 12.0312 38.2812V32.8125C12.0312 32.5224 12.1465 32.2442 12.3516 32.0391C12.5567 31.834 12.8349 31.7188 13.125 31.7188L53.0469 31.7193C53.337 31.7193 53.6152 31.8346 53.8203 32.0397C54.0254 32.2448 54.1406 32.523 54.1406 32.8131C54.1406 33.1032 54.0254 33.3814 53.8203 33.5865C53.6152 33.7916 53.337 33.9068 53.0469 33.9068L14.2188 33.9062V37.1875H55.7812V33.9062H50.3125C50.0224 33.9062 49.7442 33.791 49.5391 33.5859C49.334 33.3808 49.2188 33.1026 49.2188 32.8125C49.2188 32.5224 49.334 32.2442 49.5391 32.0391C49.7442 31.834 50.0224 31.7188 50.3125 31.7188H56.875C57.1651 31.7188 57.4433 31.834 57.6484 32.0391C57.8535 32.2442 57.9688 32.5224 57.9688 32.8125V38.2812C57.9688 38.5713 57.8535 38.8495 57.6484 39.0546C57.4433 39.2598 57.1651 39.375 56.875 39.375Z" fill="#EA5B21"/>
<path d="M44.8438 22.9688H25.1562C24.8662 22.9688 24.588 22.8535 24.3829 22.6484C24.1777 22.4433 24.0625 22.1651 24.0625 21.875V17.5C24.0625 17.2099 24.1777 16.9317 24.3829 16.7266C24.588 16.5215 24.8662 16.4062 25.1562 16.4062H35C35.2901 16.4062 35.5683 16.5215 35.7734 16.7266C35.9785 16.9317 36.0938 17.2099 36.0938 17.5C36.0938 17.7901 35.9785 18.0683 35.7734 18.2734C35.5683 18.4785 35.2901 18.5938 35 18.5938H26.25V20.7812H43.75V18.5938H32.8125C32.5224 18.5938 32.2442 18.4785 32.0391 18.2734C31.834 18.0683 31.7188 17.7901 31.7188 17.5C31.7188 17.2099 31.834 16.9317 32.0391 16.7266C32.2442 16.5215 32.5224 16.4062 32.8125 16.4062H44.8438C45.1338 16.4062 45.412 16.5215 45.6171 16.7266C45.8223 16.9317 45.9375 17.2099 45.9375 17.5V21.875C45.9375 22.1651 45.8223 22.4433 45.6171 22.6484C45.412 22.8535 45.1338 22.9688 44.8438 22.9688Z" fill="#EA5B21"/>
<path d="M56.875 65.625H13.125C12.8349 65.625 12.5567 65.5098 12.3516 65.3046C12.1465 65.0995 12.0312 64.8213 12.0312 64.5312V57.9688C12.0312 57.6787 12.1465 57.4005 12.3516 57.1954C12.5567 56.9902 12.8349 56.875 13.125 56.875C13.4151 56.875 13.6933 56.9902 13.8984 57.1954C14.1035 57.4005 14.2188 57.6787 14.2188 57.9688V63.4375H55.7812V28.4375H14.2188V59.0625C14.2188 59.3526 14.1035 59.6308 13.8984 59.8359C13.6933 60.041 13.4151 60.1562 13.125 60.1562C12.8349 60.1562 12.5567 60.041 12.3516 59.8359C12.1465 59.6308 12.0312 59.3526 12.0312 59.0625V27.3438C12.0312 27.0537 12.1465 26.7755 12.3516 26.5704C12.5567 26.3652 12.8349 26.25 13.125 26.25H56.875C57.1651 26.25 57.4433 26.3652 57.6484 26.5704C57.8535 26.7755 57.9688 27.0537 57.9688 27.3438V64.5312C57.9688 64.8213 57.8535 65.0995 57.6484 65.3046C57.4433 65.5098 57.1651 65.625 56.875 65.625Z" fill="#EA5B21"/>
<path d="M42 55H39V58H42V55Z" fill="#EA5B21"/>
<path d="M45.3333 65H40C39.8232 65 39.6536 64.9276 39.5286 64.7986C39.4036 64.6697 39.3333 64.4948 39.3333 64.3125C39.3333 64.1302 39.4036 63.9553 39.5286 63.8264C39.6536 63.6974 39.8232 63.625 40 63.625H44.6667V55.375H35.3333V63.625H37.3333C37.5101 63.625 37.6797 63.6974 37.8047 63.8264C37.9298 63.9553 38 64.1302 38 64.3125C38 64.4948 37.9298 64.6697 37.8047 64.7986C37.6797 64.9276 37.5101 65 37.3333 65H34.6667C34.4899 65 34.3203 64.9276 34.1953 64.7986C34.0702 64.6697 34 64.4948 34 64.3125V54.6875C34 54.5052 34.0702 54.3303 34.1953 54.2014C34.3203 54.0724 34.4899 54 34.6667 54H45.3333C45.5101 54 45.6797 54.0724 45.8047 54.2014C45.9298 54.3303 46 54.5052 46 54.6875V64.3125C46 64.4948 45.9298 64.6697 45.8047 64.7986C45.6797 64.9276 45.5101 65 45.3333 65Z" fill="#EA5B21"/>
<path d="M41.3333 59H38.6667C38.4899 59 38.3203 58.9247 38.1953 58.7908C38.0702 58.6568 38 58.4752 38 58.2857V54.7143C38 54.5248 38.0702 54.3432 38.1953 54.2092C38.3203 54.0753 38.4899 54 38.6667 54H41.3333C41.5101 54 41.6797 54.0753 41.8047 54.2092C41.9298 54.3432 42 54.5248 42 54.7143V58.2857C42 58.4752 41.9298 58.6568 41.8047 58.7908C41.6797 58.9247 41.5101 59 41.3333 59ZM39.3333 57.5714H40.6667V55.4286H39.3333V57.5714Z" fill="#EA5B21"/>
<path d="M52 45H50V49H52V45Z" fill="#EA5B21"/>
<path d="M52 55H50V58H52V55Z" fill="#EA5B21"/>
<path d="M56.3333 65H45.6667C45.4899 65 45.3203 64.9276 45.1953 64.7986C45.0702 64.6697 45 64.4948 45 64.3125V54.6875C45 54.5052 45.0702 54.3303 45.1953 54.2014C45.3203 54.0724 45.4899 54 45.6667 54H56.3333C56.5101 54 56.6797 54.0724 56.8047 54.2014C56.9298 54.3303 57 54.5052 57 54.6875V64.3125C57 64.4948 56.9298 64.6697 56.8047 64.7986C56.6797 64.9276 56.5101 65 56.3333 65ZM46.3333 63.625H55.6667V55.375H46.3333V63.625Z" fill="#EA5B21"/>
<path d="M56.3334 55H45.6668C45.49 55 45.3204 54.9342 45.1954 54.8169C45.0703 54.6997 45.0001 54.5408 45.0001 54.375V51.25C45.0001 51.0842 45.0703 50.9253 45.1954 50.8081C45.3204 50.6908 45.49 50.625 45.6668 50.625C45.8436 50.625 46.0131 50.6908 46.1382 50.8081C46.2632 50.9253 46.3334 51.0842 46.3334 51.25V53.75H55.6667V46.25H46.3334L46.3333 51.1206C46.3333 51.2863 46.2631 51.4453 46.1381 51.5625C46.013 51.6797 45.8435 51.7456 45.6667 51.7456C45.4899 51.7456 45.3203 51.6797 45.1953 51.5625C45.0702 51.4453 45 51.2863 45 51.1206L45.0001 45.625C45.0001 45.4592 45.0703 45.3003 45.1954 45.1831C45.3204 45.0658 45.49 45 45.6668 45H56.3334C56.5102 45 56.6798 45.0658 56.8048 45.1831C56.9298 45.3003 57.0001 45.4592 57.0001 45.625V54.375C57.0001 54.5408 56.9298 54.6997 56.8048 54.8169C56.6798 54.9342 56.5102 55 56.3334 55Z" fill="#EA5B21"/>
<path d="M52.3333 50H49.6667C49.4899 50 49.3203 49.9247 49.1953 49.7908C49.0702 49.6568 49 49.4752 49 49.2857V45.7143C49 45.5248 49.0702 45.3432 49.1953 45.2092C49.3203 45.0753 49.4899 45 49.6667 45H52.3333C52.5101 45 52.6797 45.0753 52.8047 45.2092C52.9298 45.3432 53 45.5248 53 45.7143V49.2857C53 49.4752 52.9298 49.6568 52.8047 49.7908C52.6797 49.9247 52.5101 50 52.3333 50ZM50.3333 48.5714H51.6667V46.4286H50.3333V48.5714Z" fill="#EA5B21"/>
<path d="M52.3333 59H49.6667C49.4899 59 49.3203 58.9247 49.1953 58.7908C49.0702 58.6568 49 58.4752 49 58.2857V54.7143C49 54.5248 49.0702 54.3432 49.1953 54.2092C49.3203 54.0753 49.4899 54 49.6667 54H52.3333C52.5101 54 52.6797 54.0753 52.8047 54.2092C52.9298 54.3432 53 54.5248 53 54.7143V58.2857C53 58.4752 52.9298 58.6568 52.8047 58.7908C52.6797 58.9247 52.5101 59 52.3333 59ZM50.3333 57.5714H51.6667V55.4286H50.3333V57.5714Z" fill="#EA5B21"/>
</svg>
 
