<svg width="377" height="149" viewBox="0 0 377 149" fill="none" xmlns="http://www.w3.org/2000/svg">
<path opacity="0.3" d="M311.971 32.6562H303.207V126.092H311.971V32.6562Z" fill="#9C9C9C"/>
<path d="M305.613 24.0273H148.566V127.217H305.613V24.0273Z" fill="#E9E9E9"/>
<path d="M306.037 121.43H148.566V127.225H306.037V121.43Z" fill="#EA5B21"/>
<path opacity="0.3" d="M155.068 24.0273H147.152V127.217H155.068V24.0273Z" fill="#787878"/>
<path d="M289.492 64.8828H226.023V127.221H289.492V64.8828Z" fill="#B8B8B8"/>
<path d="M287.092 67.8516H228.57V127.362H287.092V67.8516Z" fill="#103940"/>
<path opacity="0.3" fill-rule="evenodd" clip-rule="evenodd" d="M228.57 67.8516H287.092V126.373L228.57 73.3644V67.8516Z" fill="black"/>
<path d="M148.28 0H1.97656V127.22H148.28V0Z" fill="#E9E9E9"/>
<path d="M148.28 29.4023H1.97656V33.219H148.28V29.4023Z" fill="#EA5B21"/>
<path d="M75.7677 60.5039H7.35156V80.2937H75.7677V60.5039Z" fill="#DBDBDB"/>
<path d="M72.6582 62.9141H10.3203V78.0391H72.6582V62.9141Z" fill="#EA5B21"/>
<path d="M25.5874 60.5039H23.043V80.2937H25.5874V60.5039Z" fill="#DBDBDB"/>
<path d="M59.7944 60.5039H57.25V80.2937H59.7944V60.5039Z" fill="#DBDBDB"/>
<path d="M148.28 33.3516H1.97656V36.1787H148.28V33.3516Z" fill="#DBDBDB"/>
<path d="M306.743 42.6875H148.566V46.2214H306.743V42.6875Z" fill="#EA5B21"/>
<path d="M305.754 46.2188H148.566V48.7632H305.754V46.2188Z" fill="#B8B8B8"/>
<path d="M220.795 64.8672H156.902V83.3848H220.795V64.8672Z" fill="#B8B8B8"/>
<path d="M217.965 66.9961H159.727V81.1317H217.965V66.9961Z" fill="#EA5B21"/>
<path d="M174.149 64.8672H171.746V83.3848H174.149V64.8672Z" fill="#B8B8B8"/>
<path d="M206.098 64.8672H203.695V83.3848H206.098V64.8672Z" fill="#B8B8B8"/>
<path opacity="0.3" fill-rule="evenodd" clip-rule="evenodd" d="M148.566 24.0273H172.031L275.362 127.217H148.566V24.0273Z" fill="#9C9C9C"/>
<path d="M150.261 122.551H0V127.216H150.261V122.551Z" fill="#EA5B21"/>
<path d="M140.792 60.5078H80.4336V127.228H140.792V60.5078Z" fill="#DBDBDB"/>
<path d="M138.101 63.6094H83.1133V127.219H138.101V63.6094Z" fill="#EA5B21"/>
<path d="M138.101 83.543H83.1133V85.6633H138.101V83.543Z" fill="#18525C"/>
<path d="M111.812 84.3984H109.691V127.371H111.812V84.3984Z" fill="#18525C"/>
<path d="M107.571 98.6758H106.723V115.073H107.571V98.6758Z" fill="#DBDBDB"/>
<path d="M114.637 98.6758H113.789V115.073H114.637V98.6758Z" fill="#DBDBDB"/>
<path opacity="0.3" fill-rule="evenodd" clip-rule="evenodd" d="M83.1133 63.6094H138.101V124.816L83.1133 69.5463V63.6094Z" fill="black"/>
<path opacity="0.5" fill-rule="evenodd" clip-rule="evenodd" d="M270.699 101.352L317.912 147.999L232.957 147.858L235.36 136.69L270.699 101.352Z" fill="url(#paint0_linear_6:195520)"/>
<path d="M284.691 84.9492H230.27V132.162H284.691V84.9492Z" fill="#F7FBFA"/>
<path fill-rule="evenodd" clip-rule="evenodd" d="M282.565 134.566H279.314C278.325 134.566 277.477 135.415 277.477 136.404V146.016C277.477 147.006 278.325 147.854 279.314 147.854H282.565C283.555 147.854 284.403 147.006 284.403 146.016V136.404C284.544 135.415 283.696 134.566 282.565 134.566Z" fill="#141414"/>
<path fill-rule="evenodd" clip-rule="evenodd" d="M235.636 134.566H232.384C231.395 134.566 230.547 135.415 230.547 136.404V146.016C230.547 147.006 231.395 147.854 232.384 147.854H235.636C236.625 147.854 237.473 147.006 237.473 146.016V136.404C237.473 135.415 236.625 134.566 235.636 134.566Z" fill="#141414"/>
<path fill-rule="evenodd" clip-rule="evenodd" d="M284.267 105.012H286.246C287.236 105.012 288.084 105.86 288.084 106.849V114.341C288.084 115.331 287.236 116.179 286.246 116.179H284.267C283.278 116.179 282.43 115.331 282.43 114.341V106.849C282.43 105.86 283.278 105.012 284.267 105.012Z" fill="black"/>
<path d="M284.121 107.141H279.598V108.13H284.121V107.141Z" fill="black"/>
<path d="M284.121 113.215H279.598V114.204H284.121V113.215Z" fill="black"/>
<path fill-rule="evenodd" clip-rule="evenodd" d="M230.696 105.012H228.717C227.727 105.012 226.879 105.86 226.879 106.849V114.341C226.879 115.331 227.727 116.179 228.717 116.179H230.696C231.685 116.179 232.533 115.331 232.533 114.341V106.849C232.674 105.86 231.826 105.012 230.696 105.012Z" fill="black"/>
<path d="M235.5 107.141H230.977V108.13H235.5V107.141Z" fill="black"/>
<path d="M235.5 113.215H230.977V114.204H235.5V113.215Z" fill="black"/>
<path fill-rule="evenodd" clip-rule="evenodd" d="M240.874 93.1484H274.234C278.051 93.1484 281.161 96.3996 281.302 100.216L282.998 138.1C283.14 141.916 279.889 145.167 275.931 145.167H239.037C235.22 145.167 231.828 142.057 231.969 138.1L233.665 100.216C233.948 96.3996 236.917 93.1484 240.874 93.1484Z" fill="#EA5B21"/>
<path fill-rule="evenodd" clip-rule="evenodd" d="M239.176 103.609H275.788C277.484 103.609 278.756 105.023 278.897 106.719L279.604 116.897C279.745 118.593 278.191 120.007 276.494 120.007H238.611C236.915 120.007 235.36 118.593 235.501 116.897L236.208 106.719C236.067 105.023 237.339 103.609 239.176 103.609Z" fill="black"/>
<path fill-rule="evenodd" clip-rule="evenodd" d="M239.178 104.32H275.79C277.062 104.32 278.051 105.451 278.193 106.723L278.899 116.901C279.041 118.173 277.769 119.304 276.496 119.304H238.613C237.341 119.304 236.069 118.173 236.21 116.901L236.917 106.723C236.775 105.451 237.765 104.32 239.178 104.32Z" fill="#424242"/>
<path d="M279.181 123.547H235.785V125.385H279.181V123.547Z" fill="black"/>
<path d="M279.181 126.797H235.785V128.634H279.181V126.797Z" fill="black"/>
<path d="M279.181 130.047H235.785V131.885H279.181V130.047Z" fill="black"/>
<path fill-rule="evenodd" clip-rule="evenodd" d="M237.9 104.039H277.055C278.045 104.039 278.893 104.887 278.893 105.877C278.893 106.866 278.045 107.714 277.055 107.714H237.9C236.91 107.714 236.062 106.866 236.062 105.877C235.921 104.887 236.769 104.039 237.9 104.039Z" fill="black"/>
<path fill-rule="evenodd" clip-rule="evenodd" d="M251.051 142.618H264.197C265.751 142.618 266.882 141.487 267.024 140.073L267.306 133.43H248.082L248.365 140.073C248.223 141.346 249.496 142.618 251.051 142.618Z" fill="#424242"/>
<path fill-rule="evenodd" clip-rule="evenodd" d="M247.938 134.566H267.021V135.98H248.079L247.938 134.566Z" fill="black"/>
<path fill-rule="evenodd" clip-rule="evenodd" d="M248.082 137.109H267.024L266.882 138.664H248.223L248.082 137.109Z" fill="black"/>
<path fill-rule="evenodd" clip-rule="evenodd" d="M248.219 139.797H266.878V139.938C266.878 140.504 266.736 140.928 266.454 141.352H248.784C248.36 140.928 248.219 140.504 248.219 139.797Z" fill="black"/>
<path fill-rule="evenodd" clip-rule="evenodd" d="M243.978 101.063C243.695 101.346 241.009 100.074 239.454 99.2256C238.606 98.8016 238.182 98.0948 238.041 97.5293C237.758 95.6917 239.596 94.5609 241.151 95.5504C242.988 96.6812 244.543 100.074 243.978 101.063Z" fill="#989898"/>
<path fill-rule="evenodd" clip-rule="evenodd" d="M240.161 95.6914C241.151 95.6914 241.857 96.3982 241.857 97.3877C241.857 98.2358 241.151 99.0839 240.161 99.0839C239.313 99.0839 238.465 98.3772 238.465 97.3877C238.465 96.5395 239.172 95.6914 240.161 95.6914Z" fill="white"/>
<path fill-rule="evenodd" clip-rule="evenodd" d="M242.564 98.3672C243.129 98.3672 243.553 98.7913 243.553 99.3567C243.553 99.9221 243.129 100.346 242.564 100.346C241.998 100.346 241.574 99.9221 241.574 99.3567C241.574 98.7913 241.998 98.3672 242.564 98.3672Z" fill="white"/>
<path fill-rule="evenodd" clip-rule="evenodd" d="M271.119 101.063C271.401 101.346 274.087 100.074 275.642 99.2256C276.49 98.8016 276.914 98.0948 277.056 97.5293C277.338 95.6917 275.501 94.5609 273.946 95.5504C271.967 96.6812 270.412 100.074 271.119 101.063Z" fill="#989898"/>
<path fill-rule="evenodd" clip-rule="evenodd" d="M274.935 95.6914C274.086 95.6914 273.238 96.3982 273.238 97.3877C273.238 98.2358 273.945 99.0839 274.935 99.0839C275.924 99.0839 276.631 98.3772 276.631 97.3877C276.489 96.5395 275.783 95.6914 274.935 95.6914Z" fill="white"/>
<path fill-rule="evenodd" clip-rule="evenodd" d="M272.532 98.3672C271.967 98.3672 271.543 98.7913 271.543 99.3567C271.543 99.9221 271.967 100.346 272.532 100.346C273.098 100.346 273.522 99.9221 273.522 99.3567C273.522 98.7913 273.098 98.3672 272.532 98.3672Z" fill="white"/>
<path fill-rule="evenodd" clip-rule="evenodd" d="M237.057 135.284L244.549 136.273C245.256 136.415 245.821 136.839 245.821 137.545V138.535C245.821 139.242 245.256 139.807 244.549 139.807H237.057C236.351 139.807 235.785 139.242 235.785 138.535V136.556C235.785 135.849 236.351 135.142 237.057 135.284Z" fill="#989898"/>
<path fill-rule="evenodd" clip-rule="evenodd" d="M238.049 135.707C239.038 135.707 239.886 136.555 239.886 137.545C239.886 138.534 239.038 139.382 238.049 139.382C237.059 139.382 236.211 138.534 236.211 137.545C236.211 136.555 237.059 135.707 238.049 135.707Z" fill="white"/>
<path fill-rule="evenodd" clip-rule="evenodd" d="M243.979 136.695C244.686 136.695 245.251 137.261 245.251 137.968C245.251 138.674 244.686 139.24 243.979 139.24C243.272 139.24 242.707 138.674 242.707 137.968C242.707 137.261 243.272 136.695 243.979 136.695Z" fill="white"/>
<path fill-rule="evenodd" clip-rule="evenodd" d="M277.905 135.284L270.413 136.273C269.706 136.415 269.141 136.839 269.141 137.545V138.535C269.141 139.242 269.706 139.807 270.413 139.807H277.905C278.611 139.807 279.177 139.242 279.177 138.535V136.556C279.036 135.849 278.611 135.142 277.905 135.284Z" fill="#989898"/>
<path fill-rule="evenodd" clip-rule="evenodd" d="M276.779 135.707C275.79 135.707 274.941 136.555 274.941 137.545C274.941 138.534 275.79 139.382 276.779 139.382C277.769 139.382 278.617 138.534 278.617 137.545C278.758 136.555 277.91 135.707 276.779 135.707Z" fill="white"/>
<path fill-rule="evenodd" clip-rule="evenodd" d="M270.839 136.695C270.132 136.695 269.566 137.261 269.566 137.968C269.566 138.674 270.132 139.24 270.839 139.24C271.545 139.24 272.111 138.674 272.111 137.968C272.252 137.261 271.687 136.695 270.839 136.695Z" fill="white"/>
<path fill-rule="evenodd" clip-rule="evenodd" d="M329.495 129.345L326.244 119.733C325.82 118.602 324.548 117.896 323.417 118.32C322.286 118.744 321.579 120.016 322.003 121.147L325.255 130.759C325.679 131.89 326.951 132.597 328.082 132.173C329.212 131.748 329.919 130.476 329.495 129.345Z" fill="#454A4D"/>
<path fill-rule="evenodd" clip-rule="evenodd" d="M354.096 142.067V105.738H350.703V142.067H351.834V118.743H352.965V142.067H354.096Z" fill="#2D3133"/>
<path d="M356.355 131.895H349.711V142.072H356.355V131.895Z" fill="#454A4D"/>
<path fill-rule="evenodd" clip-rule="evenodd" d="M336.142 128.922H325.823C324.268 128.922 322.996 130.194 322.996 131.749C322.996 133.304 324.268 134.576 325.823 134.576H336.142C337.697 134.576 338.969 133.304 338.969 131.749C338.969 130.194 337.697 128.922 336.142 128.922Z" fill="#2D3133"/>
<path fill-rule="evenodd" clip-rule="evenodd" d="M348.582 128.066L350.561 134.851H341.797C344.483 130.894 344.624 130.752 348.582 128.066Z" fill="#2D3133"/>
<path fill-rule="evenodd" clip-rule="evenodd" d="M347.308 130.05L342.22 124.396C341.937 123.972 341.371 123.972 340.947 124.396C340.665 124.679 340.523 125.244 340.947 125.668L346.036 131.323C346.319 131.747 346.884 131.747 347.308 131.323C347.591 131.04 347.591 130.474 347.308 130.05Z" fill="#2D3133"/>
<path fill-rule="evenodd" clip-rule="evenodd" d="M337.553 125.25L342.218 120.868C342.783 120.302 343.631 120.444 344.197 121.009C344.762 121.575 344.621 122.423 344.055 122.988L339.391 127.37C338.825 127.936 337.977 127.794 337.412 127.229C336.988 126.663 336.988 125.674 337.553 125.25Z" fill="#454A4D"/>
<path fill-rule="evenodd" clip-rule="evenodd" d="M340.241 106.02H323.278C322.006 106.02 320.875 107.15 320.875 108.423V139.662C320.875 140.934 322.006 142.065 323.278 142.065H350.277C351.549 142.065 353.104 140.934 352.68 139.662L342.644 108.423C342.22 107.15 341.513 106.02 340.241 106.02ZM339.675 107.574C340.806 107.574 341.513 108.564 341.796 109.695L350.842 138.249C351.266 139.379 349.853 140.369 348.722 140.369H324.409C323.278 140.369 322.289 139.379 322.289 138.249V109.695C322.289 108.564 323.278 107.574 324.409 107.574H339.675Z" fill="#454A4D"/>
<path fill-rule="evenodd" clip-rule="evenodd" d="M320.875 132.027V139.378C320.875 140.791 322.006 142.064 323.278 142.064H350.277C351.549 142.064 353.104 140.791 352.68 139.378L350.418 132.734H322.571C321.723 132.734 321.299 132.593 320.875 132.027Z" fill="#EA5B21"/>
<path fill-rule="evenodd" clip-rule="evenodd" d="M326.246 126.516H317.624C316.493 126.516 315.645 127.364 315.645 128.495V136.411C315.645 137.541 316.493 138.39 317.624 138.39H326.246C327.377 138.39 328.225 137.541 328.225 136.411V128.495C328.084 127.364 327.236 126.516 326.246 126.516Z" fill="#333333"/>
<path fill-rule="evenodd" clip-rule="evenodd" d="M320.875 137.125V139.528C320.875 140.942 322.006 142.214 323.278 142.214H350.277C351.549 142.214 353.104 140.942 352.68 139.528L351.832 137.125H320.875Z" fill="#333333"/>
<path fill-rule="evenodd" clip-rule="evenodd" d="M321.861 126.516H317.479C316.348 126.516 315.5 127.364 315.5 128.495V136.411C315.5 137.541 316.348 138.39 317.479 138.39H321.861V126.516Z" fill="#EA5B21"/>
<path d="M372.615 102.348H354.098V118.038H372.615V102.348Z" fill="#D8BD76"/>
<path d="M372.615 102.348H354.098V105.882H372.615V102.348Z" fill="#C4AA68"/>
<path d="M373.042 102.066H353.535V104.894H373.042V102.066Z" fill="#E7D691"/>
<path d="M371.627 106.172H365.266V108.999H371.627V106.172Z" fill="#DFE9F2"/>
<path d="M366.398 106.598H365.691V108.718H366.398V106.598Z" fill="#818286"/>
<path d="M367.527 106.598H366.82V108.718H367.527V106.598Z" fill="#818286"/>
<path d="M368.801 106.598H368.094V108.718H368.801V106.598Z" fill="#818286"/>
<path d="M369.933 106.598H369.227V108.718H369.933V106.598Z" fill="#818286"/>
<path d="M371.062 106.598H370.355V108.718H371.062V106.598Z" fill="#818286"/>
<path fill-rule="evenodd" clip-rule="evenodd" d="M373.32 118.035H350.703V119.731H376.713L373.32 118.035Z" fill="#454A4D"/>
<path opacity="0.5" fill-rule="evenodd" clip-rule="evenodd" d="M345.186 138.12L347.447 135.717L350.84 134.586L354.798 135.01L357.342 136.565L368.651 147.732H352.96L344.055 138.827L345.186 138.12Z" fill="url(#paint1_linear_6:195520)"/>
<path fill-rule="evenodd" clip-rule="evenodd" d="M351.546 136.137C354.797 136.137 357.341 138.681 357.341 141.932C357.341 145.183 354.797 147.728 351.546 147.728C348.294 147.728 345.75 145.183 345.75 141.932C345.75 138.681 348.294 136.137 351.546 136.137Z" fill="#2D3133"/>
<path fill-rule="evenodd" clip-rule="evenodd" d="M351.547 139.668C352.819 139.668 353.809 140.657 353.809 141.93C353.809 143.202 352.819 144.191 351.547 144.191C350.275 144.191 349.285 143.202 349.285 141.93C349.285 140.657 350.275 139.668 351.547 139.668Z" fill="#545C61"/>
<path fill-rule="evenodd" clip-rule="evenodd" d="M351.55 133.875C354.942 133.875 357.769 135.854 358.9 138.822H357.487C356.356 136.702 354.094 135.147 351.55 135.147C349.005 135.147 346.744 136.561 345.613 138.822H344.199C345.33 135.854 348.157 133.875 351.55 133.875Z" fill="#2D3133"/>
<path opacity="0.5" fill-rule="evenodd" clip-rule="evenodd" d="M314.794 138.401L317.056 135.998L320.448 134.867L324.406 135.291L327.092 136.846L338.259 148.013H322.569L313.805 139.108L314.794 138.401Z" fill="url(#paint2_linear_6:195520)"/>
<path fill-rule="evenodd" clip-rule="evenodd" d="M321.159 136.418C324.41 136.418 326.954 138.962 326.954 142.214C326.954 145.465 324.41 148.009 321.159 148.009C317.908 148.009 315.363 145.465 315.363 142.214C315.363 138.962 317.908 136.418 321.159 136.418Z" fill="#2D3133"/>
<path fill-rule="evenodd" clip-rule="evenodd" d="M321.156 139.949C322.428 139.949 323.418 140.939 323.418 142.211C323.418 143.483 322.428 144.473 321.156 144.473C319.884 144.473 318.895 143.483 318.895 142.211C318.895 140.939 319.884 139.949 321.156 139.949Z" fill="#545C61"/>
<path fill-rule="evenodd" clip-rule="evenodd" d="M321.155 134.156C324.548 134.156 327.375 136.135 328.506 139.104H327.092C325.961 136.983 323.7 135.428 321.155 135.428C318.611 135.428 316.349 136.842 315.218 139.104H313.805C314.936 136.277 317.904 134.156 321.155 134.156Z" fill="#2D3133"/>
<defs>
<linearGradient id="paint0_linear_6:195520" x1="268.396" y1="117.457" x2="280.594" y2="170.295" gradientUnits="userSpaceOnUse">
<stop stop-color="#555859"/>
<stop offset="0.1159" stop-color="#5F6263"/>
<stop offset="0.3134" stop-color="#7A7C7D"/>
<stop offset="0.5683" stop-color="#A6A7A8"/>
<stop offset="0.8678" stop-color="#E2E3E3"/>
<stop offset="1" stop-color="white"/>
</linearGradient>
<linearGradient id="paint1_linear_6:195520" x1="355.544" y1="139.629" x2="358.637" y2="153.024" gradientUnits="userSpaceOnUse">
<stop stop-color="#555859"/>
<stop offset="0.1159" stop-color="#5F6263"/>
<stop offset="0.3134" stop-color="#7A7C7D"/>
<stop offset="0.5683" stop-color="#A6A7A8"/>
<stop offset="0.8678" stop-color="#E2E3E3"/>
<stop offset="1" stop-color="white"/>
</linearGradient>
<linearGradient id="paint2_linear_6:195520" x1="325.158" y1="137.984" x2="327.51" y2="152.835" gradientUnits="userSpaceOnUse">
<stop stop-color="#555859"/>
<stop offset="0.1159" stop-color="#5F6263"/>
<stop offset="0.3134" stop-color="#7A7C7D"/>
<stop offset="0.5683" stop-color="#A6A7A8"/>
<stop offset="0.8678" stop-color="#E2E3E3"/>
<stop offset="1" stop-color="white"/>
</linearGradient>
</defs>
</svg>
