<svg width="70" height="70" viewBox="0 0 70 70" fill="none" xmlns="http://www.w3.org/2000/svg">
<path d="M57.4547 20.1875L57.455 20.1875C58.1749 20.187 58.8807 20.387 59.4933 20.7652C60.1059 21.1433 60.601 21.6846 60.9232 22.3284L67.3125 35.1179V52H59.5472C59.4256 50.0193 58.5849 48.144 57.1736 46.7327C55.644 45.2031 53.5694 44.3438 51.4062 44.3438C49.2431 44.3438 47.1685 45.2031 45.6389 46.7327C44.2276 48.144 43.3869 50.0193 43.2653 52H39.875V20.1875L57.4547 20.1875Z" stroke="#EA5B21"/>
<path d="M51.75 61.5C50.0194 61.5 48.3277 60.9868 46.8888 60.0254C45.4498 59.0639 44.3283 57.6973 43.6661 56.0985C43.0038 54.4996 42.8305 52.7403 43.1681 51.043C43.5058 49.3456 44.3391 47.7865 45.5628 46.5628C46.7865 45.3391 48.3456 44.5058 50.043 44.1681C51.7403 43.8305 53.4996 44.0038 55.0985 44.6661C56.6973 45.3283 58.0639 46.4498 59.0254 47.8888C59.9868 49.3277 60.5 51.0194 60.5 52.75C60.5 55.0706 59.5781 57.2962 57.9372 58.9372C56.2962 60.5781 54.0706 61.5 51.75 61.5ZM51.75 46.1875C50.4521 46.1875 49.1833 46.5724 48.1041 47.2935C47.0249 48.0146 46.1837 49.0395 45.687 50.2386C45.1903 51.4378 45.0604 52.7573 45.3136 54.0303C45.5668 55.3033 46.1918 56.4726 47.1096 57.3904C48.0274 58.3082 49.1967 58.9332 50.4697 59.1864C51.7427 59.4396 53.0622 59.3097 54.2614 58.813C55.4605 58.3163 56.4854 57.4751 57.2065 56.3959C57.9276 55.3167 58.3125 54.0479 58.3125 52.75C58.3125 51.0095 57.6211 49.3403 56.3904 48.1096C55.1597 46.8789 53.4905 46.1875 51.75 46.1875Z" fill="#EA5B21"/>
<path d="M51.75 57.125C50.8847 57.125 50.0388 56.8684 49.3194 56.3877C48.5999 55.907 48.0392 55.2237 47.708 54.4242C47.3769 53.6248 47.2903 52.7452 47.4591 51.8965C47.6279 51.0478 48.0446 50.2683 48.6564 49.6564C49.2683 49.0446 50.0478 48.6279 50.8965 48.4591C51.7451 48.2903 52.6248 48.3769 53.4242 48.708C54.2237 49.0392 54.907 49.5999 55.3877 50.3194C55.8684 51.0388 56.125 51.8847 56.125 52.75C56.125 53.9103 55.6641 55.0231 54.8436 55.8436C54.0231 56.6641 52.9103 57.125 51.75 57.125ZM51.75 50.5625C51.3174 50.5625 50.8944 50.6908 50.5347 50.9312C50.175 51.1715 49.8946 51.5132 49.729 51.9129C49.5634 52.3126 49.5201 52.7524 49.6045 53.1768C49.6889 53.6011 49.8973 53.9909 50.2032 54.2968C50.5091 54.6027 50.8989 54.8111 51.3232 54.8955C51.7476 54.9799 52.1874 54.9366 52.5871 54.771C52.9868 54.6054 53.3285 54.325 53.5688 53.9653C53.8092 53.6056 53.9375 53.1827 53.9375 52.75C53.9375 52.1698 53.707 51.6134 53.2968 51.2032C52.8866 50.793 52.3302 50.5625 51.75 50.5625Z" fill="#EA5B21"/>
<path d="M15.3125 60.1562C19.5409 60.1562 22.9688 56.7284 22.9688 52.5C22.9688 48.2716 19.5409 44.8438 15.3125 44.8438C11.0841 44.8438 7.65625 48.2716 7.65625 52.5C7.65625 56.7284 11.0841 60.1562 15.3125 60.1562Z" fill="white"/>
<path d="M18.0938 52.5C18.0938 54.036 16.8485 55.2812 15.3125 55.2812C13.7765 55.2812 12.5312 54.036 12.5312 52.5C12.5312 50.964 13.7765 49.7188 15.3125 49.7188C16.8485 49.7188 18.0938 50.964 18.0938 52.5Z" fill="white" stroke="black"/>
<path d="M67.8125 35H45.9375V24.0625H62.3438L67.8125 35Z" fill="white"/>
<path d="M66.7188 40.4688H67.8125V47.0312H66.7188C65.8485 47.0312 65.0139 46.6855 64.3986 46.0702C63.7832 45.4548 63.4375 44.6202 63.4375 43.75C63.4375 42.8798 63.7832 42.0452 64.3986 41.4298C65.0139 40.8145 65.8485 40.4688 66.7188 40.4688Z" fill="#EA5B21"/>
<path d="M38.875 40.9688V52H23.4534C23.3319 50.0193 22.4912 48.144 21.0798 46.7327C19.5502 45.2031 17.4757 44.3438 15.3125 44.3438C13.1493 44.3438 11.0748 45.2031 9.54516 46.7327C8.13384 48.144 7.29315 50.0193 7.17158 52H2.6875V40.9688H38.875Z" stroke="#EA5B21"/>
<path d="M39.375 25.1562H21.875V40.4688H39.375V25.1562Z" fill="white"/>
<path d="M39.375 9.84375H21.875V25.1562H39.375V9.84375Z" fill="white"/>
<path d="M21.875 25.1562H4.375V40.4688H21.875V25.1562Z" fill="white"/>
<path d="M32.8125 9.84375H28.4375V15.3125H32.8125V9.84375Z" fill="#EA5B21"/>
<path d="M32.8125 25.1562H28.4375V30.625H32.8125V25.1562Z" fill="#EA5B21"/>
<path d="M15.3125 25.1562H10.9375V30.625H15.3125V25.1562Z" fill="#EA5B21"/>
<path d="M59.4719 53.5938H67.8125C68.1026 53.5938 68.3808 53.4785 68.5859 53.2734C68.791 53.0683 68.9062 52.7901 68.9062 52.5V35C68.9052 34.8288 68.864 34.6602 68.7859 34.5078L62.3438 21.6125C61.8891 20.7053 61.1911 19.9424 60.3276 19.4093C59.4642 18.8762 58.4694 18.5938 57.4547 18.5938H39.375C39.0849 18.5938 38.8067 18.709 38.6016 18.9141C38.3965 19.1192 38.2812 19.3974 38.2812 19.6875V52.5C38.2812 52.7901 38.3965 53.0683 38.6016 53.2734C38.8067 53.4785 39.0849 53.5938 39.375 53.5938H43.75C44.0401 53.5938 44.3183 53.4785 44.5234 53.2734C44.7285 53.0683 44.8438 52.7901 44.8438 52.5C44.8523 51.3692 45.1528 50.2598 45.7163 49.2794C46.2798 48.299 47.087 47.4808 48.0598 46.9042C49.0325 46.3276 50.1378 46.0121 51.2683 45.9884C52.3989 45.9647 53.5164 46.2335 54.5125 46.7687C54.7678 46.9138 55.0702 46.9515 55.3533 46.8735C55.6363 46.7956 55.8768 46.6084 56.0219 46.3531C56.1669 46.0979 56.2046 45.7954 56.1267 45.5124C56.0487 45.2293 55.8615 44.9888 55.6063 44.8438C54.3565 44.1588 52.9583 43.7896 51.5334 43.768C50.1084 43.7465 48.6997 44.0733 47.4298 44.7201C46.1599 45.3669 45.0672 46.3141 44.2467 47.4794C43.4262 48.6446 42.9028 49.9926 42.7219 51.4062H40.4688V20.7812H57.4547C58.0655 20.78 58.6645 20.9494 59.1843 21.2701C59.7041 21.5909 60.1241 22.0504 60.3969 22.5969L66.7188 35.2625V51.4062H60L58.3781 52.5C58.3781 52.7901 58.4934 53.0683 58.6985 53.2734C58.9036 53.4785 59.1818 53.5938 59.4719 53.5938Z" fill="#EA5B21"/>
<path d="M15.3125 61.25C13.5819 61.25 11.8902 60.7368 10.4513 59.7754C9.01233 58.8139 7.89082 57.4473 7.22856 55.8485C6.56629 54.2496 6.39301 52.4903 6.73063 50.793C7.06825 49.0956 7.90161 47.5365 9.12532 46.3128C10.349 45.0891 11.9081 44.2558 13.6055 43.9181C15.3028 43.5805 17.0621 43.7538 18.661 44.4161C20.2598 45.0783 21.6264 46.1998 22.5879 47.6388C23.5493 49.0777 24.0625 50.7694 24.0625 52.5C24.0625 54.8206 23.1406 57.0462 21.4997 58.6872C19.8587 60.3281 17.6331 61.25 15.3125 61.25ZM15.3125 45.9375C14.0146 45.9375 12.7458 46.3224 11.6666 47.0435C10.5874 47.7646 9.74624 48.7895 9.24954 49.9886C8.75284 51.1878 8.62289 52.5073 8.8761 53.7803C9.12932 55.0533 9.75433 56.2226 10.6721 57.1404C11.5899 58.0582 12.7592 58.6832 14.0322 58.9364C15.3052 59.1896 16.6247 59.0597 17.8239 58.563C19.023 58.0663 20.0479 57.2251 20.769 56.1459C21.4901 55.0667 21.875 53.7979 21.875 52.5C21.875 50.7595 21.1836 49.0903 19.9529 47.8596C18.7222 46.6289 17.053 45.9375 15.3125 45.9375Z" fill="#EA5B21"/>
<path d="M15.3125 56.875C14.4472 56.875 13.6013 56.6184 12.8819 56.1377C12.1624 55.657 11.6017 54.9737 11.2705 54.1742C10.9394 53.3748 10.8528 52.4952 11.0216 51.6465C11.1904 50.7978 11.6071 50.0183 12.2189 49.4064C12.8308 48.7946 13.6103 48.3779 14.459 48.2091C15.3076 48.0403 16.1873 48.1269 16.9867 48.458C17.7862 48.7892 18.4695 49.3499 18.9502 50.0694C19.4309 50.7888 19.6875 51.6347 19.6875 52.5C19.6875 53.6603 19.2266 54.7731 18.4061 55.5936C17.5856 56.4141 16.4728 56.875 15.3125 56.875ZM15.3125 50.3125C14.8799 50.3125 14.4569 50.4408 14.0972 50.6812C13.7375 50.9215 13.4571 51.2632 13.2915 51.6629C13.1259 52.0626 13.0826 52.5024 13.167 52.9268C13.2514 53.3511 13.4598 53.7409 13.7657 54.0468C14.0716 54.3527 14.4614 54.5611 14.8857 54.6455C15.3101 54.7299 15.7499 54.6866 16.1496 54.521C16.5493 54.3554 16.891 54.075 17.1313 53.7153C17.3717 53.3556 17.5 52.9327 17.5 52.5C17.5 51.9198 17.2695 51.3634 16.8593 50.9532C16.4491 50.543 15.8927 50.3125 15.3125 50.3125Z" fill="#EA5B21"/>
<path d="M67.8125 36.0938H45.9375C45.6474 36.0938 45.3692 35.9785 45.1641 35.7734C44.959 35.5683 44.8438 35.2901 44.8438 35V24.0625C44.8438 23.7724 44.959 23.4942 45.1641 23.2891C45.3692 23.084 45.6474 22.9688 45.9375 22.9688H55.5C55.7901 22.9688 56.0683 23.084 56.2734 23.2891C56.4785 23.4942 56.5938 23.7724 56.5938 24.0625C56.5938 24.3526 56.4785 24.6308 56.2734 24.8359C56.0683 25.041 55.7901 25.1562 55.5 25.1562H47.0312V33.9062H66.0406L61.6656 25.1562H53.5938C53.3037 25.1562 53.0255 25.041 52.8204 24.8359C52.6152 24.6308 52.5 24.3526 52.5 24.0625C52.5 23.7724 52.6152 23.4942 52.8204 23.2891C53.0255 23.084 53.3037 22.9688 53.5938 22.9688H62.3438C62.5457 22.9694 62.7436 23.0259 62.9154 23.1321C63.0872 23.2383 63.2263 23.3899 63.3172 23.5703L68.7859 34.5078C68.8698 34.6743 68.9098 34.8595 68.902 35.0458C68.8942 35.2321 68.8389 35.4133 68.7414 35.5722C68.6438 35.7311 68.5073 35.8624 68.3447 35.9537C68.1821 36.045 67.9989 36.0932 67.8125 36.0938Z" fill="#EA5B21"/>
<path d="M67.8125 48.125H66.7188C65.5584 48.125 64.4456 47.6641 63.6252 46.8436C62.8047 46.0231 62.3438 44.9103 62.3438 43.75C62.3438 42.5897 62.8047 41.4769 63.6252 40.6564C64.4456 39.8359 65.5584 39.375 66.7188 39.375H67.8125C68.1026 39.375 68.3808 39.4902 68.5859 39.6954C68.791 39.9005 68.9062 40.1787 68.9062 40.4688V47.0312C68.9062 47.3213 68.791 47.5995 68.5859 47.8046C68.3808 48.0098 68.1026 48.125 67.8125 48.125ZM66.7188 41.5625C66.1386 41.5625 65.5822 41.793 65.172 42.2032C64.7617 42.6134 64.5312 43.1698 64.5312 43.75C64.5312 44.3302 64.7617 44.8866 65.172 45.2968C65.5822 45.707 66.1386 45.9375 66.7188 45.9375V41.5625Z" fill="#EA5B21"/>
<path d="M39.375 53.5938H35C34.7099 53.5938 34.4317 53.4785 34.2266 53.2734C34.0215 53.0683 33.9062 52.7901 33.9062 52.5C33.9062 52.2099 34.0215 51.9317 34.2266 51.7266C34.4317 51.5215 34.7099 51.4062 35 51.4062H38.2812V41.5625H13.125C12.8349 41.5625 12.5567 41.4473 12.3516 41.2421C12.1465 41.037 12.0312 40.7588 12.0312 40.4688C12.0312 40.1787 12.1465 39.9005 12.3516 39.6954C12.5567 39.4902 12.8349 39.375 13.125 39.375H39.375C39.6651 39.375 39.9433 39.4902 40.1484 39.6954C40.3535 39.9005 40.4688 40.1787 40.4688 40.4688V52.5C40.4688 52.7901 40.3535 53.0683 40.1484 53.2734C39.9433 53.4785 39.6651 53.5938 39.375 53.5938Z" fill="#EA5B21"/>
<path d="M25.1562 53.5938H22.9688C22.6787 53.5938 22.4005 53.4785 22.1954 53.2734C21.9902 53.0683 21.875 52.7901 21.875 52.5C21.875 50.7595 21.1836 49.0903 19.9529 47.8596C18.7222 46.6289 17.053 45.9375 15.3125 45.9375C13.572 45.9375 11.9028 46.6289 10.6721 47.8596C9.4414 49.0903 8.75 50.7595 8.75 52.5C8.75 52.7901 8.63477 53.0683 8.42965 53.2734C8.22453 53.4785 7.94633 53.5938 7.65625 53.5938H2.1875C1.89742 53.5938 1.61922 53.4785 1.4141 53.2734C1.20898 53.0683 1.09375 52.7901 1.09375 52.5V40.4688C1.09375 40.1787 1.20898 39.9005 1.4141 39.6954C1.61922 39.4902 1.89742 39.375 2.1875 39.375H8.75C9.04008 39.375 9.31828 39.4902 9.5234 39.6954C9.72852 39.9005 9.84375 40.1787 9.84375 40.4688C9.84375 40.7588 9.72852 41.037 9.5234 41.2421C9.31828 41.4473 9.04008 41.5625 8.75 41.5625H3.28125V51.4062H6.62812C6.88917 49.2869 7.91622 47.3361 9.51581 45.9214C11.1154 44.5068 13.1771 43.7259 15.3125 43.7259C17.4479 43.7259 19.5096 44.5068 21.1092 45.9214C22.7088 47.3361 23.7358 49.2869 23.9969 51.4062H25.1562C25.4463 51.4062 25.7245 51.5215 25.9296 51.7266C26.1348 51.9317 26.25 52.2099 26.25 52.5C26.25 52.7901 26.1348 53.0683 25.9296 53.2734C25.7245 53.4785 25.4463 53.5938 25.1562 53.5938Z" fill="#EA5B21"/>
<path d="M34.9062 53.5938H25.0938C24.8037 53.5938 24.5255 53.4785 24.3204 53.2734C24.1152 53.0683 24 52.7901 24 52.5C24 52.2099 24.1152 51.9317 24.3204 51.7266C24.5255 51.5215 24.8037 51.4062 25.0938 51.4062H34.9062C35.1963 51.4062 35.4745 51.5215 35.6796 51.7266C35.8848 51.9317 36 52.2099 36 52.5C36 52.7901 35.8848 53.0683 35.6796 53.2734C35.4745 53.4785 35.1963 53.5938 34.9062 53.5938Z" fill="#EA5B21"/>
<path d="M39.375 41.5625H21.875C21.5849 41.5625 21.3067 41.4473 21.1016 41.2421C20.8965 41.037 20.7812 40.7588 20.7812 40.4688V25.1562C20.7812 24.8662 20.8965 24.588 21.1016 24.3829C21.3067 24.1777 21.5849 24.0625 21.875 24.0625H39.375C39.6651 24.0625 39.9433 24.1777 40.1484 24.3829C40.3535 24.588 40.4688 24.8662 40.4688 25.1562V40.4688C40.4688 40.7588 40.3535 41.037 40.1484 41.2421C39.9433 41.4473 39.6651 41.5625 39.375 41.5625ZM22.9688 39.375H38.2812V26.25H22.9688V39.375Z" fill="#EA5B21"/>
<path d="M39.3751 26.25H21.8751C21.585 26.25 21.3068 26.1348 21.1017 25.9296C20.8966 25.7245 20.7813 25.4463 20.7813 25.1562V19.6875C20.7813 19.3974 20.8966 19.1192 21.1017 18.9141C21.3068 18.709 21.585 18.5938 21.8751 18.5938C22.1652 18.5938 22.4434 18.709 22.6485 18.9141C22.8536 19.1192 22.9688 19.3974 22.9688 19.6875V24.0625H38.2813V10.9375H22.9688L22.9687 19.461C22.9687 19.7511 22.8534 20.0293 22.6483 20.2344C22.4432 20.4395 22.165 20.5547 21.8749 20.5547C21.5848 20.5547 21.3066 20.4395 21.1015 20.2344C20.8964 20.0293 20.7812 19.7511 20.7812 19.461L20.7813 9.84375C20.7813 9.55367 20.8966 9.27547 21.1017 9.07035C21.3068 8.86523 21.585 8.75 21.8751 8.75H39.3751C39.6652 8.75 39.9434 8.86523 40.1485 9.07035C40.3536 9.27547 40.4688 9.55367 40.4688 9.84375V25.1562C40.4688 25.4463 40.3536 25.7245 40.1485 25.9296C39.9434 26.1348 39.6652 26.25 39.3751 26.25Z" fill="#EA5B21"/>
<path d="M21.875 41.5625H13.125C12.8349 41.5625 12.5567 41.4473 12.3516 41.2421C12.1465 41.037 12.0312 40.7588 12.0312 40.4688C12.0312 40.1787 12.1465 39.9005 12.3516 39.6954C12.5567 39.4902 12.8349 39.375 13.125 39.375H20.7812V26.25H5.46875V39.375H8.75C9.04008 39.375 9.31828 39.4902 9.5234 39.6954C9.72852 39.9005 9.84375 40.1787 9.84375 40.4688C9.84375 40.7588 9.72852 41.037 9.5234 41.2421C9.31828 41.4473 9.04008 41.5625 8.75 41.5625H4.375C4.08492 41.5625 3.80672 41.4473 3.6016 41.2421C3.39648 41.037 3.28125 40.7588 3.28125 40.4688V25.1562C3.28125 24.8662 3.39648 24.588 3.6016 24.3829C3.80672 24.1777 4.08492 24.0625 4.375 24.0625H21.875C22.1651 24.0625 22.4433 24.1777 22.6484 24.3829C22.8535 24.588 22.9688 24.8662 22.9688 25.1562V40.4688C22.9688 40.7588 22.8535 41.037 22.6484 41.2421C22.4433 41.4473 22.1651 41.5625 21.875 41.5625Z" fill="#EA5B21"/>
<path d="M32.8125 16.4062H28.4375C28.1474 16.4062 27.8692 16.291 27.6641 16.0859C27.459 15.8808 27.3438 15.6026 27.3438 15.3125V9.84375C27.3438 9.55367 27.459 9.27547 27.6641 9.07035C27.8692 8.86523 28.1474 8.75 28.4375 8.75H32.8125C33.1026 8.75 33.3808 8.86523 33.5859 9.07035C33.791 9.27547 33.9062 9.55367 33.9062 9.84375V15.3125C33.9062 15.6026 33.791 15.8808 33.5859 16.0859C33.3808 16.291 33.1026 16.4062 32.8125 16.4062ZM29.5312 14.2188H31.7188V10.9375H29.5312V14.2188Z" fill="#EA5B21"/>
<path d="M32.8125 31.7188H28.4375C28.1474 31.7188 27.8692 31.6035 27.6641 31.3984C27.459 31.1933 27.3438 30.9151 27.3438 30.625V25.1562C27.3438 24.8662 27.459 24.588 27.6641 24.3829C27.8692 24.1777 28.1474 24.0625 28.4375 24.0625H32.8125C33.1026 24.0625 33.3808 24.1777 33.5859 24.3829C33.791 24.588 33.9062 24.8662 33.9062 25.1562V30.625C33.9062 30.9151 33.791 31.1933 33.5859 31.3984C33.3808 31.6035 33.1026 31.7188 32.8125 31.7188ZM29.5312 29.5312H31.7188V26.25H29.5312V29.5312Z" fill="#EA5B21"/>
<path d="M15.3125 31.7188H10.9375C10.6474 31.7188 10.3692 31.6035 10.1641 31.3984C9.95898 31.1933 9.84375 30.9151 9.84375 30.625V25.1562C9.84375 24.8662 9.95898 24.588 10.1641 24.3829C10.3692 24.1777 10.6474 24.0625 10.9375 24.0625H15.3125C15.6026 24.0625 15.8808 24.1777 16.0859 24.3829C16.291 24.588 16.4062 24.8662 16.4062 25.1562V30.625C16.4062 30.9151 16.291 31.1933 16.0859 31.3984C15.8808 31.6035 15.6026 31.7188 15.3125 31.7188ZM12.0312 29.5312H14.2188V26.25H12.0312V29.5312Z" fill="#EA5B21"/>
<path d="M39.375 41.5625H21.875C21.5849 41.5625 21.3067 41.4473 21.1016 41.2421C20.8965 41.037 20.7812 40.7588 20.7812 40.4688V25.1562C20.7812 24.8662 20.8965 24.588 21.1016 24.3829C21.3067 24.1777 21.5849 24.0625 21.875 24.0625H39.375C39.6651 24.0625 39.9433 24.1777 40.1484 24.3829C40.3535 24.588 40.4688 24.8662 40.4688 25.1562V40.4688C40.4688 40.7588 40.3535 41.037 40.1484 41.2421C39.9433 41.4473 39.6651 41.5625 39.375 41.5625ZM22.9688 39.375H38.2812V26.25H22.9688V39.375Z" fill="#EA5B21"/>
<path d="M39.3751 26.25H21.8751C21.585 26.25 21.3068 26.1348 21.1017 25.9296C20.8966 25.7245 20.7813 25.4463 20.7813 25.1562V19.6875C20.7813 19.3974 20.8966 19.1192 21.1017 18.9141C21.3068 18.709 21.585 18.5938 21.8751 18.5938C22.1652 18.5938 22.4434 18.709 22.6485 18.9141C22.8536 19.1192 22.9688 19.3974 22.9688 19.6875V24.0625H38.2813V10.9375H22.9688L22.9687 19.461C22.9687 19.7511 22.8534 20.0293 22.6483 20.2344C22.4432 20.4395 22.165 20.5547 21.8749 20.5547C21.5848 20.5547 21.3066 20.4395 21.1015 20.2344C20.8964 20.0293 20.7812 19.7511 20.7812 19.461L20.7813 9.84375C20.7813 9.55367 20.8966 9.27547 21.1017 9.07035C21.3068 8.86523 21.585 8.75 21.8751 8.75H39.3751C39.6652 8.75 39.9434 8.86523 40.1485 9.07035C40.3536 9.27547 40.4688 9.55367 40.4688 9.84375V25.1562C40.4688 25.4463 40.3536 25.7245 40.1485 25.9296C39.9434 26.1348 39.6652 26.25 39.3751 26.25Z" fill="#EA5B21"/>
<path d="M21.875 41.5625H13.125C12.8349 41.5625 12.5567 41.4473 12.3516 41.2421C12.1465 41.037 12.0312 40.7588 12.0312 40.4688C12.0312 40.1787 12.1465 39.9005 12.3516 39.6954C12.5567 39.4902 12.8349 39.375 13.125 39.375H20.7812V26.25H5.46875V39.375H14.5C14.7901 39.375 15.0683 39.4902 15.2734 39.6954C15.4785 39.9005 15.5938 40.1787 15.5938 40.4688C15.5938 40.7588 15.4785 41.037 15.2734 41.2421C15.0683 41.4473 14.7901 41.5625 14.5 41.5625H4.375C4.08492 41.5625 3.80672 41.4473 3.6016 41.2421C3.39648 41.037 3.28125 40.7588 3.28125 40.4688V25.1562C3.28125 24.8662 3.39648 24.588 3.6016 24.3829C3.80672 24.1777 4.08492 24.0625 4.375 24.0625H21.875C22.1651 24.0625 22.4433 24.1777 22.6484 24.3829C22.8535 24.588 22.9688 24.8662 22.9688 25.1562V40.4688C22.9688 40.7588 22.8535 41.037 22.6484 41.2421C22.4433 41.4473 22.1651 41.5625 21.875 41.5625Z" fill="#EA5B21"/>
<path d="M32.8125 16.4062H28.4375C28.1474 16.4062 27.8692 16.291 27.6641 16.0859C27.459 15.8808 27.3438 15.6026 27.3438 15.3125V9.84375C27.3438 9.55367 27.459 9.27547 27.6641 9.07035C27.8692 8.86523 28.1474 8.75 28.4375 8.75H32.8125C33.1026 8.75 33.3808 8.86523 33.5859 9.07035C33.791 9.27547 33.9062 9.55367 33.9062 9.84375V15.3125C33.9062 15.6026 33.791 15.8808 33.5859 16.0859C33.3808 16.291 33.1026 16.4062 32.8125 16.4062ZM29.5312 14.2188H31.7188V10.9375H29.5312V14.2188Z" fill="#EA5B21"/>
<path d="M32.8125 31.7188H28.4375C28.1474 31.7188 27.8692 31.6035 27.6641 31.3984C27.459 31.1933 27.3438 30.9151 27.3438 30.625V25.1562C27.3438 24.8662 27.459 24.588 27.6641 24.3829C27.8692 24.1777 28.1474 24.0625 28.4375 24.0625H32.8125C33.1026 24.0625 33.3808 24.1777 33.5859 24.3829C33.791 24.588 33.9062 24.8662 33.9062 25.1562V30.625C33.9062 30.9151 33.791 31.1933 33.5859 31.3984C33.3808 31.6035 33.1026 31.7188 32.8125 31.7188ZM29.5312 29.5312H31.7188V26.25H29.5312V29.5312Z" fill="#EA5B21"/>
<path d="M15.3125 31.7188H10.9375C10.6474 31.7188 10.3692 31.6035 10.1641 31.3984C9.95898 31.1933 9.84375 30.9151 9.84375 30.625V25.1562C9.84375 24.8662 9.95898 24.588 10.1641 24.3829C10.3692 24.1777 10.6474 24.0625 10.9375 24.0625H15.3125C15.6026 24.0625 15.8808 24.1777 16.0859 24.3829C16.291 24.588 16.4062 24.8662 16.4062 25.1562V30.625C16.4062 30.9151 16.291 31.1933 16.0859 31.3984C15.8808 31.6035 15.6026 31.7188 15.3125 31.7188ZM12.0312 29.5312H14.2188V26.25H12.0312V29.5312Z" fill="#EA5B21"/>
<path d="M48.125 40.4688H45.9375C45.6474 40.4688 45.3692 40.3535 45.1641 40.1484C44.959 39.9433 44.8438 39.6651 44.8438 39.375C44.8438 39.0849 44.959 38.8067 45.1641 38.6016C45.3692 38.3965 45.6474 38.2812 45.9375 38.2812H48.125C48.4151 38.2812 48.6933 38.3965 48.8984 38.6016C49.1035 38.8067 49.2188 39.0849 49.2188 39.375C49.2188 39.6651 49.1035 39.9433 48.8984 40.1484C48.6933 40.3535 48.4151 40.4688 48.125 40.4688Z" fill="#EA5B21"/>
</svg>
 
