<svg width="18" height="18" viewBox="0 0 18 18" fill="none" xmlns="http://www.w3.org/2000/svg">
<path d="M18 7.30382C18 3.27658 13.9628 0 8.9999 0C4.0367 0 0 3.27658 0 7.30382C0 10.9142 3.20175 13.9379 7.52688 14.5095C7.82003 14.5728 8.21883 14.703 8.31964 14.9534C8.4104 15.1808 8.37892 15.5374 8.3486 15.7674L8.22018 16.538C8.18088 16.7654 8.03913 17.4279 8.99971 17.0231C9.96029 16.6183 14.1831 13.9711 16.0711 11.7976H16.0707C17.3751 10.3674 18 8.9158 18 7.30402" fill="#00B900"/>
<path d="M7.17395 5.36044H6.54244C6.44559 5.36044 6.36719 5.43894 6.36719 5.5355V9.45701C6.36719 9.55338 6.44569 9.63082 6.54244 9.63082H7.17395C7.2708 9.63082 7.34921 9.55357 7.34921 9.45701V5.53454C7.34921 5.43798 7.2707 5.35947 7.17395 5.35947V5.36044ZM11.5192 5.36044H10.887C10.7899 5.36044 10.7117 5.43894 10.7117 5.5355V7.86531L8.91445 5.43826C8.9103 5.43209 8.90557 5.4261 8.90093 5.42059L8.89997 5.41934L8.88616 5.40553L8.87669 5.39781C8.87525 5.39655 8.8738 5.3953 8.87216 5.39433L8.86308 5.38815C8.86144 5.3869 8.8596 5.38622 8.85777 5.38506L8.8485 5.37975L8.8429 5.37705L8.83276 5.3727L8.82716 5.37077C8.8237 5.36937 8.82015 5.3682 8.81654 5.36729L8.81036 5.36565L8.80051 5.36372C8.798 5.36314 8.79539 5.36275 8.79307 5.36275C8.78998 5.36218 8.78689 5.36179 8.7838 5.3615L8.77473 5.36092C8.77251 5.36092 8.77057 5.36073 8.76855 5.36073H8.13733C8.04048 5.36073 7.96207 5.43923 7.96207 5.53579V9.4573C7.96207 9.55367 8.04058 9.63111 8.13733 9.63111H8.76855C8.86559 9.63111 8.94409 9.55386 8.94409 9.4573V7.12807L10.7433 9.55821C10.7555 9.57518 10.7706 9.58984 10.788 9.60147C10.7884 9.60185 10.789 9.60243 10.7897 9.60291L10.8006 9.60929L10.8054 9.61218C10.8081 9.61363 10.8109 9.61495 10.8138 9.61614L10.8222 9.61981L10.8273 9.62174L10.8395 9.62541C10.8401 9.62561 10.8411 9.6258 10.842 9.62599C10.8566 9.62993 10.8717 9.63188 10.8869 9.63179H11.5181C11.615 9.63179 11.6934 9.55454 11.6934 9.45798V5.53444C11.6934 5.43788 11.6149 5.35938 11.5181 5.35938" fill="white"/>
<path d="M5.65425 8.64986H3.93886V5.5354C3.93886 5.43855 3.86035 5.36015 3.76379 5.36015H3.13229C3.03544 5.36015 2.95703 5.43865 2.95703 5.5354V9.45576C2.95701 9.50096 2.97461 9.54439 3.00608 9.57684C3.00666 9.57789 3.00745 9.57881 3.0084 9.57955C3.00937 9.58032 3.01033 9.58119 3.0111 9.58206C3.04359 9.61333 3.08691 9.63083 3.132 9.63092H5.65415C5.751 9.63092 5.82922 9.55222 5.82922 9.45566V8.82415C5.82922 8.7273 5.75197 8.6489 5.65415 8.6489L5.65425 8.64986ZM15.0074 6.34139C15.1042 6.34139 15.1824 6.26289 15.1824 6.16614V5.53463C15.1824 5.43778 15.1052 5.35938 15.0074 5.35938H12.4852C12.4398 5.35933 12.3962 5.37708 12.3636 5.40881C12.3631 5.40939 12.3622 5.41007 12.3617 5.41074C12.3612 5.41142 12.3598 5.41268 12.359 5.41383C12.33 5.44512 12.3104 5.48761 12.3104 5.53454V9.45614C12.3104 9.50307 12.3292 9.54575 12.3595 9.57723L12.3617 9.57974L12.3642 9.58206C12.3957 9.61238 12.4384 9.63111 12.4853 9.63111H15.0075C15.1043 9.63111 15.1825 9.5526 15.1825 9.45604V8.82454C15.1825 8.72769 15.1053 8.64928 15.0075 8.64928H13.2934V7.9864H15.0085C15.0315 7.98643 15.0543 7.98193 15.0756 7.97313C15.0969 7.96433 15.1162 7.95142 15.1325 7.93514C15.1487 7.91885 15.1616 7.89952 15.1704 7.87824C15.1792 7.85696 15.1837 7.83416 15.1836 7.81114V7.17992C15.1836 7.08307 15.1063 7.00438 15.0085 7.00438H13.2934V6.34168H15.0085L15.0074 6.34139Z" fill="white"/>
</svg>
