<svg width="15" height="15" viewBox="0 0 15 15" fill="none" xmlns="http://www.w3.org/2000/svg">
<path fill-rule="evenodd" clip-rule="evenodd" d="M0.5 0.25H2C2 7.29163 7.70837 13 14.75 13V14.5C6.87994 14.5 0.5 8.12006 0.5 0.25ZM4.14243 5.86577C3.91447 5.43608 3.71186 4.99088 3.53658 4.53217C3.02838 3.20218 2.75 1.7586 2.75 0.25H4.25C4.25 1.57809 4.49657 2.8486 4.94643 4.01823C5.09792 4.41207 5.27245 4.79448 5.46837 5.1638L4.14243 5.86577ZM9.04463 10.8096L9.7578 9.48961C11.2426 10.2935 12.943 10.75 14.75 10.75V12.25C12.6848 12.25 10.7415 11.7283 9.04463 10.8096Z" fill="#EA5B21"/>
</svg>
