<svg width="27" height="51" viewBox="0 0 27 51" fill="none" xmlns="http://www.w3.org/2000/svg">
<path fill-rule="evenodd" clip-rule="evenodd" d="M23.0513 22.4647C21.1191 24.3484 14.3438 29.4578 14.3438 35.3722V37.8421C14.3438 40.351 16.4869 42.001 17.0775 42.5768C17.9972 43.4652 18.5625 44.699 18.5625 46.0645C18.5625 48.7873 16.3013 51 13.5 51C10.6988 51 8.4375 48.7873 8.4375 46.0645C8.4375 44.699 9.00281 43.4652 9.91406 42.5768C10.5131 42.001 12.6562 40.351 12.6562 37.8421C12.6562 35.3333 12.6562 35.3722 12.6562 35.3722C12.6562 29.4578 5.88094 24.3484 3.94875 22.4647C1.51031 20.0874 0 16.7971 0 13.1613C0 5.88968 6.03281 0.00822581 13.5 0C20.9672 0.00822581 27 5.88968 27 13.1613C27 16.7971 25.4897 20.0874 23.0513 22.4647Z" fill="#333333"/>
</svg>
