<svg width="45" height="45" viewBox="0 0 45 45" fill="none" xmlns="http://www.w3.org/2000/svg">
<path d="M35.625 20.625H24.375V9.375C24.375 8.33812 23.535 7.5 22.5 7.5C21.465 7.5 20.625 8.33812 20.625 9.375V20.625H9.375C8.34 20.625 7.5 21.4631 7.5 22.5C7.5 23.5369 8.34 24.375 9.375 24.375H20.625V35.625C20.625 36.6619 21.465 37.5 22.5 37.5C23.535 37.5 24.375 36.6619 24.375 35.625V24.375H35.625C36.66 24.375 37.5 23.5369 37.5 22.5C37.5 21.4631 36.66 20.625 35.625 20.625" fill="#00A0E3"/>
<mask id="mask0_18741:43570" style="mask-type:alpha" maskUnits="userSpaceOnUse" x="7" y="7" width="31" height="31">
</mask>
</svg>
