<svg width="24" height="24" viewBox="0 0 24 24" fill="none" xmlns="http://www.w3.org/2000/svg">
<g id="alert/info">
<path id="Transparent BG" d="M0.005 0.005H23.995V23.995H0.005V0.005Z" stroke="white" stroke-opacity="0.01" stroke-width="0.01"/>
<path id="Oval" fill-rule="evenodd" clip-rule="evenodd" d="M21 12C21 7.02944 16.9706 3 12 3C7.02944 3 3 7.02944 3 12C3 16.9706 7.02944 21 12 21C16.9706 21 21 16.9706 21 12ZM1 12C1 5.92487 5.92487 1 12 1C18.0751 1 23 5.92487 23 12C23 18.0751 18.0751 23 12 23C5.92487 23 1 18.0751 1 12ZM11 12V17H13V10H9V12H11ZM13 9V7H11V9H13Z" fill="#333333"/>
</g>
</svg>
