<svg width="64" height="64" viewBox="0 0 64 64" fill="none" xmlns="http://www.w3.org/2000/svg">
<path d="M59.0001 46.0019C58.9976 46.7754 58.6883 47.5162 58.1401 48.0619L50.0001 56.0619C48.131 57.8947 45.6178 58.9215 43.0001 58.9219H5.08008V45.9219H19.4401C20.1415 45.9212 20.8305 45.736 21.4378 45.385C22.045 45.0339 22.5494 44.5294 22.9001 43.9219C23.4253 43.0122 24.1802 42.2563 25.0892 41.7298C25.9983 41.2033 27.0296 40.9247 28.0801 40.9219H38.9101C39.5112 40.9193 40.1011 41.0846 40.6135 41.3991C41.1258 41.7135 41.5402 42.1647 41.8101 42.7019C41.9641 43.014 42.0526 43.3543 42.0701 43.7019C42.1004 44.114 42.0452 44.5279 41.9081 44.9176C41.771 45.3074 41.5548 45.6646 41.2731 45.9669C40.9915 46.2692 40.6504 46.5101 40.2713 46.6744C39.8922 46.8388 39.4833 46.923 39.0701 46.9219H36.0701C35.7656 46.9218 35.4652 46.9911 35.1916 47.1247C34.918 47.2583 34.6786 47.4526 34.4914 47.6927C34.3043 47.9329 34.1745 48.2126 34.1119 48.5105C34.0493 48.8084 34.0555 49.1167 34.1301 49.4119C34.2555 49.846 34.5181 50.2277 34.8787 50.4999C35.2392 50.7721 35.6783 50.9202 36.1301 50.9219H46.4201C46.8439 50.9201 47.25 50.7512 47.5501 50.4519L48.2501 49.7519L52.3801 45.6219L53.8901 44.1119C54.1706 43.8138 54.5091 43.5762 54.8849 43.4138C55.2607 43.2514 55.6657 43.1676 56.0751 43.1676C56.4844 43.1676 56.8895 43.2514 57.2652 43.4138C57.641 43.5762 57.9796 43.8138 58.2601 44.1119C58.7264 44.6322 58.9891 45.3033 59.0001 46.0019Z" fill="#FFD8C8"/>
<path d="M53.2398 43.5595C53.2373 44.333 52.928 45.0739 52.3798 45.6195L48.2498 49.7495L47.5498 50.4495C47.2497 50.7488 46.8437 50.9177 46.4198 50.9195H38.8398L41.0698 48.6895L48.2598 41.4995C48.6671 41.0862 49.1883 40.8036 49.7569 40.6877C50.3255 40.5718 50.9157 40.628 51.4522 40.8491C51.9887 41.0701 52.4472 41.446 52.7692 41.9288C53.0911 42.4115 53.262 42.9793 53.2598 43.5595H53.2398Z" fill="#FFD8C8"/>
<path d="M50.0801 4.92188H14.0801V36.9219H50.0801V4.92188Z" fill="#D3D2D1"/>
<path d="M36.0801 4.92188H28.0801V11.9219H36.0801V4.92188Z" fill="#9E9E9E"/>
<path d="M28.0801 32.9219H20.0801C19.8149 32.9219 19.5605 32.8165 19.373 32.629C19.1854 32.4414 19.0801 32.1871 19.0801 31.9219C19.0801 31.6567 19.1854 31.4023 19.373 31.2148C19.5605 31.0272 19.8149 30.9219 20.0801 30.9219H28.0801C28.3453 30.9219 28.5996 31.0272 28.7872 31.2148C28.9747 31.4023 29.0801 31.6567 29.0801 31.9219C29.0801 32.1871 28.9747 32.4414 28.7872 32.629C28.5996 32.8165 28.3453 32.9219 28.0801 32.9219Z" fill="#3AA3CD"/>
<path d="M28.0801 27.9219H20.0801C19.8149 27.9219 19.5605 27.8165 19.373 27.629C19.1854 27.4414 19.0801 27.1871 19.0801 26.9219C19.0801 26.6567 19.1854 26.4023 19.373 26.2148C19.5605 26.0272 19.8149 25.9219 20.0801 25.9219H28.0801C28.3453 25.9219 28.5996 26.0272 28.7872 26.2148C28.9747 26.4023 29.0801 26.6567 29.0801 26.9219C29.0801 27.1871 28.9747 27.4414 28.7872 27.629C28.5996 27.8165 28.3453 27.9219 28.0801 27.9219Z" fill="#3AA3CD"/>
<path d="M42.91 60.0001H5C4.73478 60.0001 4.48043 59.8947 4.29289 59.7072C4.10536 59.5197 4 59.2653 4 59.0001C4 58.7349 4.10536 58.4805 4.29289 58.293C4.48043 58.1055 4.73478 58.0001 5 58.0001H42.91C45.2689 58.0034 47.5347 57.0806 49.22 55.4301L57.36 47.4301C57.7103 47.0669 57.9103 46.5846 57.92 46.0801C57.9194 45.6155 57.7487 45.1673 57.44 44.8201C57.2721 44.6359 57.0685 44.4877 56.8416 44.3846C56.6147 44.2815 56.3692 44.2255 56.12 44.2201C55.8237 44.2113 55.5287 44.2635 55.2534 44.3736C54.9781 44.4837 54.7285 44.6493 54.52 44.8601L48.17 51.2001C47.9304 51.4416 47.6453 51.6331 47.3312 51.7636C47.0171 51.894 46.6801 51.9608 46.34 51.9601H36.11C35.4303 51.9687 34.767 51.7514 34.2241 51.3424C33.6811 50.9334 33.2893 50.3558 33.11 49.7001C33.0047 49.2613 32.9997 48.8045 33.0955 48.3635C33.1912 47.9226 33.3851 47.5089 33.6629 47.1533C33.9406 46.7977 34.295 46.5093 34.6997 46.3097C35.1043 46.11 35.5488 46.0042 36 46.0001H39C39.5296 45.9979 40.0366 45.7857 40.41 45.4101C40.6182 45.2103 40.7791 44.9666 40.8812 44.6967C40.9833 44.4269 41.0238 44.1376 41 43.8501C40.9972 43.6336 40.9423 43.4209 40.84 43.2301C40.654 42.8594 40.3683 42.5479 40.015 42.3306C39.6617 42.1133 39.2548 41.9988 38.84 42.0001H28C27.125 42.0009 26.2655 42.2312 25.5075 42.6682C24.7494 43.1051 24.1192 43.7334 23.68 44.4901C23.2433 45.2506 22.6142 45.8828 21.856 46.3234C21.0977 46.7639 20.2369 46.9973 19.36 47.0001H5C4.73478 47.0001 4.48043 46.8947 4.29289 46.7072C4.10536 46.5197 4 46.2653 4 46.0001C4 45.7349 4.10536 45.4805 4.29289 45.293C4.48043 45.1055 4.73478 45.0001 5 45.0001H19.36C19.8957 45.0055 20.423 44.8674 20.8873 44.6001C21.3515 44.3328 21.7357 43.9461 22 43.4801C22.6116 42.4288 23.4865 41.5549 24.5387 40.9447C25.5908 40.3345 26.7838 40.0089 28 40.0001H38.83C39.6203 39.9946 40.3962 40.2122 41.0684 40.6279C41.7406 41.0436 42.2819 41.6405 42.63 42.3501C42.8461 42.7765 42.9721 43.2429 43 43.7201C43.0385 44.2685 42.9635 44.8189 42.7798 45.337C42.5961 45.8551 42.3076 46.3297 41.9322 46.7313C41.5569 47.1329 41.1028 47.4529 40.5983 47.6712C40.0938 47.8895 39.5497 48.0015 39 48.0001H36C35.8712 47.998 35.7433 48.0227 35.6245 48.0726C35.5058 48.1225 35.3987 48.1966 35.31 48.2901C35.1762 48.4152 35.0794 48.5746 35.03 48.7509C34.9806 48.9272 34.9806 49.1138 35.03 49.2901C35.1052 49.5147 35.251 49.7091 35.4456 49.8442C35.6402 49.9794 35.8732 50.0481 36.11 50.0401H46.34C46.4178 50.0408 46.4949 50.0262 46.567 49.997C46.639 49.9679 46.7046 49.9247 46.76 49.8701L53.1 43.5201C53.5033 43.1184 53.9847 42.8038 54.5145 42.5957C55.0443 42.3875 55.6111 42.2903 56.18 42.3101C56.7003 42.3201 57.213 42.4371 57.6862 42.6539C58.1593 42.8706 58.5827 43.1825 58.93 43.5701C59.5697 44.2815 59.9257 45.2033 59.93 46.1601C59.9204 47.1976 59.5081 48.1909 58.78 48.9301L50.63 56.9301C48.5569 58.9232 45.7857 60.0253 42.91 60.0001Z" fill="#333333"/>
<path d="M45.3399 52.0005H38.7599C38.5625 51.9995 38.3698 51.9401 38.206 51.8298C38.0423 51.7194 37.9149 51.5631 37.8399 51.3805C37.7633 51.1984 37.7424 50.9977 37.7798 50.8037C37.8172 50.6097 37.9111 50.4311 38.0499 50.2905L47.4699 40.8705C47.8337 40.5073 48.2657 40.2196 48.7411 40.024C49.2165 39.8283 49.7258 39.7286 50.2399 39.7305C51.2753 39.7358 52.2668 40.1494 52.9989 40.8815C53.731 41.6136 54.1446 42.6051 54.1499 43.6405C54.1403 44.678 53.728 45.6713 52.9999 46.4105L48.8699 50.5405C47.9328 51.4752 46.6634 52.0002 45.3399 52.0005ZM41.1699 50.0005H45.3399C46.1353 49.9998 46.8978 49.6833 47.4599 49.1205L51.5899 45.0005C51.95 44.6429 52.1548 44.1579 52.1599 43.6505C52.1603 43.3996 52.111 43.1512 52.0149 42.9195C51.9188 42.6878 51.7777 42.4774 51.5999 42.3005C51.424 42.1213 51.2138 41.9794 50.9819 41.8831C50.7499 41.7869 50.501 41.7384 50.2499 41.7405C49.9987 41.7378 49.7496 41.7861 49.5176 41.8823C49.2856 41.9786 49.0755 42.1208 48.8999 42.3005L41.1699 50.0005Z" fill="#333333"/>
<path d="M50 38H14C13.7348 38 13.4804 37.8946 13.2929 37.7071C13.1054 37.5196 13 37.2652 13 37V5C13 4.73478 13.1054 4.48043 13.2929 4.29289C13.4804 4.10536 13.7348 4 14 4H50C50.2652 4 50.5196 4.10536 50.7071 4.29289C50.8946 4.48043 51 4.73478 51 5V37C51 37.2652 50.8946 37.5196 50.7071 37.7071C50.5196 37.8946 50.2652 38 50 38ZM15 36H49V6H15V36Z" fill="#333333"/>
<path d="M36 13H28C27.7348 13 27.4804 12.8946 27.2929 12.7071C27.1054 12.5196 27 12.2652 27 12V5C27 4.73478 27.1054 4.48043 27.2929 4.29289C27.4804 4.10536 27.7348 4 28 4H36C36.2652 4 36.5196 4.10536 36.7071 4.29289C36.8946 4.48043 37 4.73478 37 5V12C37 12.2652 36.8946 12.5196 36.7071 12.7071C36.5196 12.8946 36.2652 13 36 13ZM29 11H35V6H29V11Z" fill="#333333"/>
<path d="M28 33H20C19.7348 33 19.4804 32.8946 19.2929 32.7071C19.1054 32.5196 19 32.2652 19 32C19 31.7348 19.1054 31.4804 19.2929 31.2929C19.4804 31.1054 19.7348 31 20 31H28C28.2652 31 28.5196 31.1054 28.7071 31.2929C28.8946 31.4804 29 31.7348 29 32C29 32.2652 28.8946 32.5196 28.7071 32.7071C28.5196 32.8946 28.2652 33 28 33Z" fill="#EA5B21"/>
<path d="M28 28H20C19.7348 28 19.4804 27.8946 19.2929 27.7071C19.1054 27.5196 19 27.2652 19 27C19 26.7348 19.1054 26.4804 19.2929 26.2929C19.4804 26.1054 19.7348 26 20 26H28C28.2652 26 28.5196 26.1054 28.7071 26.2929C28.8946 26.4804 29 26.7348 29 27C29 27.2652 28.8946 27.5196 28.7071 27.7071C28.5196 27.8946 28.2652 28 28 28Z" fill="#EA5B21"/>
</svg>
