<svg width="64" height="64" viewBox="0 0 64 64" fill="none" xmlns="http://www.w3.org/2000/svg">
<path d="M59.0801 44.9219H41.0801L45.0801 39.9219H55.0801L59.0801 44.9219Z" fill="#EAEAEA"/>
<path d="M59.0801 44.9219H41.0801V58.9219H59.0801V44.9219Z" fill="#D3D2D1"/>
<path d="M51.0801 16.9219V39.9219H45.0801L41.0801 44.9219V52.9219H5.08008V16.9219H51.0801Z" fill="#EAEAEA"/>
<path d="M51.0801 8.92188H5.08008V16.9219H51.0801V8.92188Z" fill="#EA5B21"/>
<path d="M24.0801 22.9219H22.0801C21.5278 22.9219 21.0801 23.3696 21.0801 23.9219V25.9219C21.0801 26.4742 21.5278 26.9219 22.0801 26.9219H24.0801C24.6324 26.9219 25.0801 26.4742 25.0801 25.9219V23.9219C25.0801 23.3696 24.6324 22.9219 24.0801 22.9219Z" fill="#FC6363"/>
<path d="M34.0801 22.9219H32.0801C31.5278 22.9219 31.0801 23.3696 31.0801 23.9219V25.9219C31.0801 26.4742 31.5278 26.9219 32.0801 26.9219H34.0801C34.6324 26.9219 35.0801 26.4742 35.0801 25.9219V23.9219C35.0801 23.3696 34.6324 22.9219 34.0801 22.9219Z" fill="#FC6363"/>
<path d="M44.0801 22.9219H42.0801C41.5278 22.9219 41.0801 23.3696 41.0801 23.9219V25.9219C41.0801 26.4742 41.5278 26.9219 42.0801 26.9219H44.0801C44.6324 26.9219 45.0801 26.4742 45.0801 25.9219V23.9219C45.0801 23.3696 44.6324 22.9219 44.0801 22.9219Z" fill="#FC6363"/>
<path d="M14.0801 32.9219H12.0801C11.5278 32.9219 11.0801 33.3696 11.0801 33.9219V35.9219C11.0801 36.4742 11.5278 36.9219 12.0801 36.9219H14.0801C14.6324 36.9219 15.0801 36.4742 15.0801 35.9219V33.9219C15.0801 33.3696 14.6324 32.9219 14.0801 32.9219Z" fill="#FC6363"/>
<path d="M24.0801 32.9219H22.0801C21.5278 32.9219 21.0801 33.3696 21.0801 33.9219V35.9219C21.0801 36.4742 21.5278 36.9219 22.0801 36.9219H24.0801C24.6324 36.9219 25.0801 36.4742 25.0801 35.9219V33.9219C25.0801 33.3696 24.6324 32.9219 24.0801 32.9219Z" fill="#FC6363"/>
<path d="M34.0801 32.9219H32.0801C31.5278 32.9219 31.0801 33.3696 31.0801 33.9219V35.9219C31.0801 36.4742 31.5278 36.9219 32.0801 36.9219H34.0801C34.6324 36.9219 35.0801 36.4742 35.0801 35.9219V33.9219C35.0801 33.3696 34.6324 32.9219 34.0801 32.9219Z" fill="#FC6363"/>
<path d="M44.0801 32.9219H42.0801C41.5278 32.9219 41.0801 33.3696 41.0801 33.9219V35.9219C41.0801 36.4742 41.5278 36.9219 42.0801 36.9219H44.0801C44.6324 36.9219 45.0801 36.4742 45.0801 35.9219V33.9219C45.0801 33.3696 44.6324 32.9219 44.0801 32.9219Z" fill="#FC6363"/>
<path d="M14.0801 42.9219H12.0801C11.5278 42.9219 11.0801 43.3696 11.0801 43.9219V45.9219C11.0801 46.4742 11.5278 46.9219 12.0801 46.9219H14.0801C14.6324 46.9219 15.0801 46.4742 15.0801 45.9219V43.9219C15.0801 43.3696 14.6324 42.9219 14.0801 42.9219Z" fill="#FC6363"/>
<path d="M24.0801 42.9219H22.0801C21.5278 42.9219 21.0801 43.3696 21.0801 43.9219V45.9219C21.0801 46.4742 21.5278 46.9219 22.0801 46.9219H24.0801C24.6324 46.9219 25.0801 46.4742 25.0801 45.9219V43.9219C25.0801 43.3696 24.6324 42.9219 24.0801 42.9219Z" fill="#FC6363"/>
<path d="M34.0801 42.9219H32.0801C31.5278 42.9219 31.0801 43.3696 31.0801 43.9219V45.9219C31.0801 46.4742 31.5278 46.9219 32.0801 46.9219H34.0801C34.6324 46.9219 35.0801 46.4742 35.0801 45.9219V43.9219C35.0801 43.3696 34.6324 42.9219 34.0801 42.9219Z" fill="#FC6363"/>
<path d="M50 49C49.7348 49 49.4804 48.8946 49.2929 48.7071C49.1054 48.5196 49 48.2652 49 48V40C49 39.7348 49.1054 39.4804 49.2929 39.2929C49.4804 39.1054 49.7348 39 50 39C50.2652 39 50.5196 39.1054 50.7071 39.2929C50.8946 39.4804 51 39.7348 51 40V48C51 48.2652 50.8946 48.5196 50.7071 48.7071C50.5196 48.8946 50.2652 49 50 49Z" fill="#333333"/>
<path d="M47 56H45C44.7348 56 44.4804 55.8946 44.2929 55.7071C44.1054 55.5196 44 55.2652 44 55C44 54.7348 44.1054 54.4804 44.2929 54.2929C44.4804 54.1054 44.7348 54 45 54H47C47.2652 54 47.5196 54.1054 47.7071 54.2929C47.8946 54.4804 48 54.7348 48 55C48 55.2652 47.8946 55.5196 47.7071 55.7071C47.5196 55.8946 47.2652 56 47 56Z" fill="#EA5B21"/>
<path d="M58.9998 46H40.9998C40.8113 45.9995 40.6268 45.9457 40.4676 45.8448C40.3083 45.744 40.1808 45.6002 40.0998 45.43C40.0295 45.2676 40.0036 45.0895 40.0247 44.9138C40.0458 44.7381 40.1131 44.5712 40.2198 44.43L44.2198 39.43C44.3077 39.3029 44.4239 39.198 44.5593 39.1234C44.6946 39.0488 44.8454 39.0065 44.9998 39H54.9998C55.15 39.0007 55.2981 39.0352 55.4331 39.101C55.5682 39.1668 55.6867 39.2621 55.7798 39.38L59.7798 44.38C59.8865 44.5212 59.9538 44.6881 59.9749 44.8638C59.996 45.0395 59.97 45.2176 59.8998 45.38C59.8261 45.5595 59.7018 45.7137 59.542 45.8238C59.3822 45.9339 59.1938 45.9951 58.9998 46ZM43.0798 44H56.9198L54.5198 41H45.5198L43.0798 44Z" fill="#333333"/>
<path d="M59 60H41C40.7348 60 40.4804 59.8946 40.2929 59.7071C40.1054 59.5196 40 59.2652 40 59V45C40 44.7348 40.1054 44.4804 40.2929 44.2929C40.4804 44.1054 40.7348 44 41 44H59C59.2652 44 59.5196 44.1054 59.7071 44.2929C59.8946 44.4804 60 44.7348 60 45V50C60 50.2652 59.8946 50.5196 59.7071 50.7071C59.5196 50.8946 59.2652 51 59 51C58.7348 51 58.4804 50.8946 58.2929 50.7071C58.1054 50.5196 58 50.2652 58 50V46H42V58H58V54C58 53.7348 58.1054 53.4804 58.2929 53.2929C58.4804 53.1054 58.7348 53 59 53C59.2652 53 59.5196 53.1054 59.7071 53.2929C59.8946 53.4804 60 53.7348 60 54V59C60 59.2652 59.8946 59.5196 59.7071 59.7071C59.5196 59.8946 59.2652 60 59 60Z" fill="#333333"/>
<path d="M5 27C4.73478 27 4.48043 26.8946 4.29289 26.7071C4.10536 26.5196 4 26.2652 4 26V17C4 16.7348 4.10536 16.4804 4.29289 16.2929C4.48043 16.1054 4.73478 16 5 16H42C42.2652 16 42.5196 16.1054 42.7071 16.2929C42.8946 16.4804 43 16.7348 43 17C43 17.2652 42.8946 17.5196 42.7071 17.7071C42.5196 17.8946 42.2652 18 42 18H6V26C6 26.2652 5.89464 26.5196 5.70711 26.7071C5.51957 26.8946 5.26522 27 5 27Z" fill="#333333"/>
<path d="M26 54H5C4.73478 54 4.48043 53.8946 4.29289 53.7071C4.10536 53.5196 4 53.2652 4 53V35C4 34.7348 4.10536 34.4804 4.29289 34.2929C4.48043 34.1054 4.73478 34 5 34C5.26522 34 5.51957 34.1054 5.70711 34.2929C5.89464 34.4804 6 34.7348 6 35V52H26C26.2652 52 26.5196 52.1054 26.7071 52.2929C26.8946 52.4804 27 52.7348 27 53C27 53.2652 26.8946 53.5196 26.7071 53.7071C26.5196 53.8946 26.2652 54 26 54Z" fill="#333333"/>
<path d="M41 54H30C29.7348 54 29.4804 53.8946 29.2929 53.7071C29.1054 53.5196 29 53.2652 29 53C29 52.7348 29.1054 52.4804 29.2929 52.2929C29.4804 52.1054 29.7348 52 30 52H40V45C40.0013 44.7744 40.0788 44.5559 40.22 44.38L44.22 39.38C44.3131 39.2621 44.4316 39.1668 44.5666 39.101C44.7017 39.0352 44.8498 39.0007 45 39H50V18H46C45.7348 18 45.4804 17.8946 45.2929 17.7071C45.1054 17.5196 45 17.2652 45 17C45 16.7348 45.1054 16.4804 45.2929 16.2929C45.4804 16.1054 45.7348 16 46 16H51C51.2652 16 51.5196 16.1054 51.7071 16.2929C51.8946 16.4804 52 16.7348 52 17V40C52 40.2652 51.8946 40.5196 51.7071 40.7071C51.5196 40.8946 51.2652 41 51 41H45.48L42 45.35V53C42 53.2652 41.8946 53.5196 41.7071 53.7071C41.5196 53.8946 41.2652 54 41 54Z" fill="#333333"/>
<path d="M5 32C4.73478 32 4.48043 31.8946 4.29289 31.7071C4.10536 31.5196 4 31.2652 4 31V30C4 29.7348 4.10536 29.4804 4.29289 29.2929C4.48043 29.1054 4.73478 29 5 29C5.26522 29 5.51957 29.1054 5.70711 29.2929C5.89464 29.4804 6 29.7348 6 30V31C6 31.2652 5.89464 31.5196 5.70711 31.7071C5.51957 31.8946 5.26522 32 5 32Z" fill="#333333"/>
<path d="M52 9V17C52 17.2652 51.8946 17.5196 51.7071 17.7071C51.5196 17.8946 51.2652 18 51 18H46C45.7348 18 45.4804 17.8946 45.2929 17.7071C45.1054 17.5196 45 17.2652 45 17C44.9951 16.9736 44.9951 16.9464 45 16.92C44.9905 16.8604 44.9905 16.7996 45 16.74C45.0112 16.6869 45.0315 16.6362 45.06 16.59C45.093 16.5278 45.1297 16.4677 45.17 16.41L45.27 16.3L45.42 16.19C45.5888 16.0678 45.7916 16.0013 46 16H50V10H6V16H42C42.1882 16.0024 42.3719 16.0579 42.53 16.16L42.68 16.27L42.75 16.34L42.85 16.52C42.8785 16.5662 42.8988 16.6169 42.91 16.67C42.9195 16.7296 42.9195 16.7904 42.91 16.85C42.9345 16.8675 42.9551 16.8899 42.9706 16.9157C42.986 16.9415 42.9961 16.9702 43 17C43 17.2652 42.8946 17.5196 42.7071 17.7071C42.5196 17.8946 42.2652 18 42 18H5C4.73478 18 4.48043 17.8946 4.29289 17.7071C4.10536 17.5196 4 17.2652 4 17V9C4 8.73478 4.10536 8.48043 4.29289 8.29289C4.48043 8.10536 4.73478 8 5 8H51C51.2652 8 51.5196 8.10536 51.7071 8.29289C51.8946 8.48043 52 8.73478 52 9Z" fill="#333333"/>
<path d="M46.8996 8.00111C46.6701 6.87082 46.0569 5.85463 45.1639 5.12473C44.2709 4.39483 43.153 3.99609 41.9996 3.99609C40.8463 3.99609 39.7284 4.39483 38.8354 5.12473C37.9423 5.85463 37.3291 6.87082 37.0996 8.00111H39.1796C39.3898 7.42195 39.7732 6.92157 40.2778 6.56795C40.7823 6.21433 41.3835 6.02463 41.9996 6.02463C42.6157 6.02463 43.2169 6.21433 43.7214 6.56795C44.226 6.92157 44.6094 7.42195 44.8196 8.00111C44.9317 8.29491 44.9893 8.60666 44.9896 8.92111C44.9978 8.94693 45.0012 8.97405 44.9996 9.00111C45.0018 9.34269 44.9408 9.68172 44.8196 10.0011C44.6133 10.5847 44.2315 11.0901 43.7267 11.4482C43.2218 11.8062 42.6186 11.9994 41.9996 12.0011C41.7344 12.0011 41.48 12.1065 41.2925 12.294C41.105 12.4815 40.9996 12.7359 40.9996 13.0011C40.9996 13.2663 41.105 13.5207 41.2925 13.7082C41.48 13.8957 41.7344 14.0011 41.9996 14.0011C43.1523 14.0013 44.2696 13.6033 45.1625 12.8744C46.0554 12.1455 46.6691 11.1305 46.8996 10.0011C46.9685 9.67229 47.002 9.33705 46.9996 9.00111V8.92111C46.9916 8.61222 46.9581 8.30451 46.8996 8.00111Z" fill="#9E9E9E"/>
<path d="M27.9996 4C26.847 3.99976 25.7296 4.39778 24.8367 5.12669C23.9438 5.8556 23.3301 6.87064 23.0996 8H25.1796C25.3898 7.42085 25.7732 6.92046 26.2778 6.56684C26.7823 6.21322 27.3835 6.02352 27.9996 6.02352C28.6157 6.02352 29.2169 6.21322 29.7214 6.56684C30.226 6.92046 30.6094 7.42085 30.8196 8C30.9317 8.2938 30.9893 8.60556 30.9896 8.92C30.9978 8.94582 31.0012 8.97295 30.9996 9C31.0018 9.34158 30.9408 9.68062 30.8196 10C30.6133 10.5835 30.2315 11.089 29.7267 11.4471C29.2218 11.8051 28.6186 11.9983 27.9996 12C27.7344 12 27.48 12.1054 27.2925 12.2929C27.105 12.4804 26.9996 12.7348 26.9996 13C26.9996 13.2652 27.105 13.5196 27.2925 13.7071C27.48 13.8946 27.7344 14 27.9996 14C29.1523 14.0002 30.2696 13.6022 31.1625 12.8733C32.0554 12.1444 32.6691 11.1294 32.8996 10C32.9685 9.67119 33.002 9.33595 32.9996 9V8.92C32.9916 8.61111 32.9581 8.3034 32.8996 8C32.6691 6.87064 32.0554 5.8556 31.1625 5.12669C30.2696 4.39778 29.1523 3.99976 27.9996 4Z" fill="#9E9E9E"/>
<path d="M13.9996 4C12.847 3.99976 11.7296 4.39778 10.8367 5.12669C9.94379 5.8556 9.33014 6.87064 9.09961 8H11.1796C11.3898 7.42085 11.7732 6.92046 12.2778 6.56684C12.7823 6.21322 13.3835 6.02352 13.9996 6.02352C14.6157 6.02352 15.2169 6.21322 15.7214 6.56684C16.226 6.92046 16.6094 7.42085 16.8196 8C16.9317 8.2938 16.9893 8.60556 16.9896 8.92C16.9978 8.94582 17.0012 8.97295 16.9996 9C17.0018 9.34158 16.9408 9.68062 16.8196 10C16.6133 10.5835 16.2315 11.089 15.7267 11.4471C15.2218 11.8051 14.6186 11.9983 13.9996 12C13.7344 12 13.48 12.1054 13.2925 12.2929C13.105 12.4804 12.9996 12.7348 12.9996 13C12.9996 13.2652 13.105 13.5196 13.2925 13.7071C13.48 13.8946 13.7344 14 13.9996 14C15.1523 14.0002 16.2696 13.6022 17.1625 12.8733C18.0554 12.1444 18.6691 11.1294 18.8996 10C18.9685 9.67119 19.002 9.33595 18.9996 9V8.92C18.9916 8.61111 18.9581 8.3034 18.8996 8C18.6691 6.87064 18.0554 5.8556 17.1625 5.12669C16.2696 4.39778 15.1523 3.99976 13.9996 4Z" fill="#9E9E9E"/>
<path d="M24 28H22C21.4696 28 20.9609 27.7893 20.5858 27.4142C20.2107 27.0391 20 26.5304 20 26V24C20 23.4696 20.2107 22.9609 20.5858 22.5858C20.9609 22.2107 21.4696 22 22 22H24C24.5304 22 25.0391 22.2107 25.4142 22.5858C25.7893 22.9609 26 23.4696 26 24V26C26 26.5304 25.7893 27.0391 25.4142 27.4142C25.0391 27.7893 24.5304 28 24 28ZM22 24V26H24V24H22Z" fill="#333333"/>
<path d="M34 28H32C31.4696 28 30.9609 27.7893 30.5858 27.4142C30.2107 27.0391 30 26.5304 30 26V24C30 23.4696 30.2107 22.9609 30.5858 22.5858C30.9609 22.2107 31.4696 22 32 22H34C34.5304 22 35.0391 22.2107 35.4142 22.5858C35.7893 22.9609 36 23.4696 36 24V26C36 26.5304 35.7893 27.0391 35.4142 27.4142C35.0391 27.7893 34.5304 28 34 28ZM32 24V26H34V24H32Z" fill="#333333"/>
<path d="M44 28H42C41.4696 28 40.9609 27.7893 40.5858 27.4142C40.2107 27.0391 40 26.5304 40 26V24C40 23.4696 40.2107 22.9609 40.5858 22.5858C40.9609 22.2107 41.4696 22 42 22H44C44.5304 22 45.0391 22.2107 45.4142 22.5858C45.7893 22.9609 46 23.4696 46 24V26C46 26.5304 45.7893 27.0391 45.4142 27.4142C45.0391 27.7893 44.5304 28 44 28ZM42 24V26H44V24H42Z" fill="#333333"/>
<path d="M14 38H12C11.4696 38 10.9609 37.7893 10.5858 37.4142C10.2107 37.0391 10 36.5304 10 36V34C10 33.4696 10.2107 32.9609 10.5858 32.5858C10.9609 32.2107 11.4696 32 12 32H14C14.5304 32 15.0391 32.2107 15.4142 32.5858C15.7893 32.9609 16 33.4696 16 34V36C16 36.5304 15.7893 37.0391 15.4142 37.4142C15.0391 37.7893 14.5304 38 14 38ZM12 34V36H14V34H12Z" fill="#333333"/>
<path d="M24 38H22C21.4696 38 20.9609 37.7893 20.5858 37.4142C20.2107 37.0391 20 36.5304 20 36V34C20 33.4696 20.2107 32.9609 20.5858 32.5858C20.9609 32.2107 21.4696 32 22 32H24C24.5304 32 25.0391 32.2107 25.4142 32.5858C25.7893 32.9609 26 33.4696 26 34V36C26 36.5304 25.7893 37.0391 25.4142 37.4142C25.0391 37.7893 24.5304 38 24 38ZM22 34V36H24V34H22Z" fill="#333333"/>
<path d="M34 38H32C31.4696 38 30.9609 37.7893 30.5858 37.4142C30.2107 37.0391 30 36.5304 30 36V34C30 33.4696 30.2107 32.9609 30.5858 32.5858C30.9609 32.2107 31.4696 32 32 32H34C34.5304 32 35.0391 32.2107 35.4142 32.5858C35.7893 32.9609 36 33.4696 36 34V36C36 36.5304 35.7893 37.0391 35.4142 37.4142C35.0391 37.7893 34.5304 38 34 38ZM32 34V36H34V34H32Z" fill="#333333"/>
<path d="M44 38H42C41.4696 38 40.9609 37.7893 40.5858 37.4142C40.2107 37.0391 40 36.5304 40 36V34C40 33.4696 40.2107 32.9609 40.5858 32.5858C40.9609 32.2107 41.4696 32 42 32H44C44.5304 32 45.0391 32.2107 45.4142 32.5858C45.7893 32.9609 46 33.4696 46 34V36C46 36.5304 45.7893 37.0391 45.4142 37.4142C45.0391 37.7893 44.5304 38 44 38ZM42 34V36H44V34H42Z" fill="#333333"/>
<path d="M14 48H12C11.4696 48 10.9609 47.7893 10.5858 47.4142C10.2107 47.0391 10 46.5304 10 46V44C10 43.4696 10.2107 42.9609 10.5858 42.5858C10.9609 42.2107 11.4696 42 12 42H14C14.5304 42 15.0391 42.2107 15.4142 42.5858C15.7893 42.9609 16 43.4696 16 44V46C16 46.5304 15.7893 47.0391 15.4142 47.4142C15.0391 47.7893 14.5304 48 14 48ZM12 44V46H14V44H12Z" fill="#333333"/>
<path d="M24 48H22C21.4696 48 20.9609 47.7893 20.5858 47.4142C20.2107 47.0391 20 46.5304 20 46V44C20 43.4696 20.2107 42.9609 20.5858 42.5858C20.9609 42.2107 21.4696 42 22 42H24C24.5304 42 25.0391 42.2107 25.4142 42.5858C25.7893 42.9609 26 43.4696 26 44V46C26 46.5304 25.7893 47.0391 25.4142 47.4142C25.0391 47.7893 24.5304 48 24 48ZM22 44V46H24V44H22Z" fill="#333333"/>
<path d="M34 48H32C31.4696 48 30.9609 47.7893 30.5858 47.4142C30.2107 47.0391 30 46.5304 30 46V44C30 43.4696 30.2107 42.9609 30.5858 42.5858C30.9609 42.2107 31.4696 42 32 42H34C34.5304 42 35.0391 42.2107 35.4142 42.5858C35.7893 42.9609 36 43.4696 36 44V46C36 46.5304 35.7893 47.0391 35.4142 47.4142C35.0391 47.7893 34.5304 48 34 48ZM32 44V46H34V44H32Z" fill="#333333"/>
</svg>
