<svg width="64" height="64" viewBox="0 0 64 64" fill="none" xmlns="http://www.w3.org/2000/svg">
<path d="M62 32V48H54C54 46.1435 53.2625 44.363 51.9497 43.0503C50.637 41.7375 48.8565 41 47 41C45.1435 41 43.363 41.7375 42.0503 43.0503C40.7375 44.363 40 46.1435 40 48H36V18H52.53C53.2731 17.9995 54.0017 18.206 54.634 18.5963C55.2664 18.9867 55.7775 19.5454 56.11 20.21L62 32Z" fill="#EA5B21"/>
<path d="M47 55C50.866 55 54 51.866 54 48C54 44.134 50.866 41 47 41C43.134 41 40 44.134 40 48C40 51.866 43.134 55 47 55Z" fill="#9E9E9E"/>
<path d="M47 51C48.6569 51 50 49.6569 50 48C50 46.3431 48.6569 45 47 45C45.3431 45 44 46.3431 44 48C44 49.6569 45.3431 51 47 51Z" fill="#D3D2D1"/>
<path d="M14 55C17.866 55 21 51.866 21 48C21 44.134 17.866 41 14 41C10.134 41 7 44.134 7 48C7 51.866 10.134 55 14 55Z" fill="#9E9E9E"/>
<path d="M14 51C15.6569 51 17 49.6569 17 48C17 46.3431 15.6569 45 14 45C12.3431 45 11 46.3431 11 48C11 49.6569 12.3431 51 14 51Z" fill="#D3D2D1"/>
<path d="M62 32H42V22H57L62 32Z" fill="#EAEAEA"/>
<path d="M61 37H62V43H61C60.2044 43 59.4413 42.6839 58.8787 42.1213C58.3161 41.5587 58 40.7956 58 40C58 39.2044 58.3161 38.4413 58.8787 37.8787C59.4413 37.3161 60.2044 37 61 37Z" fill="#FC6363"/>
<path d="M36 37V48H21C21 46.1435 20.2625 44.363 18.9497 43.0503C17.637 41.7375 15.8565 41 14 41C12.1435 41 10.363 41.7375 9.05025 43.0503C7.7375 44.363 7 46.1435 7 48H2V37H36Z" fill="#EA5B21"/>
<path d="M36 23H20V37H36V23Z" fill="#D3D2D1"/>
<path d="M36 9H20V23H36V9Z" fill="#D3D2D1"/>
<path d="M20 23H4V37H20V23Z" fill="#D3D2D1"/>
<path d="M30 9H26V14H30V9Z" fill="#9E9E9E"/>
<path d="M30 23H26V28H30V23Z" fill="#9E9E9E"/>
<path d="M14 23H10V28H14V23Z" fill="#9E9E9E"/>
<path d="M62 49H54C53.7348 49 53.4804 48.8946 53.2929 48.7071C53.1054 48.5196 53 48.2652 53 48C53.002 46.994 52.7509 46.0036 52.27 45.12C52.1806 45.0059 52.117 44.8736 52.0838 44.7325C52.0506 44.5914 52.0484 44.4447 52.0775 44.3026C52.1066 44.1606 52.1662 44.0265 52.2523 43.9098C52.3383 43.7931 52.4487 43.6965 52.5758 43.6267C52.7029 43.5569 52.8437 43.5156 52.9883 43.5056C53.133 43.4956 53.2781 43.5172 53.4136 43.5689C53.5491 43.6206 53.6717 43.7011 53.7729 43.8049C53.8742 43.9087 53.9517 44.0333 54 44.17C54.4879 45.0461 54.8068 46.0061 54.94 47H61V32.24L55.22 20.66C54.9706 20.1604 54.5866 19.7402 54.1114 19.447C53.6361 19.1537 53.0884 18.9989 52.53 19H37V47H39.06C39.2254 45.7076 39.704 44.4751 40.4542 43.4097C41.2043 42.3443 42.2034 41.4783 43.3644 40.887C44.5255 40.2956 45.8134 39.9968 47.1162 40.0165C48.4191 40.0362 49.6974 40.3738 50.84 41C51.0734 41.1326 51.2445 41.3525 51.3158 41.6113C51.3871 41.8701 51.3526 42.1466 51.22 42.38C51.0874 42.6134 50.8675 42.7845 50.6087 42.8558C50.3499 42.9271 50.0734 42.8926 49.84 42.76C48.9293 42.2706 47.9076 42.0248 46.8739 42.0465C45.8403 42.0682 44.8298 42.3567 43.9404 42.8838C43.051 43.411 42.3129 44.1591 41.7978 45.0555C41.2826 45.9519 41.0078 46.9661 41 48C41 48.2652 40.8946 48.5196 40.7071 48.7071C40.5196 48.8946 40.2652 49 40 49H36C35.7348 49 35.4804 48.8946 35.2929 48.7071C35.1054 48.5196 35 48.2652 35 48V18C35 17.7348 35.1054 17.4804 35.2929 17.2929C35.4804 17.1054 35.7348 17 36 17H52.53C53.4578 17 54.3673 17.2582 55.1567 17.7456C55.9461 18.2331 56.5844 18.9305 57 19.76L62.89 31.55C62.9614 31.6893 62.9991 31.8435 63 32V48C63 48.2652 62.8946 48.5196 62.7071 48.7071C62.5196 48.8946 62.2652 49 62 49Z" fill="#333333"/>
<path d="M46.9997 55.9999C45.7773 56.005 44.5701 55.7298 43.4707 55.1957C42.3713 54.6615 41.4089 53.8825 40.6574 52.9185C39.9059 51.9545 39.3853 50.8311 39.1356 49.6345C38.8858 48.438 38.9136 47.2001 39.2167 46.016C39.5199 44.8318 40.0903 43.7329 40.8843 42.8036C41.6782 41.8742 42.6746 41.1392 43.7969 40.6548C44.9192 40.1705 46.1375 39.9498 47.3583 40.0096C48.5792 40.0694 49.7701 40.4082 50.8397 40.9999C51.073 41.1325 51.2442 41.3524 51.3155 41.6112C51.3867 41.87 51.3523 42.1465 51.2197 42.3799C51.0871 42.6133 50.8672 42.7845 50.6084 42.8557C50.3496 42.927 50.073 42.8925 49.8397 42.7599C48.5729 42.0681 47.0991 41.8561 45.6887 42.1629C44.2783 42.4696 43.0257 43.2745 42.1607 44.43C41.2956 45.5854 40.8761 47.014 40.9791 48.4537C41.082 49.8934 41.7005 51.2478 42.7211 52.2684C43.7418 53.2891 45.0961 53.9076 46.5359 54.0105C47.9756 54.1135 49.4042 53.694 50.5596 52.8289C51.7151 51.9639 52.52 50.7113 52.8267 49.3009C53.1335 47.8905 52.9215 46.4167 52.2297 45.1499C52.0997 44.9152 52.0683 44.6385 52.1424 44.3806C52.2165 44.1228 52.3899 43.9049 52.6247 43.7749C52.8594 43.645 53.1361 43.6136 53.394 43.6877C53.6518 43.7617 53.8697 43.9352 53.9997 44.1699C54.6631 45.3866 54.9991 46.7547 54.9748 48.1402C54.9505 49.5258 54.5667 50.8813 53.861 52.0739C53.1553 53.2665 52.152 54.2554 50.9492 54.9436C49.7464 55.6319 48.3854 55.9958 46.9997 55.9999Z" fill="#333333"/>
<path d="M47 52C46.2089 52 45.4355 51.7654 44.7777 51.3259C44.1199 50.8864 43.6072 50.2616 43.3045 49.5307C43.0017 48.7998 42.9225 47.9956 43.0769 47.2196C43.2312 46.4437 43.6122 45.731 44.1716 45.1716C44.731 44.6122 45.4437 44.2312 46.2196 44.0769C46.9956 43.9225 47.7998 44.0017 48.5307 44.3045C49.2616 44.6072 49.8864 45.1199 50.3259 45.7777C50.7654 46.4355 51 47.2089 51 48C51 49.0609 50.5786 50.0783 49.8284 50.8284C49.0783 51.5786 48.0609 52 47 52ZM47 46C46.6044 46 46.2178 46.1173 45.8889 46.3371C45.56 46.5568 45.3036 46.8692 45.1522 47.2346C45.0009 47.6001 44.9613 48.0022 45.0384 48.3902C45.1156 48.7781 45.3061 49.1345 45.5858 49.4142C45.8655 49.6939 46.2219 49.8844 46.6098 49.9616C46.9978 50.0387 47.3999 49.9991 47.7654 49.8478C48.1308 49.6964 48.4432 49.44 48.6629 49.1111C48.8827 48.7822 49 48.3956 49 48C49 47.4696 48.7893 46.9609 48.4142 46.5858C48.0391 46.2107 47.5304 46 47 46Z" fill="#333333"/>
<path d="M14 56C12.4178 56 10.871 55.5308 9.55544 54.6518C8.23985 53.7727 7.21447 52.5233 6.60897 51.0615C6.00347 49.5997 5.84504 47.9911 6.15372 46.4393C6.4624 44.8874 7.22433 43.462 8.34315 42.3432C9.46197 41.2243 10.8874 40.4624 12.4393 40.1537C13.9911 39.845 15.5997 40.0035 17.0615 40.609C18.5233 41.2145 19.7727 42.2399 20.6518 43.5554C21.5308 44.871 22 46.4178 22 48C22 50.1217 21.1571 52.1566 19.6569 53.6569C18.1566 55.1571 16.1217 56 14 56ZM14 42C12.8133 42 11.6533 42.3519 10.6666 43.0112C9.67989 43.6705 8.91085 44.6075 8.45673 45.7039C8.0026 46.8003 7.88378 48.0067 8.11529 49.1705C8.3468 50.3344 8.91825 51.4035 9.75736 52.2426C10.5965 53.0818 11.6656 53.6532 12.8295 53.8847C13.9933 54.1162 15.1997 53.9974 16.2961 53.5433C17.3925 53.0892 18.3295 52.3201 18.9888 51.3334C19.6481 50.3467 20 49.1867 20 48C20 46.4087 19.3679 44.8826 18.2426 43.7574C17.1174 42.6321 15.5913 42 14 42Z" fill="#333333"/>
<path d="M14 52C13.2089 52 12.4355 51.7654 11.7777 51.3259C11.1199 50.8864 10.6072 50.2616 10.3045 49.5307C10.0017 48.7998 9.92252 47.9956 10.0769 47.2196C10.2312 46.4437 10.6122 45.731 11.1716 45.1716C11.731 44.6122 12.4437 44.2312 13.2196 44.0769C13.9956 43.9225 14.7998 44.0017 15.5307 44.3045C16.2616 44.6072 16.8864 45.1199 17.3259 45.7777C17.7654 46.4355 18 47.2089 18 48C18 49.0609 17.5786 50.0783 16.8284 50.8284C16.0783 51.5786 15.0609 52 14 52ZM14 46C13.6044 46 13.2178 46.1173 12.8889 46.3371C12.56 46.5568 12.3036 46.8692 12.1522 47.2346C12.0009 47.6001 11.9613 48.0022 12.0384 48.3902C12.1156 48.7781 12.3061 49.1345 12.5858 49.4142C12.8655 49.6939 13.2219 49.8844 13.6098 49.9616C13.9978 50.0387 14.3999 49.9991 14.7654 49.8478C15.1308 49.6964 15.4432 49.44 15.6629 49.1111C15.8827 48.7822 16 48.3956 16 48C16 47.4696 15.7893 46.9609 15.4142 46.5858C15.0391 46.2107 14.5304 46 14 46Z" fill="#333333"/>
<path d="M62 33H42C41.7348 33 41.4804 32.8946 41.2929 32.7071C41.1054 32.5196 41 32.2652 41 32V22C41 21.7348 41.1054 21.4804 41.2929 21.2929C41.4804 21.1054 41.7348 21 42 21H45C45.2652 21 45.5196 21.1054 45.7071 21.2929C45.8946 21.4804 46 21.7348 46 22C46 22.2652 45.8946 22.5196 45.7071 22.7071C45.5196 22.8946 45.2652 23 45 23H43V31H60.38L56.38 23H49C48.7348 23 48.4804 22.8946 48.2929 22.7071C48.1054 22.5196 48 22.2652 48 22C48 21.7348 48.1054 21.4804 48.2929 21.2929C48.4804 21.1054 48.7348 21 49 21H57C57.1847 21.0006 57.3656 21.0522 57.5227 21.1493C57.6798 21.2464 57.8069 21.3851 57.89 21.55L62.89 31.55C62.9667 31.7022 63.0032 31.8715 62.9961 32.0419C62.989 32.2122 62.9384 32.3778 62.8492 32.5231C62.7601 32.6684 62.6352 32.7885 62.4866 32.8719C62.338 32.9554 62.1705 32.9995 62 33Z" fill="#333333"/>
<path d="M62 44H61C59.9391 44 58.9217 43.5786 58.1716 42.8284C57.4214 42.0783 57 41.0609 57 40C57 38.9391 57.4214 37.9217 58.1716 37.1716C58.9217 36.4214 59.9391 36 61 36H62C62.2652 36 62.5196 36.1054 62.7071 36.2929C62.8946 36.4804 63 36.7348 63 37V43C63 43.2652 62.8946 43.5196 62.7071 43.7071C62.5196 43.8946 62.2652 44 62 44ZM61 38C60.4696 38 59.9609 38.2107 59.5858 38.5858C59.2107 38.9609 59 39.4696 59 40C59 40.5304 59.2107 41.0391 59.5858 41.4142C59.9609 41.7893 60.4696 42 61 42V38Z" fill="#333333"/>
<path d="M36 49H32C31.7348 49 31.4804 48.8946 31.2929 48.7071C31.1054 48.5196 31 48.2652 31 48C31 47.7348 31.1054 47.4804 31.2929 47.2929C31.4804 47.1054 31.7348 47 32 47H35V38H12C11.7348 38 11.4804 37.8946 11.2929 37.7071C11.1054 37.5196 11 37.2652 11 37C11 36.7348 11.1054 36.4804 11.2929 36.2929C11.4804 36.1054 11.7348 36 12 36H36C36.2652 36 36.5196 36.1054 36.7071 36.2929C36.8946 36.4804 37 36.7348 37 37V48C37 48.2652 36.8946 48.5196 36.7071 48.7071C36.5196 48.8946 36.2652 49 36 49Z" fill="#333333"/>
<path d="M23 49H21C20.7348 49 20.4804 48.8946 20.2929 48.7071C20.1054 48.5196 20 48.2652 20 48C20 46.4087 19.3679 44.8826 18.2426 43.7574C17.1174 42.6321 15.5913 42 14 42C12.4087 42 10.8826 42.6321 9.75736 43.7574C8.63214 44.8826 8 46.4087 8 48C8 48.2652 7.89464 48.5196 7.70711 48.7071C7.51957 48.8946 7.26522 49 7 49H2C1.73478 49 1.48043 48.8946 1.29289 48.7071C1.10536 48.5196 1 48.2652 1 48V37C1 36.7348 1.10536 36.4804 1.29289 36.2929C1.48043 36.1054 1.73478 36 2 36H8C8.26522 36 8.51957 36.1054 8.70711 36.2929C8.89464 36.4804 9 36.7348 9 37C9 37.2652 8.89464 37.5196 8.70711 37.7071C8.51957 37.8946 8.26522 38 8 38H3V47H6.06C6.29867 45.0623 7.23769 43.2787 8.70017 41.9853C10.1627 40.6919 12.0476 39.978 14 39.978C15.9524 39.978 17.8373 40.6919 19.2998 41.9853C20.7623 43.2787 21.7013 45.0623 21.94 47H23C23.2652 47 23.5196 47.1054 23.7071 47.2929C23.8946 47.4804 24 47.7348 24 48C24 48.2652 23.8946 48.5196 23.7071 48.7071C23.5196 48.8946 23.2652 49 23 49Z" fill="#333333"/>
<path d="M28 49H27C26.7348 49 26.4804 48.8946 26.2929 48.7071C26.1054 48.5196 26 48.2652 26 48C26 47.7348 26.1054 47.4804 26.2929 47.2929C26.4804 47.1054 26.7348 47 27 47H28C28.2652 47 28.5196 47.1054 28.7071 47.2929C28.8946 47.4804 29 47.7348 29 48C29 48.2652 28.8946 48.5196 28.7071 48.7071C28.5196 48.8946 28.2652 49 28 49Z" fill="#333333"/>
<path d="M36 38H20C19.7348 38 19.4804 37.8946 19.2929 37.7071C19.1054 37.5196 19 37.2652 19 37V23C19 22.7348 19.1054 22.4804 19.2929 22.2929C19.4804 22.1054 19.7348 22 20 22H36C36.2652 22 36.5196 22.1054 36.7071 22.2929C36.8946 22.4804 37 22.7348 37 23V37C37 37.2652 36.8946 37.5196 36.7071 37.7071C36.5196 37.8946 36.2652 38 36 38ZM21 36H35V24H21V36Z" fill="#333333"/>
<path d="M36 24H20C19.7348 24 19.4804 23.8946 19.2929 23.7071C19.1054 23.5196 19 23.2652 19 23V18C19 17.7348 19.1054 17.4804 19.2929 17.2929C19.4804 17.1054 19.7348 17 20 17C20.2652 17 20.5196 17.1054 20.7071 17.2929C20.8946 17.4804 21 17.7348 21 18V22H35V10H21V14C21 14.2652 20.8946 14.5196 20.7071 14.7071C20.5196 14.8946 20.2652 15 20 15C19.7348 15 19.4804 14.8946 19.2929 14.7071C19.1054 14.5196 19 14.2652 19 14V9C19 8.73478 19.1054 8.48043 19.2929 8.29289C19.4804 8.10536 19.7348 8 20 8H36C36.2652 8 36.5196 8.10536 36.7071 8.29289C36.8946 8.48043 37 8.73478 37 9V23C37 23.2652 36.8946 23.5196 36.7071 23.7071C36.5196 23.8946 36.2652 24 36 24Z" fill="#333333"/>
<path d="M20 38H12C11.7348 38 11.4804 37.8946 11.2929 37.7071C11.1054 37.5196 11 37.2652 11 37C11 36.7348 11.1054 36.4804 11.2929 36.2929C11.4804 36.1054 11.7348 36 12 36H19V24H5V36H8C8.26522 36 8.51957 36.1054 8.70711 36.2929C8.89464 36.4804 9 36.7348 9 37C9 37.2652 8.89464 37.5196 8.70711 37.7071C8.51957 37.8946 8.26522 38 8 38H4C3.73478 38 3.48043 37.8946 3.29289 37.7071C3.10536 37.5196 3 37.2652 3 37V23C3 22.7348 3.10536 22.4804 3.29289 22.2929C3.48043 22.1054 3.73478 22 4 22H20C20.2652 22 20.5196 22.1054 20.7071 22.2929C20.8946 22.4804 21 22.7348 21 23V37C21 37.2652 20.8946 37.5196 20.7071 37.7071C20.5196 37.8946 20.2652 38 20 38Z" fill="#333333"/>
<path d="M30 15H26C25.7348 15 25.4804 14.8946 25.2929 14.7071C25.1054 14.5196 25 14.2652 25 14V9C25 8.73478 25.1054 8.48043 25.2929 8.29289C25.4804 8.10536 25.7348 8 26 8H30C30.2652 8 30.5196 8.10536 30.7071 8.29289C30.8946 8.48043 31 8.73478 31 9V14C31 14.2652 30.8946 14.5196 30.7071 14.7071C30.5196 14.8946 30.2652 15 30 15ZM27 13H29V10H27V13Z" fill="#333333"/>
<path d="M30 29H26C25.7348 29 25.4804 28.8946 25.2929 28.7071C25.1054 28.5196 25 28.2652 25 28V23C25 22.7348 25.1054 22.4804 25.2929 22.2929C25.4804 22.1054 25.7348 22 26 22H30C30.2652 22 30.5196 22.1054 30.7071 22.2929C30.8946 22.4804 31 22.7348 31 23V28C31 28.2652 30.8946 28.5196 30.7071 28.7071C30.5196 28.8946 30.2652 29 30 29ZM27 27H29V24H27V27Z" fill="#333333"/>
<path d="M14 29H10C9.73478 29 9.48043 28.8946 9.29289 28.7071C9.10536 28.5196 9 28.2652 9 28V23C9 22.7348 9.10536 22.4804 9.29289 22.2929C9.48043 22.1054 9.73478 22 10 22H14C14.2652 22 14.5196 22.1054 14.7071 22.2929C14.8946 22.4804 15 22.7348 15 23V28C15 28.2652 14.8946 28.5196 14.7071 28.7071C14.5196 28.8946 14.2652 29 14 29ZM11 27H13V24H11V27Z" fill="#333333"/>
<path d="M44 37H42C41.7348 37 41.4804 36.8946 41.2929 36.7071C41.1054 36.5196 41 36.2652 41 36C41 35.7348 41.1054 35.4804 41.2929 35.2929C41.4804 35.1054 41.7348 35 42 35H44C44.2652 35 44.5196 35.1054 44.7071 35.2929C44.8946 35.4804 45 35.7348 45 36C45 36.2652 44.8946 36.5196 44.7071 36.7071C44.5196 36.8946 44.2652 37 44 37Z" fill="#333333"/>
</svg>
