<svg width="64" height="64" viewBox="0 0 64 64" fill="none" xmlns="http://www.w3.org/2000/svg">
<path d="M59 59H5V20L32 5L59 20V59Z" fill="#EA5B21"/>
<path d="M52 25H12V59H52V25Z" fill="#9E9E9E"/>
<path d="M52 25H12V30H52V25Z" fill="#FFD8C8"/>
<path d="M52 30H12V35H52V30Z" fill="#FFD8C8"/>
<path d="M41 16H23V20H41V16Z" fill="#9E9E9E"/>
<path d="M52 39H40V49H52V39Z" fill="#D3D2D1"/>
<path d="M40 49H28V59H40V49Z" fill="#D3D2D1"/>
<path d="M52 49H40V59H52V49Z" fill="#D3D2D1"/>
<path d="M35 49V51C35 51.2652 34.8946 51.5196 34.7071 51.7071C34.5196 51.8946 34.2652 52 34 52C33.7348 52 33.4804 51.8946 33.2929 51.7071C33.1054 51.5196 33 51.2652 33 51V49H35Z" fill="#333333"/>
<path d="M47 49V51C47 51.2652 46.8946 51.5196 46.7071 51.7071C46.5196 51.8946 46.2652 52 46 52C45.7348 52 45.4804 51.8946 45.2929 51.7071C45.1054 51.5196 45 51.2652 45 51V49H47Z" fill="#333333"/>
<path d="M47 39V41C47 41.2652 46.8946 41.5196 46.7071 41.7071C46.5196 41.8946 46.2652 42 46 42C45.7348 42 45.4804 41.8946 45.2929 41.7071C45.1054 41.5196 45 41.2652 45 41V39H47Z" fill="#333333"/>
<path d="M59 60H5C4.73478 60 4.48043 59.8946 4.29289 59.7071C4.10536 59.5196 4 59.2652 4 59V33C4 32.7348 4.10536 32.4804 4.29289 32.2929C4.48043 32.1054 4.73478 32 5 32C5.26522 32 5.51957 32.1054 5.70711 32.2929C5.89464 32.4804 6 32.7348 6 33V58H58V50C58 49.7348 58.1054 49.4804 58.2929 49.2929C58.4804 49.1054 58.7348 49 59 49C59.2652 49 59.5196 49.1054 59.7071 49.2929C59.8946 49.4804 60 49.7348 60 50V59C60 59.2652 59.8946 59.5196 59.7071 59.7071C59.5196 59.8946 59.2652 60 59 60Z" fill="#333333"/>
<path d="M59 47.0001C58.7348 47.0001 58.4804 46.8947 58.2929 46.7072C58.1054 46.5196 58 46.2653 58 46.0001V20.5901L32 6.14007L6 20.5901V24.0001C6 24.2653 5.89464 24.5196 5.70711 24.7072C5.51957 24.8947 5.26522 25.0001 5 25.0001C4.73478 25.0001 4.48043 24.8947 4.29289 24.7072C4.10536 24.5196 4 24.2653 4 24.0001V20.0001C4.00031 19.8229 4.04769 19.6489 4.1373 19.4961C4.22691 19.3432 4.35553 19.2169 4.51 19.1301L31.51 4.13007C31.662 4.0423 31.8345 3.99609 32.01 3.99609C32.1855 3.99609 32.358 4.0423 32.51 4.13007L59.51 19.1301C59.6607 19.2194 59.7854 19.3468 59.8714 19.4995C59.9574 19.6522 60.0017 19.8248 60 20.0001V46.0001C60 46.2653 59.8946 46.5196 59.7071 46.7072C59.5196 46.8947 59.2652 47.0001 59 47.0001Z" fill="#333333"/>
<path d="M5 30C4.73478 30 4.48043 29.8946 4.29289 29.7071C4.10536 29.5196 4 29.2652 4 29V28C4 27.7348 4.10536 27.4804 4.29289 27.2929C4.48043 27.1054 4.73478 27 5 27C5.26522 27 5.51957 27.1054 5.70711 27.2929C5.89464 27.4804 6 27.7348 6 28V29C6 29.2652 5.89464 29.5196 5.70711 29.7071C5.51957 29.8946 5.26522 30 5 30Z" fill="#333333"/>
<path d="M52 60H12C11.7348 60 11.4804 59.8946 11.2929 59.7071C11.1054 59.5196 11 59.2652 11 59V53C11 52.7348 11.1054 52.4804 11.2929 52.2929C11.4804 52.1054 11.7348 52 12 52C12.2652 52 12.5196 52.1054 12.7071 52.2929C12.8946 52.4804 13 52.7348 13 53V58H51V26H13V49C13 49.2652 12.8946 49.5196 12.7071 49.7071C12.5196 49.8946 12.2652 50 12 50C11.7348 50 11.4804 49.8946 11.2929 49.7071C11.1054 49.5196 11 49.2652 11 49V25C11 24.7348 11.1054 24.4804 11.2929 24.2929C11.4804 24.1054 11.7348 24 12 24H52C52.2652 24 52.5196 24.1054 52.7071 24.2929C52.8946 24.4804 53 24.7348 53 25V59C53 59.2652 52.8946 59.5196 52.7071 59.7071C52.5196 59.8946 52.2652 60 52 60Z" fill="#333333"/>
<path d="M52 31H46C45.7348 31 45.4804 30.8946 45.2929 30.7071C45.1054 30.5196 45 30.2652 45 30C45 29.7348 45.1054 29.4804 45.2929 29.2929C45.4804 29.1054 45.7348 29 46 29H51V26H13V29H42C42.2652 29 42.5196 29.1054 42.7071 29.2929C42.8946 29.4804 43 29.7348 43 30C43 30.2652 42.8946 30.5196 42.7071 30.7071C42.5196 30.8946 42.2652 31 42 31H12C11.7348 31 11.4804 30.8946 11.2929 30.7071C11.1054 30.5196 11 30.2652 11 30V25C11 24.7348 11.1054 24.4804 11.2929 24.2929C11.4804 24.1054 11.7348 24 12 24H52C52.2652 24 52.5196 24.1054 52.7071 24.2929C52.8946 24.4804 53 24.7348 53 25V30C53 30.2652 52.8946 30.5196 52.7071 30.7071C52.5196 30.8946 52.2652 31 52 31Z" fill="#333333"/>
<path d="M52 36H12C11.7348 36 11.4804 35.8946 11.2929 35.7071C11.1054 35.5196 11 35.2652 11 35V30C11 29.7348 11.1054 29.4804 11.2929 29.2929C11.4804 29.1054 11.7348 29 12 29H42C42.2652 29 42.5196 29.1054 42.7071 29.2929C42.8946 29.4804 43 29.7348 43 30C43 30.2652 42.8946 30.5196 42.7071 30.7071C42.5196 30.8946 42.2652 31 42 31H13V34H51V31H46C45.7348 31 45.4804 30.8946 45.2929 30.7071C45.1054 30.5196 45 30.2652 45 30C45 29.7348 45.1054 29.4804 45.2929 29.2929C45.4804 29.1054 45.7348 29 46 29H52C52.2652 29 52.5196 29.1054 52.7071 29.2929C52.8946 29.4804 53 29.7348 53 30V35C53 35.2652 52.8946 35.5196 52.7071 35.7071C52.5196 35.8946 52.2652 36 52 36Z" fill="#333333"/>
<path d="M41 21H23C22.7348 21 22.4804 20.8946 22.2929 20.7071C22.1054 20.5196 22 20.2652 22 20V16C22 15.7348 22.1054 15.4804 22.2929 15.2929C22.4804 15.1054 22.7348 15 23 15H26C26.2652 15 26.5196 15.1054 26.7071 15.2929C26.8946 15.4804 27 15.7348 27 16C27 16.2652 26.8946 16.5196 26.7071 16.7071C26.5196 16.8946 26.2652 17 26 17H24V19H40V17H30C29.7348 17 29.4804 16.8946 29.2929 16.7071C29.1054 16.5196 29 16.2652 29 16C29 15.7348 29.1054 15.4804 29.2929 15.2929C29.4804 15.1054 29.7348 15 30 15H41C41.2652 15 41.5196 15.1054 41.7071 15.2929C41.8946 15.4804 42 15.7348 42 16V20C42 20.2652 41.8946 20.5196 41.7071 20.7071C41.5196 20.8946 41.2652 21 41 21Z" fill="#333333"/>
<path d="M52 50H40C39.7348 50 39.4804 49.8946 39.2929 49.7071C39.1054 49.5196 39 49.2652 39 49V39C39 38.7348 39.1054 38.4804 39.2929 38.2929C39.4804 38.1054 39.7348 38 40 38H52C52.2652 38 52.5196 38.1054 52.7071 38.2929C52.8946 38.4804 53 38.7348 53 39V49C53 49.2652 52.8946 49.5196 52.7071 49.7071C52.5196 49.8946 52.2652 50 52 50ZM41 48H51V40H41V48Z" fill="#333333"/>
<path d="M40 60H28C27.7348 60 27.4804 59.8946 27.2929 59.7071C27.1054 59.5196 27 59.2652 27 59V49C27 48.7348 27.1054 48.4804 27.2929 48.2929C27.4804 48.1054 27.7348 48 28 48H40C40.2652 48 40.5196 48.1054 40.7071 48.2929C40.8946 48.4804 41 48.7348 41 49V59C41 59.2652 40.8946 59.5196 40.7071 59.7071C40.5196 59.8946 40.2652 60 40 60ZM29 58H39V50H29V58Z" fill="#333333"/>
<path d="M52 60H40C39.7348 60 39.4804 59.8946 39.2929 59.7071C39.1054 59.5196 39 59.2652 39 59V49C39 48.7348 39.1054 48.4804 39.2929 48.2929C39.4804 48.1054 39.7348 48 40 48H52C52.2652 48 52.5196 48.1054 52.7071 48.2929C52.8946 48.4804 53 48.7348 53 49V59C53 59.2652 52.8946 59.5196 52.7071 59.7071C52.5196 59.8946 52.2652 60 52 60ZM41 58H51V50H41V58Z" fill="#333333"/>
<path d="M5 30C4.73478 30 4.48043 29.8946 4.29289 29.7071C4.10536 29.5196 4 29.2652 4 29V28C4 27.7348 4.10536 27.4804 4.29289 27.2929C4.48043 27.1054 4.73478 27 5 27C5.26522 27 5.51957 27.1054 5.70711 27.2929C5.89464 27.4804 6 27.7348 6 28V29C6 29.2652 5.89464 29.5196 5.70711 29.7071C5.51957 29.8946 5.26522 30 5 30Z" fill="#333333"/>
<path d="M52 60H12C11.7348 60 11.4804 59.8946 11.2929 59.7071C11.1054 59.5196 11 59.2652 11 59V53C11 52.7348 11.1054 52.4804 11.2929 52.2929C11.4804 52.1054 11.7348 52 12 52C12.2652 52 12.5196 52.1054 12.7071 52.2929C12.8946 52.4804 13 52.7348 13 53V58H51V26H13V49C13 49.2652 12.8946 49.5196 12.7071 49.7071C12.5196 49.8946 12.2652 50 12 50C11.7348 50 11.4804 49.8946 11.2929 49.7071C11.1054 49.5196 11 49.2652 11 49V25C11 24.7348 11.1054 24.4804 11.2929 24.2929C11.4804 24.1054 11.7348 24 12 24H52C52.2652 24 52.5196 24.1054 52.7071 24.2929C52.8946 24.4804 53 24.7348 53 25V59C53 59.2652 52.8946 59.5196 52.7071 59.7071C52.5196 59.8946 52.2652 60 52 60Z" fill="#333333"/>
</svg>
