<svg width="15" height="15" viewBox="0 0 15 15" fill="none" xmlns="http://www.w3.org/2000/svg">
<path fill-rule="evenodd" clip-rule="evenodd" d="M13.3359 7.33203C13.3359 4.01832 10.6496 1.33203 7.33594 1.33203C4.02223 1.33203 1.33594 4.01832 1.33594 7.33203C1.33594 10.6457 4.02223 13.332 7.33594 13.332C10.6496 13.332 13.3359 10.6457 13.3359 7.33203ZM0 7.33333C0 3.28324 3.28324 0 7.33333 0C11.3834 0 14.6667 3.28324 14.6667 7.33333C14.6667 11.3834 11.3834 14.6667 7.33333 14.6667C3.28324 14.6667 0 11.3834 0 7.33333ZM6.66667 7.33464V10.668H8V6.0013H5.33333V7.33464H6.66667ZM8 5.33594V4.0026H6.66667V5.33594H8Z" fill="#EA5B21"/>
</svg>
