<svg width="16" height="16" viewBox="0 0 16 16" fill="none" xmlns="http://www.w3.org/2000/svg">
<path fill-rule="evenodd" clip-rule="evenodd" d="M7.3334 10.9442L4.19531 7.80614L5.13813 6.86333L7.3334 9.05859L11.3334 5.05859V6.94421L7.3334 10.9442ZM14 8C14 4.68629 11.3137 2 8 2C4.68629 2 2 4.68629 2 8C2 11.3137 4.68629 14 8 14C11.3137 14 14 11.3137 14 8ZM0.667969 8.00128C0.667969 3.9512 3.95121 0.667969 8.0013 0.667969C12.0514 0.667969 15.3346 3.9512 15.3346 8.00128C15.3346 12.0513 12.0514 15.3346 8.0013 15.3346C3.95121 15.3346 0.667969 12.0513 0.667969 8.00128Z" fill="#06C270"/>
</svg>
