<svg width="91" height="31" viewBox="0 0 91 31" fill="none" xmlns="http://www.w3.org/2000/svg">
<path d="M7 24.7734H0L7 30.7734V24.7734Z" fill="#C00000"/>
<g filter="url(#filter0_ii_4365_54077)">
<g clip-path="url(#clip0_4365_54077)">
<rect width="91" height="24.8182" fill="#EA5B21"/>
<g style="mix-blend-mode:overlay" opacity="0.2">
<path d="M-1.03516 24.8184H89.9648V19.7772L44.4648 14.736L-1.03516 3.6195V24.8184Z" fill="white"/>
</g>
</g>
</g>
<g filter="url(#filter1_d_4365_54077)">
<path d="M10.4946 16.5141L8.58362 13.1448H7.76462V16.5141H6.02734V7.86791H9.27853C9.94862 7.86791 10.5194 7.98766 10.991 8.22714C11.4625 8.45837 11.8141 8.7763 12.0458 9.18095C12.2857 9.57733 12.4056 10.0233 12.4056 10.5188C12.4056 11.0886 12.2402 11.6047 11.9093 12.0671C11.5783 12.5213 11.0861 12.8351 10.4326 13.0086L12.5049 16.5141H10.4946ZM7.76462 11.8442H9.21648C9.68803 11.8442 10.0396 11.7327 10.2713 11.5097C10.5029 11.2785 10.6187 10.9606 10.6187 10.5559C10.6187 10.1595 10.5029 9.85398 10.2713 9.63927C10.0396 9.4163 9.68803 9.30482 9.21648 9.30482H7.76462V11.8442Z" fill="white"/>
<path d="M20.3676 12.9342C20.3676 13.182 20.3511 13.4049 20.318 13.6031H15.2923C15.3336 14.0986 15.5074 14.4868 15.8135 14.7675C16.1196 15.0483 16.496 15.1887 16.9427 15.1887C17.588 15.1887 18.0471 14.912 18.3201 14.3588H20.1939C19.9953 15.0194 19.6148 15.5644 19.0522 15.9938C18.4897 16.415 17.7989 16.6256 16.9799 16.6256C16.3181 16.6256 15.7225 16.4811 15.193 16.192C14.6718 15.8948 14.2623 15.4777 13.9645 14.9409C13.675 14.4042 13.5302 13.7848 13.5302 13.0829C13.5302 12.3727 13.675 11.7492 13.9645 11.2124C14.2541 10.6757 14.6594 10.2628 15.1806 9.97372C15.7018 9.68469 16.3016 9.54017 16.9799 9.54017C17.6335 9.54017 18.2167 9.68056 18.7296 9.96133C19.2508 10.2421 19.652 10.6426 19.9333 11.1629C20.2228 11.6749 20.3676 12.2653 20.3676 12.9342ZM18.5683 12.4388C18.56 11.9928 18.3987 11.6377 18.0843 11.3735C17.77 11.1009 17.3853 10.9647 16.9303 10.9647C16.5001 10.9647 16.1361 11.0968 15.8383 11.3611C15.5487 11.6171 15.3709 11.9763 15.3047 12.4388H18.5683Z" fill="white"/>
<path d="M21.1889 13.0829C21.1889 12.3727 21.3337 11.7533 21.6232 11.2248C21.9128 10.688 22.314 10.2751 22.8269 9.98611C23.3398 9.68882 23.9272 9.54017 24.589 9.54017C25.4411 9.54017 26.1443 9.75488 26.6986 10.1843C27.2611 10.6055 27.6375 11.2 27.8278 11.968H25.954C25.8547 11.6708 25.6852 11.4395 25.4452 11.2744C25.2136 11.1009 24.9241 11.0142 24.5766 11.0142C24.0802 11.0142 23.6873 11.1959 23.3977 11.5593C23.1082 11.9144 22.9634 12.4222 22.9634 13.0829C22.9634 13.7353 23.1082 14.2431 23.3977 14.6065C23.6873 14.9616 24.0802 15.1391 24.5766 15.1391C25.2798 15.1391 25.7389 14.8253 25.954 14.1977H27.8278C27.6375 14.9409 27.2611 15.5314 26.6986 15.9691C26.136 16.4068 25.4328 16.6256 24.589 16.6256C23.9272 16.6256 23.3398 16.4811 22.8269 16.192C22.314 15.8948 21.9128 15.4818 21.6232 14.9533C21.3337 14.4166 21.1889 13.7931 21.1889 13.0829Z" fill="white"/>
<path d="M32.1531 16.6256C31.4913 16.6256 30.8957 16.4811 30.3662 16.192C29.8368 15.8948 29.419 15.4777 29.1129 14.9409C28.8151 14.4042 28.6662 13.7848 28.6662 13.0829C28.6662 12.3809 28.8192 11.7616 29.1253 11.2248C29.4397 10.688 29.8657 10.2751 30.4035 9.98611C30.9412 9.68882 31.541 9.54017 32.2028 9.54017C32.8646 9.54017 33.4644 9.68882 34.0021 9.98611C34.5398 10.2751 34.9617 10.688 35.2678 11.2248C35.5822 11.7616 35.7394 12.3809 35.7394 13.0829C35.7394 13.7848 35.578 14.4042 35.2554 14.9409C34.941 15.4777 34.5109 15.8948 33.9649 16.192C33.4271 16.4811 32.8232 16.6256 32.1531 16.6256ZM32.1531 15.1144C32.4675 15.1144 32.7612 15.04 33.0342 14.8914C33.3155 14.7345 33.5388 14.5033 33.7043 14.1977C33.8697 13.8922 33.9525 13.5206 33.9525 13.0829C33.9525 12.4305 33.7787 11.9309 33.4313 11.584C33.0921 11.2289 32.6743 11.0514 32.178 11.0514C31.6816 11.0514 31.2638 11.2289 30.9246 11.584C30.5937 11.9309 30.4283 12.4305 30.4283 13.0829C30.4283 13.7353 30.5896 14.239 30.9122 14.5941C31.2431 14.9409 31.6568 15.1144 32.1531 15.1144Z" fill="white"/>
<path d="M45.5512 9.55256C46.395 9.55256 47.0734 9.81269 47.5863 10.3329C48.1074 10.8449 48.368 11.5634 48.368 12.4883V16.5141H46.6308V12.7237C46.6308 12.1869 46.4943 11.7781 46.2213 11.4973C45.9483 11.2083 45.576 11.0638 45.1044 11.0638C44.6329 11.0638 44.2565 11.2083 43.9752 11.4973C43.7022 11.7781 43.5657 12.1869 43.5657 12.7237V16.5141H41.8284V12.7237C41.8284 12.1869 41.6919 11.7781 41.4189 11.4973C41.1459 11.2083 40.7737 11.0638 40.3021 11.0638C39.8223 11.0638 39.4418 11.2083 39.1605 11.4973C38.8875 11.7781 38.751 12.1869 38.751 12.7237V16.5141H37.0137V9.65166H38.751V10.4816C38.9744 10.1926 39.2598 9.96546 39.6072 9.8003C39.9629 9.63514 40.3518 9.55256 40.7737 9.55256C41.3114 9.55256 41.7912 9.66817 42.2131 9.8994C42.635 10.1224 42.9618 10.4444 43.1934 10.8656C43.4168 10.4692 43.7394 10.1513 44.1614 9.91178C44.5915 9.6723 45.0548 9.55256 45.5512 9.55256Z" fill="white"/>
<path d="M58.5541 9.55256C59.3979 9.55256 60.0762 9.81269 60.5891 10.3329C61.1103 10.8449 61.3709 11.5634 61.3709 12.4883V16.5141H59.6336V12.7237C59.6336 12.1869 59.4972 11.7781 59.2241 11.4973C58.9511 11.2083 58.5789 11.0638 58.1073 11.0638C57.6358 11.0638 57.2594 11.2083 56.9781 11.4973C56.7051 11.7781 56.5686 12.1869 56.5686 12.7237V16.5141H54.8313V12.7237C54.8313 12.1869 54.6948 11.7781 54.4218 11.4973C54.1488 11.2083 53.7766 11.0638 53.305 11.0638C52.8252 11.0638 52.4446 11.2083 52.1634 11.4973C51.8904 11.7781 51.7539 12.1869 51.7539 12.7237V16.5141H50.0166V9.65166H51.7539V10.4816C51.9772 10.1926 52.2626 9.96546 52.6101 9.8003C52.9658 9.63514 53.3546 9.55256 53.7766 9.55256C54.3143 9.55256 54.7941 9.66817 55.216 9.8994C55.6379 10.1224 55.9647 10.4444 56.1963 10.8656C56.4197 10.4692 56.7423 10.1513 57.1642 9.91178C57.5944 9.6723 58.0577 9.55256 58.5541 9.55256Z" fill="white"/>
<path d="M69.4102 12.9342C69.4102 13.182 69.3936 13.4049 69.3605 13.6031H64.3348C64.3762 14.0986 64.5499 14.4868 64.856 14.7675C65.1621 15.0483 65.5385 15.1887 65.9853 15.1887C66.6305 15.1887 67.0897 14.912 67.3627 14.3588H69.2364C69.0379 15.0194 68.6573 15.5644 68.0948 15.9938C67.5323 16.415 66.8415 16.6256 66.0225 16.6256C65.3607 16.6256 64.765 16.4811 64.2356 16.192C63.7144 15.8948 63.3049 15.4777 63.0071 14.9409C62.7175 14.4042 62.5728 13.7848 62.5728 13.0829C62.5728 12.3727 62.7175 11.7492 63.0071 11.2124C63.2966 10.6757 63.702 10.2628 64.2232 9.97372C64.7444 9.68469 65.3441 9.54017 66.0225 9.54017C66.676 9.54017 67.2593 9.68056 67.7722 9.96133C68.2934 10.2421 68.6946 10.6426 68.9758 11.1629C69.2654 11.6749 69.4102 12.2653 69.4102 12.9342ZM67.6109 12.4388C67.6026 11.9928 67.4413 11.6377 67.1269 11.3735C66.8125 11.1009 66.4279 10.9647 65.9729 10.9647C65.5427 10.9647 65.1787 11.0968 64.8808 11.3611C64.5913 11.6171 64.4134 11.9763 64.3473 12.4388H67.6109Z" fill="white"/>
<path d="M74.4878 9.55256C75.3068 9.55256 75.9686 9.81269 76.4733 10.3329C76.9779 10.8449 77.2302 11.5634 77.2302 12.4883V16.5141H75.4929V12.7237C75.4929 12.1786 75.3564 11.7616 75.0834 11.4726C74.8104 11.1753 74.4382 11.0266 73.9666 11.0266C73.4868 11.0266 73.1063 11.1753 72.825 11.4726C72.552 11.7616 72.4155 12.1786 72.4155 12.7237V16.5141H70.6782V9.65166H72.4155V10.5064C72.6471 10.2091 72.9408 9.97785 73.2965 9.81269C73.6605 9.63927 74.0576 9.55256 74.4878 9.55256Z" fill="white"/>
<path d="M78.4356 13.0581C78.4356 12.3644 78.572 11.7492 78.845 11.2124C79.1263 10.6757 79.5069 10.2628 79.9867 9.97372C80.4665 9.68469 81.0001 9.54017 81.5875 9.54017C82.0342 9.54017 82.4602 9.63927 82.8656 9.83746C83.271 10.0274 83.5936 10.2834 83.8335 10.6055V7.34766H85.5956V16.5141H83.8335V15.4984C83.6184 15.8369 83.3165 16.1095 82.9276 16.3159C82.5388 16.5224 82.088 16.6256 81.575 16.6256C80.996 16.6256 80.4665 16.4769 79.9867 16.1797C79.5069 15.8824 79.1263 15.4653 78.845 14.9286C78.572 14.3835 78.4356 13.76 78.4356 13.0581ZM83.8459 13.0829C83.8459 12.6617 83.7632 12.3025 83.5977 12.0052C83.4323 11.6997 83.2089 11.4684 82.9276 11.3115C82.6464 11.1464 82.3444 11.0638 82.0218 11.0638C81.6991 11.0638 81.4013 11.1422 81.1283 11.2991C80.8553 11.456 80.632 11.6873 80.4582 11.9928C80.2928 12.2901 80.21 12.6452 80.21 13.0581C80.21 13.471 80.2928 13.8344 80.4582 14.1482C80.632 14.4537 80.8553 14.6891 81.1283 14.8542C81.4096 15.0194 81.7074 15.102 82.0218 15.102C82.3444 15.102 82.6464 15.0235 82.9276 14.8666C83.2089 14.7015 83.4323 14.4702 83.5977 14.1729C83.7632 13.8674 83.8459 13.504 83.8459 13.0829Z" fill="white"/>
</g>
<defs>
<filter id="filter0_ii_4365_54077" x="0" y="-1.03409" width="91" height="26.8416" filterUnits="userSpaceOnUse" color-interpolation-filters="sRGB">
<feFlood flood-opacity="0" result="BackgroundImageFix"/>
<feBlend mode="normal" in="SourceGraphic" in2="BackgroundImageFix" result="shape"/>
<feColorMatrix in="SourceAlpha" type="matrix" values="0 0 0 0 0 0 0 0 0 0 0 0 0 0 0 0 0 0 127 0" result="hardAlpha"/>
<feOffset dy="1.03409"/>
<feGaussianBlur stdDeviation="0.517045"/>
<feComposite in2="hardAlpha" operator="arithmetic" k2="-1" k3="1"/>
<feColorMatrix type="matrix" values="0 0 0 0 1 0 0 0 0 0.932167 0 0 0 0 0.691667 0 0 0 0.3 0"/>
<feBlend mode="normal" in2="shape" result="effect1_innerShadow_4365_54077"/>
<feColorMatrix in="SourceAlpha" type="matrix" values="0 0 0 0 0 0 0 0 0 0 0 0 0 0 0 0 0 0 127 0" result="hardAlpha"/>
<feOffset dy="-1.03409"/>
<feGaussianBlur stdDeviation="0.517045"/>
<feComposite in2="hardAlpha" operator="arithmetic" k2="-1" k3="1"/>
<feColorMatrix type="matrix" values="0 0 0 0 0 0 0 0 0 0 0 0 0 0 0 0 0 0 0.1 0"/>
<feBlend mode="normal" in2="effect1_innerShadow_4365_54077" result="effect2_innerShadow_4365_54077"/>
</filter>
<filter id="filter1_d_4365_54077" x="6.02734" y="7.34766" width="79.5664" height="10.3114" filterUnits="userSpaceOnUse" color-interpolation-filters="sRGB">
<feFlood flood-opacity="0" result="BackgroundImageFix"/>
<feColorMatrix in="SourceAlpha" type="matrix" values="0 0 0 0 0 0 0 0 0 0 0 0 0 0 0 0 0 0 127 0" result="hardAlpha"/>
<feOffset dy="1.03409"/>
<feComposite in2="hardAlpha" operator="out"/>
<feColorMatrix type="matrix" values="0 0 0 0 0 0 0 0 0 0 0 0 0 0 0 0 0 0 0.1 0"/>
<feBlend mode="normal" in2="BackgroundImageFix" result="effect1_dropShadow_4365_54077"/>
<feBlend mode="normal" in="SourceGraphic" in2="effect1_dropShadow_4365_54077" result="shape"/>
</filter>
<clipPath id="clip0_4365_54077">
<path d="M0 4.13637C0 1.85192 1.85191 0 4.13636 0H86.8636C89.1481 0 91 1.85191 91 4.13636V20.6378C91 22.9223 89.1481 24.7742 86.8636 24.7742H0V4.13637Z" fill="white"/>
</clipPath>
</defs>
</svg>
