<svg width="16" height="14" viewBox="0 0 16 14" fill="none" xmlns="http://www.w3.org/2000/svg">
<path fill-rule="evenodd" clip-rule="evenodd" d="M0.335904 10.3692C-0.322788 11.447 0.0170142 12.8548 1.09487 13.5135C1.45398 13.7329 1.86668 13.849 2.28754 13.849H13.6228C14.886 13.849 15.91 12.825 15.91 11.5618C15.91 11.141 15.7939 10.7283 15.5744 10.3692L9.9068 1.09487C9.24811 0.0170142 7.84036 -0.322788 6.7625 0.335904C6.45289 0.52511 6.19273 0.785263 6.00353 1.09487L0.335904 10.3692ZM14.3816 11.5624C14.3816 11.9835 14.0402 12.3248 13.6192 12.3248H2.28392C2.14363 12.3248 2.00607 12.2861 1.88636 12.2129C1.52708 11.9934 1.41381 11.5241 1.63338 11.1648L7.301 1.89053C7.36407 1.78733 7.45079 1.70061 7.55399 1.63754C7.91328 1.41798 8.38253 1.53125 8.60209 1.89053L14.2697 11.1648C14.3429 11.2845 14.3816 11.4221 14.3816 11.5624ZM7.19021 4.69969H8.71502V9.27411H7.19021V4.69969ZM8.71502 10.0371H7.19021V11.5619H8.71502V10.0371Z" fill="#EA5B21"/>
</svg>
