<svg width="17" height="17" viewBox="0 0 17 17" fill="none" xmlns="http://www.w3.org/2000/svg">
<path fill-rule="evenodd" clip-rule="evenodd" d="M8.00588 1.66667L7.22811 3.33333H9.43856L8.66078 1.66667H8.00588ZM6.16667 1.66667L5.38889 3.33333H2.35702L3.77961 1.91074C3.93589 1.75446 4.14785 1.66667 4.36887 1.66667H6.16667ZM0.0122118 4.02373C0.065352 3.5181 0.290205 3.04313 0.65301 2.68032L2.6011 0.732232C3.06994 0.263391 3.70583 0 4.36887 0H12.2978C12.9608 0 13.5967 0.263392 14.0656 0.732233L16.0137 2.68032C16.3765 3.04313 16.6013 3.5181 16.6545 4.02373C16.6625 4.07017 16.6667 4.11793 16.6667 4.16667V14.1667C16.6667 15.5474 15.5474 16.6667 14.1667 16.6667H2.5C1.11929 16.6667 0 15.5474 0 14.1667V4.16667C0 4.11793 0.00418377 4.07017 0.0122118 4.02373ZM1.66667 5V14.1667C1.66667 14.6269 2.03976 15 2.5 15H14.1667C14.6269 15 15 14.6269 15 14.1667V5H11.6667V7.5C11.6667 8.88071 10.5474 10 9.16667 10H7.5C6.11929 10 5 8.88071 5 7.5V5H1.66667ZM6.66667 5V7.5C6.66667 7.96024 7.03976 8.33333 7.5 8.33333H9.16667C9.6269 8.33333 10 7.96024 10 7.5V5H6.66667ZM14.3096 3.33333L12.8871 1.91074C12.7308 1.75446 12.5188 1.66667 12.2978 1.66667H10.5L11.2778 3.33333H14.3096Z" fill="#989898"/>
</svg>
