<svg width="129" height="33" viewBox="0 0 129 33" fill="none" xmlns="http://www.w3.org/2000/svg">
<path d="M0 16.5C0 7.3873 7.3873 0 16.5 0H112.5C121.613 0 129 7.3873 129 16.5C129 25.6127 121.613 33 112.5 33H16.5C7.3873 33 0 25.6127 0 16.5Z" fill="#EA5B21"/>
<path d="M43.652 11.576L40.664 20H38.096L35.108 11.576H37.292L39.38 17.936L41.48 11.576H43.652ZM46.5616 11.576V20H44.5096V11.576H46.5616ZM52.3447 20L50.5927 16.82H50.1007V20H48.0487V11.576H51.4927C52.1567 11.576 52.7207 11.692 53.1847 11.924C53.6567 12.156 54.0087 12.476 54.2407 12.884C54.4727 13.284 54.5887 13.732 54.5887 14.228C54.5887 14.788 54.4287 15.288 54.1087 15.728C53.7967 16.168 53.3327 16.48 52.7167 16.664L54.6607 20H52.3447ZM50.1007 15.368H51.3727C51.7487 15.368 52.0287 15.276 52.2127 15.092C52.4047 14.908 52.5007 14.648 52.5007 14.312C52.5007 13.992 52.4047 13.74 52.2127 13.556C52.0287 13.372 51.7487 13.28 51.3727 13.28H50.1007V15.368ZM61.9368 11.576V13.22H59.7048V20H57.6528V13.22H55.4208V11.576H61.9368ZM64.9827 11.576V16.616C64.9827 17.12 65.1067 17.508 65.3547 17.78C65.6027 18.052 65.9667 18.188 66.4467 18.188C66.9267 18.188 67.2947 18.052 67.5507 17.78C67.8067 17.508 67.9347 17.12 67.9347 16.616V11.576H69.9867V16.604C69.9867 17.356 69.8267 17.992 69.5067 18.512C69.1867 19.032 68.7547 19.424 68.2107 19.688C67.6747 19.952 67.0747 20.084 66.4107 20.084C65.7467 20.084 65.1507 19.956 64.6227 19.7C64.1027 19.436 63.6907 19.044 63.3867 18.524C63.0827 17.996 62.9307 17.356 62.9307 16.604V11.576H64.9827ZM76.6716 18.512H73.5276L73.0236 20H70.8756L73.9236 11.576H76.2996L79.3476 20H77.1756L76.6716 18.512ZM76.1436 16.928L75.0996 13.844L74.0676 16.928H76.1436ZM82.3273 18.416H85.0153V20H80.2753V11.576H82.3273V18.416ZM96.445 11.576L93.457 20H90.889L87.901 11.576H90.085L92.173 17.936L94.273 11.576H96.445ZM99.3546 11.576V20H97.3026V11.576H99.3546ZM102.894 13.22V14.924H105.642V16.508H102.894V18.356H106.002V20H100.842V11.576H106.002V13.22H102.894ZM118.926 11.576L116.73 20H114.246L112.902 14.456L111.51 20H109.026L106.89 11.576H109.086L110.298 17.708L111.798 11.576H114.054L115.494 17.708L116.718 11.576H118.926Z" fill="white"/>
<path d="M14.4882 16.4492C12.2657 17.1911 10.8281 18.3723 10.8281 19.7027C10.8281 21.9486 14.9248 23.7693 19.9782 23.7693C25.0317 23.7693 29.1283 21.9486 29.1283 19.7027C29.1283 18.3723 27.6907 17.1911 25.4682 16.4492" stroke="white" stroke-width="1.5" stroke-linecap="round" stroke-linejoin="round"/>
<path fill-rule="evenodd" clip-rule="evenodd" d="M24.4469 15.5276L28.9282 14.5275L29.1368 15.4625L25.5913 16.2573L26.3715 19.7533L25.4366 19.9619L24.4469 15.5276Z" fill="white" stroke="white" stroke-width="0.5" stroke-linejoin="round"/>
<path d="M17.2656 11.7852C17.2656 10.9567 17.9372 10.2852 18.7656 10.2852H21.1333C21.9617 10.2852 22.6333 10.9567 22.6333 11.7852V15.1528C22.6333 15.429 22.4094 15.6528 22.1333 15.6528H17.7656C17.4895 15.6528 17.2656 15.429 17.2656 15.1528V11.7852Z" fill="white" stroke="white"/>
<path d="M18.3281 15.5938H19.4507V19.4001C19.4507 19.6763 19.2268 19.9001 18.9507 19.9001H18.8281C18.552 19.9001 18.3281 19.6763 18.3281 19.4001V15.5938Z" fill="white" stroke="white"/>
<path d="M20.4531 15.5938H21.5757V19.4001C21.5757 19.6763 21.3518 19.9001 21.0757 19.9001H20.9531C20.677 19.9001 20.4531 19.6763 20.4531 19.4001V15.5938Z" fill="white" stroke="white"/>
<circle cx="19.9507" cy="7.66553" r="1.62256" fill="white" stroke="white"/>
</svg>
